<mxfile host="app.diagrams.net" agent="Mozilla/5.0 (Windows NT 10.0; Win64; x64) AppleWebKit/537.36 (KHTML, like Gecko) Chrome/130.0.0.0 YaBrowser/24.12.0.0 Safari/537.36" version="26.0.6">
  <diagram name="Страница — 1" id="oCZZH3Qodm8dDKkHFt5S">
    <mxGraphModel dx="1974" dy="1807" grid="1" gridSize="10" guides="1" tooltips="1" connect="1" arrows="1" fold="1" page="1" pageScale="1" pageWidth="827" pageHeight="1169" math="0" shadow="0">
      <root>
        <mxCell id="0" />
        <mxCell id="1" parent="0" />
        <mxCell id="5XtgcM8SoPn40deR1ner-6" value="Форма авторизации" style="rounded=0;whiteSpace=wrap;html=1;" vertex="1" parent="1">
          <mxGeometry x="260" y="-90" width="120" height="60" as="geometry" />
        </mxCell>
        <mxCell id="5XtgcM8SoPn40deR1ner-7" value="" style="shape=image;verticalLabelPosition=bottom;labelBackgroundColor=default;verticalAlign=top;aspect=fixed;imageAspect=0;image=data:image/png,iVBORw0KGgoAAAANSUhEUgAAAz8AAALkCAIAAACuuRxMAAAgAElEQVR4Aey9h1cb3Zruef+UXnfNWrN6Znq6e6Z75p5z+3xzTvcJ/pxzzja2MTiQcwaRJYIQiCiBAiggCQlFcjTJ5JxNzhkR5Tmq7dInk4xtECrxPutdoqgq7fB7d5Ue7ZJU/+0zCAgAASAABIAAEAACQIA4BP4bcZoKLQUCQAAIAAEgAASAABD4DO4NBgEQAAJAAAgAASAABIhEANwbkbIFbQUCQAAIAAEgAASAALg3GANAAAgAASAABIAAECASAXBvRMoWtBUIAAEgAASAABAAAuDeYAwAASAABIAAEAACQIBIBMC9ESlb0FYgAASAABAAAkAACIB7gzEABIAAEAACQAAIAAEiEQD3RqRsQVuBABAAAkAACAABIADuDcYAEAACQAAIAAEgAASIRADcG5GyBW0FAkAACAABIAAEgAC4NxgDQAAIAAEgAASAABAgEgFwb0TKFrQVCAABIAAEgAAQAALg3mAMAAEgAASAABAAAkCASATAvREpW9BWIAAEgAAQAAJAAAiAe4MxAASAABAAAkAACAABIhEA90akbEFbgQAQAAJAAAgAASAA7g3GABAAAkAACAABIAAEiEQA3BuRsgVtBQJAAAgAASAABIAAuDcYA0AACAABIAAEgAAQIBIBcG9Eyha0FQgAASAABIAAEAAC4N5gDAABIAAEgAAQAAJAgEgEwL0RKVvQViAABIAAEAACQAAIgHuDMQAEgAAQAAJAAAgAASIRAPdGpGxBW4EAEAACQAAIAAEgAO4NxgAQAAJAAAgAASAABIhEANwbkbIFbQUCQAAIAAEgAASAALg3GANAAAgAASAABIAAECASAXBvRMoWtBUIAAEgAASAABAAAuDeYAwAASAABIAAEAACQIBIBMC9ESlb0FYgAASAABAAAkAACIB7gzEABIAAEAACQAAIAAEiEQD3RqRsQVuBABAAAkAACAABIADuDcYAEAACQAAIAAEgAASIRADcG5GyBW0FAkAACAABIAAEgAC4NxgDQAAIAAEgAASAABAgEgFwb0TKFrQVCAABIAAEgAAQAALg3mAMAAEgAASAABAAAkCASATAvREpW9BWIAAEgAAQAAJAAAiAe4MxAASAgIkI6DDtqAytRI/b29s7tsK/QAAIAAEgsJsAuLfdTGANELBMAltbW9PT05OYJiYmxsbGRjENDw9/wtWPq7e3txtTV1dXO67W1tZmXA0NDfWYPn78WIuppqamqqrqA1JlZWVFRWVFRUV5eVlpaVlJSVlJSWlRUUlhYUlhYXFhYWFeHooCtTpPpdKHUqmUyTo7OiyTPvQKCAABIHB0BMC9HR1LKAkImDeBkeHhYBeXpICApMDA5MDAVBIJRRqJlB4cnB4cnBESwg4N5YSFccLCuGFhWeHhvPDwrPBwQUSEMCJCGBmZHRkpJpPFZLKETJZGRcmwyI2OVsbEoFDFxqqx0MTG5sfFoSiIiyuk0VAUJySUYFGWkFBGp5fR6eV0emViIoqc8PCcrCzzpgitAwJAAAicPAFwbyefA2gBEDANgU/9/TmhoWtq9bpGY57RzWIpeDzT0IBagAAQAALEJQDujbi5g5YDge8j8MW97bJuG3l5R2PmfroccG/fl1HYGwgAgdNKANzbac089Pv0EdjPvR3Kuv20MztMLeDeTt+ohB4DASDwIwTAvf0INXgOECAigeFPnyQhIcd45fSnHV4Pm52bmUlEttBmIAAEgIApCYB7MyVtqAsInCSBkaEh8T7ubVWlWpDLj9HYYZdrtSrVbE7OlESyqlLtORXXy+HkcrknyQjqBgJAAAgQgQC4NyJkCdoIBI6CwH7ubVoiSXF29n/6VB0evq7RrKpUWsxdrapUK0qlVq1eUSqXFYo1jUaLfeNBq1KtqdWLcvmKUrmu0SzJ5UvYVv2jWr2sUKwolasq1apKtaxQLMnlyKgtyuXj2dkZ7u6pzs5jQuGe7q0H3NtRJBrKAAJAwOIJgHuz+BRDB4HAFwL7ubcJkagkOrqWTo9+82ZEIGC4urI9PXs5nAR7+wR7+9KYGKabG9nGpiE5WRUePi+TqcLDaxISyDY2WT4+fVwuzc4u3s6un8uVBAXNSaXKsLByKrUuMbGdySykUIT+/itK5bxMJgkKKomJKYqKSnRwUIaF7eneYO4NBisQAAJA4DAEwL0dhhLsAwQsgcDo0JAE/WJIXt761zEnk3k9fMhwdW1PT5cEBfk/eZJDIsW+e9fH5eaTyRHW1k2pqeGvXkW9eVMSExP95k1LWlpuSAjJyort6ZkdECAPCeH7+YW+fNnFYsW8fcv19o55+zbD3Z3l4eF46xbP17ciLi767VtxUBDby+vp2bNcb+8dDUD/9mdm5rBYOp3OEnBDH4AAEAACx0YA3NuxoYWCgYCZERgdHhaHhqKrn1+mvrDvGayqVLNSaTmVGvriRVFUVKS1tf3NmwI/vxRn5yWFoiw2NsvHZ04qJb9+LQ4MDHr+PNvff1EuzyGRfB49SnRwKIuNrY6P53p5MV1d3e/ft79xg+Xh4XT7drCVVbq7u/Pt22xPT78nT0JfvhT4+7++fDn27VtRYOCec29695aRYWbYoDlAAAgAAbMjAO7N7FICDQICx0RgD/eGfZmgl8OJsrXl+/oGv3jB9fam29u73L2bHRCQ6uKyJJdXxMXZ37jBcHVNcXYe4vOfnDlTRaMVRUWlubiEvHihCAsLtrKKePWqNCZGq1bPSCRJjo7ZAQHKsLCahASBr6/r3btRtrYUW9sEe/ssHx/fx4+rExL2u3I6AO7tmHIPxQIBIGBZBMC9WVY+oTdAYH8C+7m3JYWihk6XBQd3sVijQqE6IqKQQhnIyupls7VqdUVcXNy7d0VRURMi0YhQGPby5bBAMCkWf6DR2pjMeZmsKTW1KSVlUS7XX/3UaEaFwkmRaFoimZfJJkSizoyMVgZjLDt7TCicFIvHsrMXcnNncnL2nHsbyMyUwNzb/hmELUAACAABRADcG4wEIHBaCIyNjIh2XDnddd+F3aaqIz29ikZbz8vTqlT5ZHJeZORX114PUcLuMvdb84nHEzOZpyUf0E8gAASAwI8SAPf2o+TgeUCAaATGRkbEYWHo10CM/dPBd8rSqtWGn2dbUSoP+k24n/613iE+X8RgEI0rtBcIAAEgYGoC4N5MTRzqAwInRWA/92bs5E52GdzbSY0NqBcIAAFiEQD3Rqx8QWuBwI8TOMi9HThtNi2RVMTFdbFYUxLJp6ysUaGwj8OppdMLKZQeNntJLi+KiiqOjp6WSDozMpYViua0tB9zgUN8fnZa2o/3EJ4JBIAAEDgdBMC9nY48Qy+BwOfP49iVU8Nl0MMbrEIKJcHePsLaOp9MTnNxoTs4VMXHv7t2jePpSbaxaUpJYbq5Bb94oQwLozs4jGVnR75+ffjCjfccFgiEKSmQKyAABIAAEDiYALi3g/nAViBgOQTGR0fF4eE/4N6G+Xx5aKj1pUtMN7drv/xCffduSiIhPX8+L5MlODhoIiLi7exsr1xheXi8u3Yt2MrK9upVY092+OURoVCQnGw5xKEnQAAIAIHjIQDu7Xi4QqlAwPwI/LB7q4iLy6dQfB4/zvTx8bx/n/T8eQ+bbXfjRj+XG/ryZYS1dW5wMPXtW5aHR/irVy1paX6PH+/+bsRhPBy4N/MbNdAiIAAEzJEAuDdzzAq0CQgcB4Gv3Bv6oNuOj7sZrzRabk5NDXr+PNPbuzMjo5xKbUxJUYWHv750KfDZM1VY2EBmZrCVFfXdu5qEhLLY2CW5vIBC0f+qiFEJX5YNPy+yexO2BtzbceQdygQCQMDyCIB7s7ycQo+AwN4ExkdHRT905VSrVs/m5CwrlejXQ9bU6imxmPb+/aRYjK7DLuTmrmBb0U/B7f5BuIN/lMQwLTcqFPISE+E+p3vnD9YCASAABHAC4N5wEvAXCFg6gYmxMVFExIpSaXBLP7ywplZPiERrhrm0I1oYF4myEhIsPQ/QPyAABIDAzxIA9/azBOH5QIAoBI7Qve1t+/Lydl4h/U5Xh9wbzL0RZURBO4EAEDgpAuDeToo81AsETE3gp9wb+qTad7qxvU3e/oXA3JupxwTUBwSAADEJgHsjZt6g1UDg+wlMjI8f1ZXTvW3ZTzu8SbE4Mz4e5t6+P7fwDCAABE4XAXBvpyvf0NvTTGBqYkIUGXkkn3vb273tP6l2yP2nJBJOXNxpzhH0HQgAASBwGALg3g5DCfYBApZAYGpiQhgePi+TrSiVK0rlskKBYkkuX1IoUCzK5YZYyM1FMZ+bOy+Tocc5mexLSKVzUumsUcxIpdM5OdMSybREMiWRTIrFKMZFIhRj2dmjeIwIhcMCAYohPh9FC4PBjI6GuTdLGG3QByAABI6TALi346QLZQMBcyIwNTkZ5uqa7u/PDgxkGUVGYGB6UFBGUFC6UTCDghgkEpNEYpBIaSRSWnBwWnBwKomUGhyMIoVEivfz83j+PJlESg4ORpESGpoaFqaP8PC0iAgUDDKZQaHoIyqKGR2dHhOjj9jYdCo1nUrNiItj0Wis+HgWjZZOo8lzcsyJGbQFCAABIGCOBMC9mWNWoE1A4DgIbG5ujgwPD336NDw0NDw0NDI8PDoygmJ8bAzF5MTEl5icnJ6amp6enp6amsE0Ozs7Nzs7j2txcbG/v9/FxWVubm7FSKu7pDXSmpHWd2ljY2Nra+s4+g5lAgEgAAQsiQC4N0vKJvQFCJiUwMzMjLe39/r6uklrhcqAABAAAqeeALi3Uz8EAAAQ+FECs7OzXl5e4N5+lB88DwgAASDwgwTAvf0gOHgaEAACs7OzMPcGwwAIAAEgYHoC4N5MzxxqBAIWQgDNva2trVlIf6AbQAAIAAGCEAD3RpBEQTOBgPkRmJ+f9/b2Xl1dNb+mQYuAABAAApZMANybJWcX+gYEjpUAuLdjxQuFAwEgAAT2IwDubT8ysB4IAIFvEAD39g1AsBkIAAEgcDwEwL0dD1coFQhYNAGdTjcxMTE5Oent7b24uDg6Orq9vW3RPYbOAQEgAATMiAC4NzNKBjQFCBCFwPb2NoPBYLPZDg4OQqEwIyNjY2ODKI2HdgIBIAAEiE4A3BvRMwjtBwInQ2BoaOjt27f/+q//amtrOzMzczKNgFqBABAAAqeSALi3U5l26PSpJLC2tlZaVKSWyTS5uWqZTCmRoJCLRDKhMDc7O1colPL5Uh5PyuNJsrLEXC6KbBZLmJGRzWIJ0tP5DAaKzOTkUC+vX//wB5K7O5tO5yQmsun09Li4DCzSqVRGTAwjOpoRHZ1KJqNIDg9PCgtDQSeRUCQEBdECAvTh7x/j7U2NjIS71J/K4QmdBgJA4DsIgHv7DliwKxAgNIHZmRl6QEBJXFwlnV5Jp39ITKxGkZRUm5yMoi4l5WNq6sfU1PrU1Ma0NBTNDEYzk9nMZLYwmW3p6Sg6MjI6WKz2jIxOFqubze7mcLo5nF4utw9FZuZAVhaKQR7vE5//ic8f4vOHBYIRoXBEKBwVCseys/UhEk2IxShGhEI6iQTujdDDDBoPBICACQiAezMBZKgCCJgFgbmZGWF09KJCsZ6XZ3aRn7+el7ekVKaFhsKN6s1iuEAjgAAQMGMC4N7MODnQNCBwpARmZ2ayY2IWzNO9YYZyGdzbkWYcCgMCQMBSCYB7s9TMQr+AwE4Cc7Oz2TExZjr3ZuTe4MdHdmYO/gcCQAAIfE0A3NvXPOA/IGC5BH7Gva1pNN++2Ipd/fz2bvtft4W5N8sdfdAzIAAEjpIAuLejpAllAQFzJoDc24Jc/r0GS6tW1yUldbHZh/Jw+5uzb9a7olKlhYRsbm6aM0ZoGxAAAkDgxAmAezvxFEADgICJCMzPzek/9/ad7m1No5EGBz/461/fXbtWGhu7olIN8ng9HM6SQjEkELQwmf2ZmbMyWQ+Hs5aXNyOVdrPZUxJJVUJCN4fzvW5vRaVihIbCD/+aaEBANUAACBCWALg3wqYOGg4EvpPAj7m3QR4v7NWrBAeHTG/vsFevimNiQl++DHnxQhUR4ffkSYS1tdfDh0XR0U9+/XVYIMj08fF5/FgdEUGzt/d+/HguN/eb823GOyD3BnNv35lY2B0IAIFTRwDc26lLOXT41BL4MffWwmAk2NvzfH0VYWHh1tapLi5FUVFt6ekUW1uKrW1fZmaaq2uWj8/ba9d4vr7h1tahL1/mk8mx7949OnNmQiw2NmffXIa5t1M7OKHjQAAIfBcBcG/fhQt2BgIEJjA/NyeMjf3eK6czUmnQ8+dOd+54PHhAff9e6O+fGxJSSaPR7OyCX7yoTUyMfvNGHBREs7N7d/16oqMjxdbW78kTcWCgw61bo9nZ33Rsxjsg97a+vk5gytB0IAAEgMDxEwD3dvyMoQYgYB4E5ufns6nU73Vv63l5fZmZFFvbNFfXcZFokMeLe/8+3Nq6ISUl8PlzkpUV3cGhPT29jEqVkEj1ycnK8HBlWFjk69fU9+9npFJjc7bxrS+lrqrVzNDQtbU18wAGrQACQAAImCkBcG9mmhhoFhA4cgILP+re1vPyZmWyRfzrDvO5ubNS6VxubrKzcy+Xu6hQaDWaVbV6Va3WL6hUWrV6Pjd3WaUytm6HWUbuDebejjz1UCAQAAIWRgDcm4UlFLoDBPYl8G339q25MWMHtqbRjIlEK99v0YwL2bG8olLB3Nu++YMNQAAIAAGcALg3nAT8BQKWTkD/rQUqdf7r74H+djVzP+u23/r9ftdtv/33W29Ujv5zbyEhWq3W0lMB/QMCQAAI/BQBcG8/hQ+eDAQIRGBxYSE7Lm4evwC6Y95Lq9GgiTStWr2iUq1pNFqNZlmpXFYq17BNS9jCqlq9qFAYVq5h+2g1mlmZDD1rWipdkMu1avWyUqlVq5ewnVE5C3L5fG7uGrazVq3e0YD1vDx05RTcG4EGFTQVCACBEyEA7u1EsEOlQOAECBzg3lbVap6fH83OrpXB4Pv7k21tJUFBZVRqwNOnQc+ff0xKynB3j333ro3JzA4MpNjYJDk5daSn55PJzWlpyU5OZVRquLV1po9PfXIy6cULmp1dY0pKPpk8xOfnhoRUJySUx8UJ/f1Znp7p7u7DAoH/kyef+HxwbycwCKBKIAAELIIAuDeLSCN0AggcgsAB7m1ZqRT4+6c4O1Pfvw+yshIFBvo/fdrH5bI8PCQkkio8nO3lVRobS3dwCLe2LoyKSnJyyg4ISHJyCnnxwv7mzYaUlJzgYL8nT+oSE3OCg93v3+f5+rI9PbtYrCQnp3wyOdnZ2eHmzeg3b0JevBD4+T09e7abwwH3doikwS5AAAgAgT0IgHvbAwqsAgIWSeCLe/v6c2/IQs3KZIHPn4dbW5NtbPyePqXZ2fk9eTIiFEqDg4uiohRhYYqwsG42O+bdu7j371uZTGFAQIaHh8OtW8EvXsTZ2X3i82WhoV6PHiU6OjJcXT0fPuR6ezNcXVsZDJqdnSYy8u21a3QHhwR7e6+HDyNtbMJevepms3e7N61anR4SsrKyYpH8oVNAAAgAgaMiAO7tqEhCOUDA3AksLi5m02g7vrWALNSwQOB69y713bvI169JVlYMNzf/p0+72WxVeHhRdPTHpKTQly+j3rwR+Pv7P3tGsrLyffy4KDra6vz54piYFBcXSVBQzNu3JCurBHv7KFtbx1u3sgMDXe/eDXj2zPrSpSxfX8+HD+sSEzM8PPyePs2LjMz09e3LzNzDvWk0GeDezH0cQfuAABA4eQLg3k4+B9ACIGAaAvu5t438fK1aXR4XV0qldrHZLUxmKZXanpGxqlZPiERTEsmKStWRkfExKWlKIkl0cFBHRHSyWAty+SCPtyCXj4tEUzk5rUzmiFA4K5O1p6cPZGXNymQDWVm9XG6ys3M1nT4pkSwrlTNS6YRYvKxUzslkq3t9a0EL7s00QwFqAQJAgOAEwL0RPIHQfCBwaAL7ubfdc2B7rMF+70Or0ZTHxY2LRHvsYPTDH8Zb+zIzp3JyjNccsAzu7dDJhB2BABA41QTAvZ3q9EPnTxWBpcVFIY02t9fn3g5wVDs2aTWaHWt++/cQv+j22857uT29ewsOXlpaOlV5gc4CASAABL6XALi37yUG+wMBohJYWlr6efd2sP36ya1rGg0rJGR5eZmoiKHdQAAIAAGTEAD3ZhLMUAkQMAMCx+fefrthw14zantYun1m6bSYe4O5NzMYLNAEIAAEzJoAuDezTg80DggcIYHjc297+LND2rivd0Nzb+DejjDpUBQQAAIWSQDcm0WmFToFBPYgoHdv8fE/+bm3HUatPzNzYZ9bb+3Y8zD/rmGfe1tcXNyj9bAKCAABIAAEcALg3nAS8BcIWDqB5eVlPo02KhLp7zcql8/IZNNS6bRUOpmTMyYSjYlEoyLRkECAYpDP78vKQtHF4XSw2Z1sdjuL1ZKejqIxLa0+NdXr0SNZaGhNUlJNUlJ1YmJFfHw5FqVxcYUxMSg0FIqKTFaRyYqICGlYGAoRiSQMChIGBfEDAzP9/LhYMD09vWxtwb1Z+kiE/gEBIPCzBMC9/SxBeD4QIAqB9fV1cXZ2HIVCi4qiRUUlxMQkUqmJVGoSjZZKp6NgJienp6bqIy2Nk57OzcjgZmRksdk8LpefmcnPzMwWCFBIRCKpRPL0yZPEhASFXK6Qy5VyuUatzs/Ly8/LK8jPLy0pKSstLSstrayoqP7wobqqqqa6uv7jx4b6+ob6+pbm5jZM7W1t3d3dPVgMDAyMjo5ub28TBSm0EwgAASBwIgTAvZ0IdqgUCJwMgc3NzQ1cm7g2NjY2Nze3dmn7a+n2Unh4eGdn58l0BmoFAkAACJxWAuDeTmvmod9A4CgIkMnk9vb2oygJygACQAAIAIHDEgD3dlhSsB8QAAK7CURFRbW1te1eD2uAABAAAkDg+AiAezs+tlAyELB8AuDeLD/H0EMgAATMjwC4N/PLCbQICBCBwKdPn0ZGRigUSlNTU0NDw+rqqtm2WqfToY/wbW1toQ/7bWxsrK+vr2HSarWrq6srmJaXl5eWlhYxzWOaxTSNaRLTOKZRTMOYBjD19vb29PR0dnZ2dHS0tbW1trY2Nzc3NjbW19fX1dXV1tZWV1dXVlZWVFSUlZWVlpYWFRUVFhbW19evra2ZLTpoGBAAAuZJANybeeYFWgUEzIUA+q7C9vb2Dg9UXFxMIpE8PDwoFEp4ePjs7KzBEiE/tLq6uowJ+aEFTPPz83Nzc8gSzczMTE9Pj4+Pj42NDQ8PDw0N9WPq7u7u6upCBqipqamxsfHjx4+1tbVVVVWVlZWlpaXFxcUFBQUajUahUMhkMrFYLBQKeTwel8tlsVgMBiM5OZlOp9NotJiYmKioqMjIyPDw8JCQEBKJFBgY6O/v7+Pj4+Xl5e7u7urq6uTk5ODg8P79+7dv39rY2Lx+/frly5cvXrx4/vz5s2fPnjx58ujRowcPHty7d+/OnTu3b9++cePG9evXr2C6aKRLly5dvnwZPV6+fBntcPXqVcPCNUzXr1+/cePGrVu37ty5c/fu3adPn9bW1ppLsqEdQAAIEIQAuDeCJAqaaQYEjL9zuY3L8E1N/Buc+i91rq+vG6zM2tqaFtMqppWVFTTBs4QJTfMsLCwgW4MMzeTk5MTExOjo6MjIyBAm49mdrq6uzs7O9vb21tZWg7mpq6urrq6uqqqqqKgoLy8vKSkpLi7Oz8/Py8tTq9VKpVIul8tkMolEIhKJ+Hx+VlYWh8NhsVhMJjM1NTUxMTEhIYFGo8XGxhrbnaCgIIPX8fDwcHNzc3FxcXR0tLe3t7a2/t3vfvff//t//4d/+IcbN24go/Pw4cMHDx7cv3//3r17d+/evY3p5s2bN27cuHbtGrIyyOJcvHjx/Pnz586dO4/pwoULFy9evITpMiZkeq5cuWJsem7evHnnzp179+49fPjwyZMnz58/f/HihbW1tY2Nzdu3b+3t7R0dHV1cXNzc3Dw9Pb29vf39/QMDA0NCQsLCwiIjIykUSmxsbFxcHJ1OT0xMTEtLYzAYLBaLzWbzeDw+ny8SiSQSSW5urkKh0Gg0+fn5RUVFJSUlFRUVlZWVNTU1dXV1DQ0Nzc3N7e3tHR0dPT09vb29/f39AwMDnz59GhoaGhkZGR0dHRsbm5iYmJqamp6enpmZmZ2dnZ+fX1xcXFpawub49A9oPHC5XLVabQajG5oABIAAkQiAeyNStqCtBxDQ6XTo5zDQVbDFxcWFhQVkhiYmJg6Y3WloaKivrzdc2CovLy8uLi4qKsrLy0OzO3K5PCcnRywWCwQCHo/H4XAyMjLS0tJSUlIMEzwUCiUiIiI0NJREIiG74+npieZ17O3t3717Z2tra21t/fLlS+Ry7t+/f/fu3Vu3bl2/fv3y5csXL148e/bsr7/+enaXzmFCFmfHo8HxoJmeq1evXrt2DU3t3Lx58xam27dv38V0//79Bw8ePH78+OnTp1ZWVi9fvnz9+vWbN2/ev3/v4ODg5OTk6urq7u7u5eXl6+sbEBAQFBQUEhISHh5OJpOjoqJiY2NpNBqdTk9KSkpLS2MymWxMsbGx6enpYrEYmR65XK7GVFBQUFhYWFJSUlpaiqxPdXV1TU3Nx48fGxoampqaWlpa2tra2tvbuzD19vb29fUNYhoaGhoeHh4bGxsfH0ceyGCAFhYWkN9dWlpCE3vIDCEnpNVqsWuh+gdkoNGPoRiMtcFq495bP6GI9PmEJBAIwL2dEHuoFggQmAC4NwInD5puIDA/P3/16tUzZ86cPXvWeDoH+RuDy7l48aLxvM51TDcxoYtid+/evY/pwYMHDx8+fPz48ZMnT54+ffrs2TMrK6tXr14Z5ngMEzw+Pj7I64SGhhpmd2g0WlJSUnJyMpPJZLFYWVlZAoFALBbn5OQolUq1Wl1YWFhUVFReXl5VVVVXV1dfX2np36AAACAASURBVI/cTAemrq6u7u7uPkwDAwODg4NoBs4wqTMxMYE+iTUzMzM3Nzc/P49sDfI0aF4HWRmDfUGXPnGv8tvfz58/G+yLTqdD/+5+NDxh9ybDGkM6YOHwBPh8vkqlQuQP/yzYEwgAgVNOANzbKR8AFtL9ubk5GxuboqKi6urq2tpaNMHT2NjY0tLS2trajqkbU19fX39/v/FFLvQh9ClMxnM8yAmtrq5qtVrDRA4yQ+hx90SOsUOyELLQjWMmIBQKlUoluLdjxgzFAwFLIwDuzdIyejr7s7Cw4O3tvby8fDq7D70mLgGRSCSXy4nbfmg5EAACJ0IA3NuJYIdKj5jA4uKit7f30tLSEZcLxQGBYyYA7u2YAUPxQMAyCYB7s8y8nrZeLS0tgXs7bUm3jP6Ce7OMPEIvgICJCYB7MzFwqO5YCIB7OxasUOjxE5BIJDKZ7PjrgRqAABCwKALg3iwqnae2MysrK15eXouLi6eWAHScoASkmAjaeGg2EAACJ0UA3NtJkYd6j5KAVqsF93aUQKEsUxEA92Yq0lAPELAoAuDeLCqdp7Yz4N5ObeqJ3nFwb0TPILQfCJwIAXBvJ4IdKj1iAlqt1tPTE66cHjFWKO74CaDblx1/PVADEAACFkUA3JtFpfPUdmZ9fd3Dw2NhYeHUEoCOE5SAXC4Xi8UEbTw0GwgAgZMiAO7tpMhDvUdJ4O93OHV3d5+bmzvKQqEsIHD8BHJzc8ViMdxr4fhJQw1AwKIIgHuzqHSe2s6Aezu1qSd6x9HcG7g3oucR2g8ETEwA3JuJgUN1x0IA3NuxYIVCj5+AXC4XiUTg3o6fNNQABCyKALg3i0rnqe0Mcm8zMzOnlgB0nKAElEpldnY2uDeCpg+aDQROigC4t5MiD/UeJYGNjQ0PD4/p6emjLBTKAgLHTwDc2/EzhhqAgAUSAPdmgUk9hV3a3Nz09PQE93YKU0/0LoN7I3oGof1A4EQIgHs7EexQ6RET2NjYAPd2xEyhOJMQUKlUQqEQrpyaBDZUAgQshwC4N8vJ5WnuCZp7m5qaOs0QoO9EJKBWqwUCAbg3IuYO2gwETpAAuLcThA9VHxmBzc1NLy+vycnJIysRCgICJiEA7s0kmKESIGBpBMC9WVpGT2d/wL2dzrxbQK/BvVlAEqELQMD0BMC9mZ451Hj0BMC9HT1TKNEkBNRqNZ/PhyunJoENlQAByyEA7s1ycnmae7K1teXt7Q1XTk/zGCBo3zUaDbg3guYOmg0ETpAAuLcThA9VHxmBra0tX1/f8fHxIysRCgICBxI4YLYMbTJ+NJS0e6VGo+HxeNvb258/f9Zh2r2A1u94NJQJC0AACJxCAuDeTmHSLbDLm5ubvr6+Y2NjFtg36JLJCczOzjY0NNRhqq2trampRvGhqrLyQ4U+KivKK0rLy/VRWlZcUlqEoqg4v7A4v7AoP79Qk1eg1ke+Sp2nUGv0oVTJFCqpQiWVK3NkcjGK0PAgb193sVQglgqyxZnZ4kyhOFOQzeVnc/jZHJ6QnclP52LBzkpjZ+ojg5OSzko7wD6aHBhUCASAgKkJgHszNXGo7zgIoLk35N52TFGgfw3zGTqdbvtb2vpa29vb8Ep5HFkzzzJ1Op0mTxUW40pj+tEYvjSGb3y6b3y6nz4y/BJY/lj40Vn+dLY+Ejn+SdwA/SO2kJQZkJQZkJwZkJL1JVL5gSm8gFReYKogME0YhEUgIzsIRaogIE0QkC4mpYtJGZJgLEisnGC2FI/cEA4WXHkICk5usKPnCxiT5jl+oFVAwDQEwL2ZhjPUsjeBjY2NkZHhwcEBFH19Pb293b293V1dnR0d7ShaW5tbWppaWpqamvQTIg0NdfX1dbW11TU1VTU1VVVVlZUVZWVlxS9ePMvJEZWWFJaUFBYV5RcWavRRoMnLU2o0irw8hUolUylzVMocpTInN1eUm5udm5stlQpyJLycHJ5EkiXK5mRns7Oz2UJhBo/H0EcWIzMztbr6w9bW1t4dgLUWR0Cn0ylVUoGaXNbGKGtjlLcz0YJJHg9VV0lLml+oHbg3ixt60CEg8B0EwL19ByzY9cgJ9Pf3B/g9ptOeo0iiP09OtEpOtEpNsmKkvEDBYrxkMfXBTn/JZesjk/2Sx33Fz7TmZ1oLeNYivj4yGA9EgpdS0esc0Wup+HVujg0KhcxGmWujktuq5TYapa1GaZuntC1QvynEokjzpjj/LYqyovflxe9QVJa+R6FR2PCyaOvr60fedyjQPAnscG+HMW3lbYdxXUewD7KS4N7Mc+RAq4CAKQmAezMlbahrJ4GOjo5s/svxIa8Dw/vArQc/92e3tjY6CQXg3nYmzoL/x9ybjI/PvR3GvR3dPodxeIySljTfkHcw92bBgxC6BgS+SQDc2zcRwQ7HSKCrq1PIe3GC5uybVWPuLQ7m3o5xEJhZ0TqdTqWR85QRh/dkJpt7M1zJ9Q5+A+7NzAYONAcImJQAuDeT4obKdhDo6enmZ37TvZ3k3Ftbo5OAHwvubUfiLPhfnU6nzlMY3JsZfu6trI0B7s2CRyB0DQgchgC4t8NQgn2Oi0BfX98h3NvPXv385gTbATsg97a2tnZcCKBcMyOww70dZgauvI15RCbvUFdOwb2Z2ZCB5gCBEyAA7u0EoEOVBgK9vT3g3gw0YMEcCPyAezuMwzvcPt/h3tAP/JoDMWgDEAACpicA7s30zKHG3wj09fXyuN+8cnqic29NTnxeDMy9/ZYzS1/S6XR5BaosxW+feytpSaVzvSQl0YdwYLvsV6v+Z0e+I4z2L21NK0P/tjKKm1ONC/ENfbuxsWHpqYD+AQEgsC8BcG/7ooENJiAwMNCfybYaH0KfbNv9uMO37d5hx0fivrkDKvCbu/22Q3uzM58XBe7NBIPBTKrQ6XT5BWpj96b4EHf32Vm/yNelLWnq2gRObjBPFZ5XRxcVkktbGfn1ScL8yJyS6Pz6JFEhJackWlwUVdKSKtBEZBeQ1TUJPHW4rCxWWhoTFv8+u4BMY7kHkF9H0O258hBKilME3V5TS+epw90Cn2XkBEUk2Nt7PvCNsBYVUjxDrCjJTvIKalSKk4P3wzShn8HA+YW9A/dmJgMGmgEEToQAuLcTwQ6VfiGAu7cdLs2M/m3Tz71FabVayNkpIbDbvTFEAe5Bz+087is+0CLp9g+szt9/fj6e7fm3i78X5EUEx7698+SMs+9jOtfr/LX/zy/S2tnvcV4t/Z3bXY9gqxiGy8UbfwyKfvPK/kZ4vJ132EuWlHT3ya8JbE9/yuvXjrd8wl8FRNmQkx3jWR5PrC8xRQEv319Py/Z3C3pGTXdz9HkUQbd/+OoCUxzwyv5GUWMKMnDg3k7JaIRuAoH9CIB7248MrDcFgcHBAWzu7Tvs2tgnr7FPnoY44AsHuzdNDO+Yq/t2veDeTDEOzKmO3e4tgPz6ld31B1bnOPKQsHg7KtPVLfBZAsfz7rOzvhGvHLwfPrW57OjzyMHrwQOr8wFRNjfu/8Xa4eZ9q3MewVaOPo/uPv3VLfCZi/+T4uZUVXV8WRvD3vOBrDyWkuwYlerMkpK8Ql74hL9663r3vtV5URHF2fexIC/SNfCpqJASmejgHfbS2e+x4gPtjcudvI+JBvcG34M2p1EDbQECpiYA7s3UxKE+YwIDA/1cltVum/X1mq8s1+igZ+2Ht32dLi0N9nUf3ox98vx6528bsu/aH9ybcb5Ow7JOpyso1GTKw5FPKm5Offn+ul+k9Vu3u6G0985+jynJTm9c7kSnubj4P7lvdc4t8Olr+5s2TrcfvbzgG2HtT379xuUOXx1u43TLwfvhnSdngmPfBFBs3rreTeb7kpMcS1sx91YWG0G3f+d215/82i/S+pXdjRiGy5PXl0RFFPegZ+KiKH/y6wCKzTu3u9FpzveenQ2mvrNxulXc/GXuLSDy/erq6mlIB/QRCACBPQmAe9sTC6w0EYHh4SF2+jfd21eGbLjfnRp1qUD9Ipp8oTjv5UC3a1uTY1+n68iAR3uzQ1ujw3C/R3e7c0Pt+4Fu1+42p6E+97ZG+/4u1/qad9UVtr0dLgcYvt2Tc+1NTvwsMlw5NdGAMI9qCovyuLh7U9ckBFPfFjWliAsprgFPr975r5fvr1++9SfXwGfxHE9yokOGJCgy0SEy0YHO9WJJSalCPxrLo6gpJS7DjZrulpTlzddEcOUhKXxfF/8n9EyvsjZGUpZPXi2dkuz02vFmULRtTkl0AsfTn/w6LsNdU0vPkAblfUyUlsaExr2nprvqjaDjreDYt2xZsP57DNh3IAIj7VZWVsyDFrQCCACBEyAA7u0EoEOVBgLDw8Ms5vNvTYZ9Nfc23O8RHnLW3eVPjJSbA92uGWm3fL3+HBl2rlDzwtvzzx5u/6lWPA8JOuPr/Ze05BvRkRfzVVbPnvy7iP/w3p1/CfT7a3TkhcEet2/V+JtfbG924mdFgnszpOw0LBQW5RvcW1kbw+CZsgvIMWkuRU0pnNyQZJ5PaeuXTaWtaaVG3xVFBmv3o6EctCmZ75sq+O2LCLv3R2vkFdToVGfDrBtaCe7tNIxD6CMQOIAAuLcD4MCmYycwOjpyCPf2m5caH/Ia7vcI8v/bowf/F4t5+1Ovm0L2NC72svXL36UmXhfxH7Q2OuQprKLJF7vbnNoa7cNDzgb5/c3G+neCzPvurn9qa3IIJf3aUm8P7u3YU0vkCvTuLffLlVNjU1XSklrYkFTWxihpTi1q+nIRU3/3qh+6S31BQ3JhY7Jx+WV7lVPamlbQ8Ntu6GeBwb0ReXxB24HAERAA93YEEKGIHybwY3NvUREXJMKHPp5/Ls5/6ef9F2bKzbc2v0+hX+dz79V+eJMreRoZdr61wb68+LWj/S8O7/9Ajb4kzHzwxub31RW2AX5/bW9y+C73xoO5tx9OMDGfWFRSwJGFfe2rvuc3277rB96+2nnXz8V9tfW3NgRR7BcXF4lJF1oNBIDAERAA93YEEKGIHyYwPj6envbNK6dfzb2NDHgwkm/UVNhKxY8ZKTcpEReC/M94efxXScGrQL+/+vv8pbz4dVzMZT/vPwuzHpDDz4uFD3OyHyllz25e/ydfrz9nsu4O93sc3r11NDvxssK1WviE+A8nmXhPLCkt4sj2mHvbz899c+4NmzA7jDM7zD56D0eKclhYWCAeWWgxEAACR0QA3NsRgYRifojA+Pg4M/X73NvYJ8++Tpfhfvfhfo/eDue+Tpfmj3Y97c6jgx7dbc6dLU6jgx6DPW4dzY7D/e6DPW7D/R7D/e4dzY5+3n/pbHEcHvA44FsLu12d3r1lgnv7oewS9knf6972c3Xfvx7cG2EHDTQcCJiWALg30/KG2r4mMDEx8b3ubbfBMqzZ/Y1Rw6aRAc+WeruxT19N4xm2HvBEcG9fZ+xU/Afu7VSkGToJBIhMANwbkbNH/LZPTExkMKwmhr0PiPGhg7Ye8ETjTT9cSGeLCz8rAr5zSvyx9h09KC0r5sjCytuZ6CsCaMEEj2Vt+hq/GWVtjJBYx9nZ2e/oEuwKBICAZREA92ZZ+SRabyYnJ9KSnxnmwMxwoaPZKYsbCr+MSrSR9VPtLS8vZeeY9bcWQqlOMzMzP9VJeDIQAAJEJgDujcjZI37bZ2amU5PM2r11tjhlZYaAeyP+WPuOHux2b2gSbr/PsX3zWwv7PXHX+sN+7g3c23ekE3YFApZIANybJWaVOH2angb3RpxsnZqW7nZvu2zWbz/ecaSbvsO9TU9Pn5qEQEeBABDYSQDc204i8L8pCczMzJj53FsHzL2ZckCYR13lFWWsnNDD27LDzb0dxpkdZh+9cQyPc5qcnDQPWtAKIAAEToAAuLcTgA5VGgjMzMwk07955fSrO2WZ+LNxnS1OmRzS6ircU9KQNMtfqKgsZ0m+w70d3ud9a8/DurfIeJeJiQnLzwT0EAgAgX0IgHvbBwysNgmB+fn5pIRvure9f+bjyG3cxLDP7jL17o0bBO7NJMPBXCqpqCxP4QVq6uj6qKWraxJQqKoTVNXx+qiKV36gKT/QFB9oikqavDJOHxVxueVUFLKyWBTSstic0picEn2Ii6LFRVHioihRYVR2PgUFXxPBU4ULNJECTSRPFZGlxEIRzlWE6UMexpGFcmQhHFkIKyeEJQlmSYIzJMEeAa9h7s1chgu0AwicBAFwbydBHerECczNzR3CvZ3o3FsruDc8W6fmb3Nzc3CEd2Ssvz6o/pS4QBRRNFJ0fDCK2IRQKj2MmhBGpYfF0SNQ0BLJ8Un6SEii0JOj6Sn6SEyJTUylJqZSk9PiUhjxWCQwMhKZGUnMjCRPHxc3DwcWJ5XFTeNkMblZ6dys9ExeBk/A5gk4PAFHKMoUirKEoqxsMU+cI0Qhy82BX7E5NeMROgoE9iAA7m0PKLDKZAQWFuZpsY97O11Q9LQ7G6K7zRlFV6tzZ6uTPlocO5q/RHuTQxuKRodWFA32LfX6aK63b/5o11T3JRpr7Rpq7Rrr7Btq3tdXv6+vtquvtvtYZVeH4sP72sovUVP5vrryfXWFPqrK36HIU75mpAXA3JvJhoQ5VLS1tbW4uLiAa8lIy7hWcK0aSavVruFax7VhpM1dys3NFQgEm5ubW5i2d0m3S+aACNoABIDAyRIA93ay/E977YuLix7uz6LIWFCexVCsYqJe6iP6FTXGBgWN+g6P97Q4+3h9OCTQnBLinRPinenxrol0j8QEd0eHG+TI98lJPslJPilJvqnJ/qkp+khLCWKkBjPTQhhpwemMMBQZ6ZEZGWR9pJPZGdFslj447FguJw5FVmYCiszMpKJCzcbGxmlPFfT/eAgolcrs7GydTnc8xUOpQAAIWCYBcG+WmVcC9Wp1dWXP0K6uarWr2KN2bU2rXzbS2pp+JRZr6+vrWq02LCysubkJn+/46q/R3Mcei4bZEDT5YfgXLWxtbW1vb8OLK4FGFLGaCu6NWPmC1gIBMyEA7s1MEgHN+CkCW1tbZDK5vb39p0qBJwMBkxMA92Zy5FAhELAEAuDeLCGL0Ift7W0KhQLuDUYC4QioVCqBQACTu4RLHDQYCJwsAXBvJ8sfaj8aAtvb21FRUa2trUdTHJQCBExFQK1Wg3szFWyoBwhYDgFwb5aTy9Pck62trZiYmJaWltMMAfpORALg3oiYNWgzEDhxAuDeTjwF0IAjILC9vQ3u7Qg4QhEmJwDuzeTIoUIgYAkEwL1ZQhahDzD3BmOAoATAvRE0cdBsIHCyBMC9nSx/qP1oCOh0upiYmKampqMpDkoBAqYikJeXx+fz4VsLpuIN9QABCyEA7s1CEnnKu7G9vU2lUhsbG085B+g+4QiAeyNcyqDBJ0VAp9MtLS2trq6eVAPMql5wb2aVDmjMDxLY3t6Oi4sD9/aD+OBpJ0FgenpaIpHk5ORwuVyNRtPV1XUSrYA6gQBhCGxvb+fk5FRUVBCmxcfZUHBvx0kXyjYJgbU1/e0W4uLiGhoaVldXt7e3P3/+vL6+vry8DBekTJIBqORHCMzNzfn6+trZ2dnb2/v7+4+Ojv5IKfAcIGB+BHbdm3fvFbtu6vuNFZubm5mZmWq1emtry3AvHOP76ujvyYNrZWUFvynx8qKR5nHNzc3N4pqZmZnGNTk5OY5rbGxsBNfw8PAnXIODg/24+vr6enD19/ebbGoQ3Jv5DXzza5FOpzPl3aKMD/TtvYRuaWW4sZVCoRAKhVFRUSKRKDIycnJycmNjo7m5OSMjY3V1dX19Hd0eC5k8dA9xwz238CP9t7/o5uOGw97oBuVLi4uLS0v6R/z25Qvz8/NzmGZnZ/Fjf3pqampycnIC09jY2CiuIVzoDDA4ODgwMNDX11dXV1dQUDA9PW1+mYcWHS+BiYmJhw8fXr58eXBw8HhrMu/SDWcY42MfLaMTgPEhv3t5c3MTHeOGBfSv8es6OvDXsJvuGQ5/4xf71dVVw+u9YQGdB3acBJATWFjQH/5Ic3NzM7jQ4T+JaWJiYgzX6OjoyMjIMKahoSHcBnzCPYD+b29vL24Derq6ujoxdXR0tLe3t+FqaWlpxtTU1NTQ0FCP6ePHj7W1tTW4qqqqPuAqN1IJrqKiojxcGo1GoVDI5XKFQpGbmyvBJRKJ+LiysrLYmDgcDovFSsOVkpJCxxUfHx+LiUqlRkVFReIKDw8PwRUUFBSAy9fX1wuXm5ubCy5HR0c7TPb29m/evLHFZGNj8+rVKysrqz//+c9nz561wvQc07Nnz57gemSkBw8e3L9/Hz3evXv3Dq7bt2/fwnTz5s0buK5fv34V1xUjXb58+dKlS5dxXcJ18eLFC7uEVlZVVX02icC9mQSzGVSi0+k2NzfRW5aNjQ3DuWwV1/LyMjpJLS4u7jAlExMT1dXVw8PDE5jGx8fHMI2Ojg4NDQ1iGhgY6MbV3t7eiqmlpcVwfqmrq6vGVFVVVV5eXoapuLi4AJdKpVJiksvlOZgkEkl2drZAIODz+VlZWRxc6enp6OyRmpqamJjo5+f3yy+/nDt37pdffrlx4waZTI6MjHRwcLh69WpISEgwLj9cPj4+Hpjc3d2dnJwcMdnb27/F9ObNG2tr65eYXrx48fTp0yeY7t+/fxfTnTt3bty4cR3TNVxXr169ggsd8OgwNz7Iz+E6i+vXX389c+bM73//+3/6p39KSUn5DDp9BPr7+zs7O394knh7e3sL18bGxjomY4+yurq6jGtpaWneSLOzszOYpqenJ400jgm98TCYjIGBAWNj0YYLHeMNmD5+/FiN68OHDwbbUFJSUogrLy9PhSs3N1eKKScnRyQSCXBlZmZycaWnpzNwJScnJ2FKTEyk0WhxmJBXIOMKDQ0NwRQcHBwQEOCPyc/PzxMXOuqdMDk6Or7DhQ78V69eoWP/2bNnTzE9fvz4Hq47d+4Yv+Rfu3bNcB64iuvKlSv4a73+hf8irgsXLpw30jlM58+fP3v27K+4zpw58zdc+Dr9KeLs2bNof8OzUEkXLlxAxSMjgVd10dhw4Kcl/d8//OEPv/zyCzpp3bp16zamO3fuPHjw4CGmR48ePX369Bmm58+fv8T16tUrW1xv3ryxw+Xg4OCCy9XVFWfs6e3t7YcrICAgGFdYWFgEpsjISAqFEosrLi4uAVdSUlIKLiaTycLF5XIzMzPt7e09PDwEAoEQk0gkEovFOZikUinyoApMGo0mD1dhYWERrrKyMsPIrKqqqsZUU1Pz8ePHelxNTU3NuNpxdXR0dOPq6enp7+8fwDQ4ODiMaWhoKCoqymQXds3XvW1vb09OTg4MDPTi6u7u7uzs7MLUhqu1tRVBNrwRQXahtra2rq6utrYWvQupqqqqrKwsKysrLS0tKytDeSwsLMzPz1er1SqVSq1Wo3ceuZjEYrEEk1AoRO6Bz+fj5xMum81mMpnpmFJSUpIxJSUlxWOi0WgxMTHRmCgUChqs6P0HCVNQUJCfn58vJsNwd3d3d3Z2dsLk4ODwHtcbTLa2tjY2NtbW1q8wPceEzi+PcN2/f//evXvoTcZNXNeuXbty5coOb2FsL9D55dKlS+hEYHg8f/78hQsXzp07d/78+TNnzvzjP/4jetPz66+/Gp9uzp49i85KFy5cQKeMS5cuXcWETm03btxAbbl9+/adO3dQ8+5jQqeMR48ePX78GJ010InDcNZ49erV69evEYG3b986ODjY29s7ODg4OTm5urq6uLi4urp6eHh4eXl5eHjcuHHjzZs3vr6+gYGBJBLJzs7u4sWLISEhERERkZhiYmKoVGpsbGx8fHxiYmIy9kqAkpiRkcFisXi4jM8IyFOqVKq8vLyioiJ0FqioqKisrERDC73lraurq6+vb2xsbGhoaGpqam1tbWlpaW1tbW9v7+rqQod9T08Pem89MDDw6dOnwcHBoaGhkZGRvLy80NDQ+fn5z0TT1tbW+Pi4wcGjqwl9uLq7u9HRigi040Jw0BQCOmzRMfvx48c6TLW1tdXV1VW4DF7fcOSiRGg0GjUmlUqFDl65XC6TyXJyciSYxGIxOn4FAgE6fg22IB0Xk8lMwQ7hlJSUxMTEhISE+Pj4hISEuLg4dBTHxMRERUVF4AoLCyORSMHBwSQSKTAwEH+F8vP29jYcy25ubuhYdnZ2dnBwsMP17t07w+H8+vXrV69eWWNH9IsXL9AR/fz588eYHmEyHNH37t27hevmzZvXrl1Dh9gVTJcvX75y5cqZM2f++te/It9gOKgvYUIHNXojgY7rC5jO4zqH6ayRfsWEDn/DAW4wJVevXr2G6/r167du3bp58yZyA3dx3bt37wGuhw8fon49fvz4yZMnmDd49p//+Z9XrlxBJ7RXr17Z2Ni8xYUOcwdM6DB3xeTp6emFydvb29fX1x9TQEAAykhwcLDheCdjio2NpVKpcXFxVCo1KSkpGVd6enoGJjabnZWVxefzeTyeQCDARo3+QSqVKpVK9Lqg0WiKMBUXF5eUlHh7e9Pp9A8fPlRVVdXU1NRi+vjxIzrwGxsbm5qa0LGPDv9OTF1dXd3d3X19fb29vX19ff39/Z9wjYyMjI6Ojo2NjY6OTk5OTk1NTU9Po8dpXLOY5jDNz8+jab8FTIuYFhYWljChN+Er2EVD9LiKSYuJx+OJxWLDVQj0Nn4dk8H6o4UNTJubmxsbG+hxa2trc3Nz62ttb29vbW0ZHre3t3WY0MLuR7QVPX7+/Fmn0x3wuHvT9vY2n89Xq9XGT9y92441O/41fi5aNuzw+aeVmppaWVn508UcqgDzdW8rKyt+fn5XjGQ8h4m8guF8hM5CZzGdO3fu7NmzZ3D9Fdff/va3s2fPnsN04cKFK1f075CuXLlyHdONGzdu3759FxM67zzC9Pjx42e4XuJ6/fq1ra0tOhG/f//eHpPhXYirq6ujo+PZs2fd3Ny8vb0DMPn7+5NIpBBcEbiliIqKQqcYKpWalXi8QgAAIABJREFUgIlOpyNvkZycnJKSwmAw0tPT0VsQLpfL4XC4XC464/D5fIFAIMKVk5Mjk8mkUmlubq4Sl/H7j6KiouLi4qKiopKSkjJM5eXlH3BVV1cjv4vORA2YGhsbW1paampq3r59W1FR0dnZ2dHR0dXVhTvqL2ei/v5+5EjQGWl4eHgE1xiu8fHxSVzopDQzMzM7OzuHC52MFhYW0AXKpaWlZUwruLRa7SomrVa7hstwYXRiYmJpaWkT09bWVmNjI5VKXV9f/2z2qq+vT0hI2NzcNPuW7mzg35NsZWV148YN5NSvX7+OjIXhDYPh9f7ixYvISaD3CQYPcf78+XO40GH766/6yYa/4UITD+dxXbx48Qqmy5cv38B18+bNu3fv3sP18OHDR5geP3789OnT57he4bK2tjYcv2/evLl48eLdu3cdHBwcHR1dcbm7u3t7e3t5eXl7e/v4+Pj7+2PHcUBQUFBISEgoprCwsMjISDKmqKgoKpWKjuX4+Hg6LuOJBHQsp2Nis9lcXOhwFmDKzs4W45JKpTJcCoVChSsPUz4mdFAXFxeTyeTAwMCyMv28QkVFBbIXVVVV6Liuw4QO7UZMxu8x2traOnF1d3f34urHNIAJvdkYwoQO8FHsUuDo6Oj4+PjY2Nj4+PjExMSUkWZwzWGax4QO8MXFxcTERI1Gg47x5eXllZUVdHSvrq5qjYSshsFhIDOxw0Zs4zK8GH8+NjGZzNLS0mMr/ngLFolEMpnseOs4ztK3t7cFAoFSqTzOSn6q7NTU1PLy8p8q4tBPNl/3tri46O/vX1ZWht6s9PX1GZ8+xnFNTk7ip4gZw3lheXkZf3Ff29zcxA/tr/7qdPrPcu0n3T46JNiZmRl/f/+lpaVD7m/muy0vLwcGBk5OTpp5O42b19TUFBcXt7GxYbzSPJeJ6956enpcXV2NX/vRBYV+TIP4BYXh4eGxsbEJXNPT07OY5ubmjOcMtFotepFeX1/f2tra5xD89urvyrJOp8vIyCDu67Ghs3l5eTwezwT2xVDjTy5kZGSUlJT8ZCGmfzpBm42ml3JyciQSiemhHVWN29vbYrE4Nzf3qAo82nJ0Op0pzb1Zu7fw8PCRkZGj5Wua0sC9mYbzAbU0NzcTxb01NDTQaDQizr319fUFBwcfkAXz36TT6dhsdnFxsfk39eAWFhQUZGVlEci9ERQ7i8UqKio6OBfmuVWn00mlUrFYbJ7NO0yrkHsz5+lDcG/6PC4tLYWHhw8PDx8mqea2z+zsrJ+fn4XNvU1MTJgb5wPa09raGhsbS4i5t+bmZqI0dQfw/v5+Eom0YyWx/tXpdBwOh6Cvx8aowb0Z0zi+ZXBvx8f2myWbuXuDubcvGVxaWoqIiBgaGvpmRs1wh9nZWV9fX4txbysrK4GBgePj42aIer8mgXvbj8wRrgf3doQwf7IocG8/CfCQTwf3dkhQx7Gbmbu3z58/w9ybPu/g3o5j9P9YmeDefozbIZ8Fc2+HBHUcu8Hc23FQPUyZcOX0MJSOcB+dTieTyUQi0RGWaeKi0L0WcnJyTFzvIavT6XTp6ekm+xiG+X7uDdzbIUeMCXYD93askFtaWuDK6bESPqBw5N4KCwsP2IcQmwoKCrhcLoE+98bhcIiIncPhFBQUEGJI7GikTqdTKpUCgWDHegL9a/4G1JRTs+DejmXowpXTY8H6PYW2tbXFxMQQ4hdD2traoqOjCfERvR0ZGBwcDAwM3LGScP9mZmbm5+cTrtk7GlxUVEQs98blcologwjabPSdU6VSyefzd4wcAv2r0+lyc3PNdvpQp9OBe9MPp+Xl5YiICILeQObvv7zq4+OzuLhIoAPjgKaurq4GBgaOjY0dsI+5bWpvb4+OjiaEe+vo6IiKiiJEU3dk+dOnTwEBATtWEutfnU6XlZUF7s30WSOoDSJos1F+wb0d9zgH96YnvLy8HBkZSVz35uvra0nuLSgoCNzbMR354N6OCewhiwX3dkhQR7sbQW0QQZsNc29HO3r3LA3NvZns8wDme+V0ZWWF6O7NYr5zurq6SlD3RojLkZ2dncSde/P399/zREaUlWjuLS8vjygN3q+dhYWFHA6HQJ9743K5RJzyJGiz0bBRq9VZWVn7DSHzX48+umfOF385HI7JRjW4t2MZsfPz85b0iyHIvY2Ojh4LrOMptL29nSiWqKuri0wmE/HK6dDQkJ+f3/Ek0HSl8vl8lUpluvqOp6bi4mI2m00g95aVlaXRaI4HxjGWmpWVRVyvn5eXl5mZeYx0jrlonU6nVqt5PN4x1/MjxW9hQu5tfX19e3v7R0r5nueYtXuLiIgYGBj4nu6Yy74W9rk3rVYbFBRErPtedHZ2UigUQlii3t7eiIgIQjR1xwE2MjJiAe5NKBRagHsrKSkhlnvj8XhEdG88Ho+g7k2n0+Xl5XG53B1HMYH+Re4N3VPE3N6oNDQ0ZGRkMJlMHo9HpVJNcKMBs3ZvkZGR/f39BBpbhqYuLCxY0rcWtFotiUQilnvr6uoC92YYkMe0YAHuTafTgXs7puFxcLGEc2/oDrvIvW1jOriDZrV1a2trZWUFuTd0Q2Gzat5hGjM1NVVeXp6bm8vhcGpra3t6ekxm4FBFB9xieXt7e2pqikQiPXz48NatWwkJCcvLy2iQ7HhEU3Q7Hjf30cbX2jGfB+7tMMPmu/cB9/bdyI76CeDejproHuVZgHv7/PmzJbm37e1tk72k7TEgDrdqeXl5ZmYGubepqSmifLtrcHAQ/aieSqXSaDTEug/Q3+dBfHx82Gw2nU4nk8kfPnw4XK6Ocq/t7W3kWjY3Nw22ZA2XVqtdxbW8vLyEawHXp0+f3Nzc3r59a2dn9+LFi5aWlpmZmcnJyXFMY2Njw8PDQ5gGBgb6MPX29nZh6uzsbGtra8XU0tLSgKuurq6hoWFpaWl2dra5ubmhoeHjx481uCorKyswlZeXleAqLCosKCwoKCzIz8/TaNQolCqFQinn8bL+9//jf/vP//yjWJItleVIckRiSbZYkp0tEgiEPBRZPG4mj6OPLDY3k8XNZHEyM9gcJovD0Aebkc5O1QcrlZmRzMhI0kd6Ylo6PSmF1tHRbpwPcG/GNI5sGdzbkaH8/oKWlpaqqqoaGxspFEp9fX1HR4fZvp5tbm4uLi729PREREQsLCwsLS2ZbVN35EGn03369Km/v9/X11er1Q4NDRGl5cYdmZubGx8fFwqFCoViaGjo74et8VaiLM/OzgoEgtzcXCaTqVQqa2pqzLzlXV1doaGhNBotNTX179MVfX19Zt5g1LyxsTF3d3dXV1dnZ+fw8PC5uTnzafYB00Jo0/r6ukajuXjx4pkzZ1JTU9GpBm0ymKqtrS00B4Ss1Tom3FytIXeFHldwffPzHp8+fQqLDAwj+4VR/ELJviGRPlh4h0R4BX8Jz+AIj+AID1KEe1C4G4rAMBcUAWHOAaFOKPxCHN84PvqPP/7f//4//s/nNjd9SO99g+0Cwh0DI74EiexEougjJNo5LNYFC9dImnsEzT2S5k5J8IhK9EQRk+IViwU1zTso0qWpubGoOD8owjE2xYua5k1j+qJIYPklsP0T2P6JHP/kzKAkbkASNyAlKzCFF5TCC0rlBzGEJIYwmCEkMbOD00XBGeJQWoZnUqYvKyeUlRPKkYZxZeH6yA3PlEeg4KnIfDwEavJvoaEIsBDmUQyRnU9BISqgxDE98vK/+nguuLdjOQAXFha8vb2J8p7yYARra2srKytBQUHDw8MrKys7Jm8Pfu6JbF1aWiKTyaGhoXZ2du/fv6+trTVbYzE3N0elUgsLCwMDAxkMRmFhofnjRTnd3NyMj49PTU21s7NjMBhSqZQoLTcek+3t7SQSKSEhgUaj+fr69vT0GG8lyvLq6mpCQoKtra21tbWrq6v5/8rS+vq6UCj89ddfz507p1ar0Xzhnk5i9wzN2toaPkGzurKysoxpdXV1v2N8fX19aWkJn75ZmJ+fn8U1MzMzjWlqamoS1/j4+BiuEVxoRmdwcLCwsPDf/u3f/vjHP1ZVVaHZnb6+PnyCp7Ozs7O9vb2trRWb5Wlpam5satJHvX5Cp+7jx7q6utrqmqrq6g/V1R8qP5SXV5SVV5Q1Nzft2fjt7e22ttaS0qLCooKCwryCwrz8ArVao1RrFGqNQqHKlSukcoU0V56TIxVJcrIlOdkiMV8o4glFPEF2Fo/PQcHNzGBzmWwuMz0j5fLVc//zD/9PXHx0GjMxhUFPYdCT0xKS02jJqfpISo1LTKEmplDpKbH05Gh6ckxCcnR8UlR8EiU+kRKfSI5LjERBTQiPTQgjx5LkCtnBh0lHZzuF7iYrj5VXUBUf4lAoq2jq6gRVdbyqOl5dk6CpRUHP+5iIIr8+qaBBH4UNSUWNyfpoSiluTiluSuHIQ9Ky/UtaUsvaGEcSKVlB9Q0fC4rULEnIkRR4TIWwZcEEcG/oMEa/GNLb20uIawE7RvDi4qLFuDeFQiGVSn19fQsLC1NTU1dWVnZ01tz+1el0IyMjNjY2//Iv/6JWqzc3N/c8OZpDs7e2tpRKpa2t7Z/+9KeQkJDZ2Vk0+A943N5f6KqE4REVsmc3URmGPXd86MLwkonefKNHw1vwtTX9u3CtVtvZ2Wltbf3P//zPPj4+ExMT6DXV8IJqfO1jcWlxcXEBxbyR5nDNzs7OzM7oA3tBnZ2b3dra2rPlnz9/1mq1U1NTE5MTBo3rNaZ/2R0fHR0bHR0dGR0dGRkZHkahv5zyCcWnT4ODnwb0Mdg/MNDX3d2ZlpbyP373//7P//h9UnJiZ1dHFx7tHa2tbS2tbS0trU1NzQ0o6hvq6upr6uprauuqq2sqq2sqq2oqKz+UVVSWlleWllWUlJQWlpQW1tRUH9B+1K+1tbWe3p6uro7Ozva2dn1FrW0thooam+o/YhXV1dfU1H74Uld1hb6iipLyipLSsiJUV3FJQUGhWiLN/tuZ//pf//F/iY6NVKikCpVUmiuW5oqkMpE4R5At5mWLeUJRVpaAncVnZ/FZbC6DxUljcdIy2KlpTHoaMzGVSU9KpdGTY+nJsQlJMdR4cgQlBP3E48TEeGlZUUGRJr9QnV+o1uQrVepcJRYyuURfS65IIhWiWrLFPJ6Ag9XC5mal66vQR2paeiKqJTktnp5MjYmL+MuZP5698GdydAg1nhxLi4yhRaCIjgtDEUUNjaIGR1FDKLHBlFhSZEwgOTaIHBMUGR2AIjzKLzzKL4ziGx4ZNDMzs3vA6HQ6hVIeFOYRQvYKIXuGkD2DIz1CKB4hFE/s0SOUgkeUe2iUhz6i3UOj3b48xrhhy25hMa5hMW5hMW6hMa72Ho+cfZ7p53WoXyKc6hIR74oiMsGVTHcn090pdPfoJA8UMSmesWlfIo7phYKW7h2f4ROd7B4S6b3nDxutrq7GxIXHpXslZfqjSM7yT+UHpPIDU/mBaYJAhjCIIQxiZgeli0npoqB0UVCGhMTKCUbBkYVwZKEcWShXHpqpCMtShmOPYZmKUJ4qXKCJEOZFosguIKMQFVJQiIsokuIoSXG0pDg6pyRaWhKjj9IYWVlsbgVVVhYrK9cvpEuCmOzE3diN13R2tcdn+B2V2SptTUNxhA4Jc291h3BvzG9WWt727X2+Wch+O7BlwRrzn3vT6XQdHR29vb1kMrm5ubm6unp1ddV4QJjzsk6n29jYQHNvCwsLa2trZmsdDomxp6fnzZs3Z86cefr0aWlpKSGmWHQ63cDAgEKh0Gq1yKOgqwMGm2JsUHb7EnR1wGBH0FWC5eVlQzY3NzeRTVlcXEQOZHZ2Vm8pMKFPYKAPYfT39/dh6unp6cTV0tLSjKmhoaGystLZ2fl3v/udUCj8gKmiorxUr5LS0tLCwsICTHn6j1io1GqVWqVUKHLlcqlcLpVKJRKJCIvsbCFfKMgSCrJ4PC6XyxIIePtdzRwdHc3M5GZkMNMzGMz0NGZ6GiM9jcFMScMilZGUmpaIIkX/vhyL1PiklDgUifr35fqIT4q2d7b9jz/+u2+AG41ORhGXSKbSI+LoEVR6RCz2Bj02ISw2ITQ2ISQ2ISQmPiSaRkIRRQuKpgWioMQFUOL8KXH+ZKofmepLjgnabwJpe3tbrVYFR3pExHpHxHqhCI/1xMIjPNYj/P9n7z282krWfNF/5a11311r1pu5c2fum3tnTpo557Q7+XRwOxsbTM4ZgVAGBEhCoJxzQiAJRA5CEYkoMhI5J2O33d3uttuAA7yztYUshBLJ4bxT67c2pVLtqq9qb/b30/d9VZsOdx0RgLqlgygk0KFu0AoIdBdo+XgaBE+DlFNyE7OuJ+fcKKdk42l5FQyIG8z8ShaAKk4BiQsFQeZDyYJCsqCQIiikimA0F+hiOEPighTOkiMYUjiqJC/kI2tpaRFRnEVgQCqYEKKro0pWPsnTFw9K5gMdkQVQT0c0EczdkQTOlCFYciQABZKjRHGUKIYUxpAW8lUYvqpIoC4S1ZeI67Hieqy0sVTeVA6guby6Da90obajQq0jgnCpcFK9gdRgJjdaKI0WSlM3pbWHjmdmT09PHRwcWLpNpaQsdrW7I24Nmq8qAiGqc/ci0WLdvTSVVbfiwF5q2vGeXlx0AehFayKBvTRaKM1WKkAFADDa+tzo6HdbaDoGWJ2DrM5BducgYKEBoR/mGEa4bozyjKN8/TCXzEVsb/vZz2h/f19dr6jTV1kmhJZJAN0eOITdDpEHVofIDafI6obY6nTDQxqOZs7B9qMf5tJ5ZYHYG1dEMo3xA6nz917eYCEravnB9YiLvRWdF3u7iCEL1WVj4yPmbr38w7a9KdvwOn2H92x/iJ7T/f393t5eOBxeUFCAwWAYDMbOzo630B9y/vXr183NzUqlEgaDmc3m97ITxJs3b1ZXV5zOSYdjfHISwMTE6PjY8NjY8Pj4yOiIfWR4YGR4YHi4327vBTEwYO3v7wbR22sC0GOyWfXW7i6LRcdikf75n/97VlZiV1eTydhqNLaYjK0GfbO+q1Hf1aDvatB11nd21HV21HV0aNrbVe1tANpaa1qaq1uaq5ubFY2NUgANUm29qL5OUKfha7XK169fgZdyf39/bW1NWy+tU/NUtSwXmDVKmrKaqqymVisoclmlQlYpl1VKxHixCCcW4UTCMgG/RMAvFvCKuRyUC0g2C85iQFkMKJNeQKfm0Sg5DFoenZpDo2TRqdk0SiaFlE4hpVFIaeSqFFJlEojKioTKingX4irw0S7cJ5Tfw4Mou4srvY0rvY2EX62vU4LkVdfZAi24giu9TSi/QyREVBIiKisiyFV3qaR7VNI9OjWKSY9k0iNZ9Egu+z6PA0DAixYLYkDIJXHVsniFNE4pj1cp4xXSaBH/Tl1tglaTqNUkNtQlNWuTm7XJLQ0pbc0p7S2p7S2pna2p+o40EKauDLMegMWY2WPOspkzbebMvu6sAVv2gC17sCd7qD+nrjalt8fk95fD0PAgXYRq6qY3d9ObrW/RYqODaO1huNHLaHWhrZfR1sto72O60c9s72d29LPa+5ltvYyOflbnAPsQgLrVgQCcIwC67G7VC3hJAEcJ140Rrn6EZwDhcpoYR3nGMT5HhvWJz/X8y79586auvlZrIpvG+OZxgRsTAvMhAD3tgUthu3U2oK2PKmynW3mDqh1U1Tan+8e9R09bj5RIbFNu+CgS25QYLLE6RVUMTEj2tri4wJFhjzbu07WfjsDefbq+oI8MGXxqynlwcGDtsVQ3V/jt5fyMDac3WlidIroQ/eDBlucm8WT29/frtMpGC9Wv8Gcp7J2W9s6cXmZP14YRHo1Xuru765HZk3nx4gVPTDaOfljszfuKN3ZTpEquR2C/mYWFObbsg2ZvInXZyOiQxWo4O3vznhzPJT6eOd2do+qs6NAd8VN/iOwNdI4oFIp/+qd/Sk9P39ra8quE/N4rpy58/fr1s2eAg+eXX355+vSpx6AC+HJc6fFh+v57t88GjJB44EouP80maG4ZGBiIjo7+7W9/GxERIRIJFxcXXHYXwEUCxkU4nQ4XJicmxsbHR8fHR8dGh4eHB4eHB4eGBgYGevv7e/r7e3p7rTabBYDVbLEYzGb9UnhxOTs7O2xWkYifqJSnKhVu1Fan1ipTVTVp6poUjQvqmpQ6lRtadbIbmqSGuuRGF5rqAQ7RrE1uqk+qrb7XUBfX0pjU1pTU1pzU3pzc3pzU0eJGZ2uSrs2Nro5EvQuGjkRDpxumrkQQFkNStzHZ0JlQXnpvb8/9zAL4eo9VLomzmpJ7zCk9FgB93al91tR+a+qALW2wJ22wN32wN32oP2MYxEDmqD1z1J41as+aGM4GMTmS4xzLBTCeOz2RNzPpggMy58yfnyqYc+YvTOcvTBcsTBcszhYsz0FBrC4Uri7AVhdga4uw9SX4+hJ8Yxm+uYLYWgXwYA35cAP1cAM1Zs9qbJSC7E2vb+i1pIDlH+bRrM/qsRn8/uMMj9pFmrLjz5QPp0RYg5uemfb7vwywN62qpYf+4UjrI4nVKa5iop8/f+5Xfk/h0tIiR4b1ObfnIj0vx/oKYTpiVyMnJscPDg56eq2KAOztpG0Grn96JmR1iulC9NbWpmduPRlgO5jG2kYzJXC/ISbhok8E2BsX65e97ezs8MTUD9n21tRNlVZzPLPtN7OwOM+WnZvn9CIuh0gDsjfj2dlbOOKdjrr1TEvOmb3t7++DLiTQi/TsMAFBLofpqSt5yJArYNQdK/rkyRPvcNFHjx65eJErhmV7e3l5WSgUDA3ZNzc3XAuB19fX10Csrq6srCytrCwtLy8uLc0vLc0vLs4vLHhiVmZmZ6dmZ52zM86pqcnpaccPP/zgV415320LC3PYkmQqGQCdmkSjJtKpSQxqIoMWz6AlMKjxTFockw4ilsWIZTFiWIxYNiOazbjPZt5nM6M4zEg3WPfIlVfLSr6oqviGx4oQ8iKFvEgxP1IijBILo6SiKLnEDaXsfo38fo0iurY6Wq2M1tREq2ui61Qx9WoAWk1MU31sU31ssza2pSFOKryrqmV7yxwov7uzo5Ah56byH6whQTzcQD1YR26vo1wAM8iHG+htoNAbqO11N1lxlQMfj8JdYXvjMONbAaj/8PBbT+ZoI8iNZTibGffy5Z5nCAMDvUZdjk81z+meTNAKAMfywaNNtE/Jww2U38Lj1XxKJoazG7RikL2ZTa1WU7JPhQ/qo9WUY7V2eabXOzM6PixUl4bzoHlfdYS1ONDq4y02mH/9+nV9g7rFFpC9+X04+i28oNFZnWJSGOxteXmJIz9P9nbuY+Qovdhbk3/b2/nNoZu9nWIUNqeY8VGzN45/9uayvVGD2N5OMVfnd70A1vu+2JvfgfstDGe84rrykZEhi9UobyKEU/991QHYW+f52d729/cdjkkatZjNKmExi9lMDIuJAY4MFJuJYjGRABgwFhPuOhaymFAmo4AFAMJi5gNHRh6Tkc1i5DDp2SxGJouRyaRnuJDGpKfRqSksRhqbmcpmAkcuO43LSuWyU/ncVB4nhc9N5XOThbwUIS9ZyE8R8ZPFghSRIFkiTJaKkiWiJKkoWSZO5LITOzvbQrK3+bmp2uqEtUU4aIBZW3KZYZYBS8y667ixjNhYhoPHzRUgv7mCALG1CmRAU83WKhI02HgfXRQKsOK4gPIct9eBEh9SdZRgvSVJIwPZTY0hQkRBDbe7u1MtRy9MF7j4hB/6cpRnhFkhzGq+/MmrL7AF4Li5gvBhb4ODfUZd7kkEDiLP2468ej8uWJAWwMpH2pkY8WJv5jYv9naydgKLdPZ23grcbcq2Wo8sL/cwodGxj5i9vXnzRhuUvb2vZ6un3zBtbwB7+7Btb++FvXmmMfyM1Sn6uNlbUNtbEPYW/hRdUM2mbqoslOd0cWnBZXtzxxVckCRnadbD3hQfOHvTEds7WjyP8YODgzN5Tvf3983mTn1HIuiBWpmHugG4otxYWwQcUi5KBFsHKBFsYxnmoj7wzZW3/ikX10E8WAPgMf8E1nPHNXHAkrGh/JaW+pCx9vPzU/WqpHPp8YIaGRnMbmoIEWQAXtqdnR2lHD0/lX9Bkpy9WdD25u05dbG3nLO3fHEtTIxka7Wij8X21m3Mslp1fn+0fAy2N/zUFBAvfzx9FOwtXNvbh83euErU+MSY23P6rmxvp1DDoOd0c3Pj+N1ycHCgbVI1mD5gz+koj8opCeQ55YupxlHeKebk3ZzSbKOK5Sy/0+4pXFpaYEmLuh3ntsHHuQ9NUlduHxqw9phkDR/0jiF1hqqmFq1nYs+Fvels5vSLU5lnb/lvir01hsveqv2xN4/H0JM5+/QGbSGgMQlgb4y3ntP9/f3BwT6D7qLY27mMd2IkR1t/yN7Mrd3GIJ7TgAMPOl0Bf4Gc4qxuY1Z3d6f3v7onD7A31QV5Tk8fveT9UBbW4hwOh0dg74yLvWmarTTv+sfzp3ajHG8qnBLvaGWby3Macq/HlZUVjvQ8PaegnOc4cJ4KPTICbPzb198jb/TvVPIeeDgTFbjO6e8cgL2J0Bsb6973iSff2KzWXgB7O6+BG0f5ZE6RX/a2u7vLl9BCsrdzvOKBr87b6EDvgbf00IQyhmeq/WaWlhcDsTerU6TRE2va8co2XHsfI5ze/dY54wxI6nH2oQFbj/ns7M17cvyKepbCOkNV87mzN6sp7RTa5Z2dMjYEaWmpC8f2VvfB294aG8KKe9vZ2alWFM05P1zb2+YKnEmP9ra92e0D+o5A7O39k6GHGyjHWE6dhgfeSFZrp1n/Diy1px+41ZxlNrf7tb1NTI4Jao/zhrcP6LM8Ys7lXJEK73BM+lUG+/v7jU31IdnbuYgBNnJS3WCbAuLeQrK31dXVi2Bv5zhwgaZoeNh+cHDQP9AbiL2dX3enZ282F3tbD8jeNBfB3s5r4MZRPoVbHJBCn85jAAAgAElEQVS9Sekh2ZtfSWxTYqtTZJkUnmh3tJPe6mdkb112dkTslzmIezGp35ZS0rodos5BlnGUZ5sSG8d4bX0M84SgY4DZYqN1DDANI9zGbophlKcf4TaYyeC3XUNs4xhPP8zV2dmmcX5HP9M0zm+2UjsHWeBWwO19jMZuimmMpzWRAu1aAtrezoW9+b0W51V4/uytu1vfbUwNj4qFo4rCqRPCROFjaJkYyW9qUodkb4uLs+qaRJ+B+DTl823YH8MZVOg6o/bsBi3Tr0rzKdzd3VFWl8w6IWFLGGJKT9tOwEFtriKY9Pve7G1oaLArIHsLId45XaYQvTjHcus0XPBGstl0Zr3v3eI1SwEHfsI6IUQKMnDbCdmbZVKoB/bv4FqdZ4lQCUcHh64Tkr21hLK9+X1iGkZ5TBmMLMhv7Q246MHviSELvX9znxd7s01JLBNCM7DRPKCDQRlOql9DSh6kAl+NCcnevAcONmUY5XUNAdvom8Y9W134XnGrU2weFxzt2rfO0W+D/bQ4O3vrdojkzWUsBZwuKaxpx9umgnUHCnZ84OEL7F0TYG+cYOzNMHJiz6ltSmwY4Vawc3JRkSwFotsh9LsxjdUpAvfHAfa3c4g895i3eMfz3gM/I3vT2dlZsLttfQyGDFZOy2DIYCmQmxDM/XpjVSE2NiXvJlmQn4eK+vbmH8tpGSVVKcm51+FlcThGZlL29ZjUb/kqdBk1XaDBMGUwHCOzuhVXXJUiqiu6EfkpiQ+p5OUhyuOljdhcVCRdUng37rJhhHt8OD3TEkk94Dm19YawvXVPisD1v5YJgXEMoJjHW/OenOPfGkZ5LT20Zis1EI88fop3Sb2R1Nhc763rzxr3ZrMaLYbUhxvhqKsQqshLsQWvebK+JkfzmxpVIdnb0tLccfYWhkgnEyaMBgOOfdSe8+GwtyC8IZwxHmdvw8NB2Nu7m+Qgwp+EvQW8iEHa9/fV6Qd+IvZmmxLjGVlZsIhCbGxT9wmChLx/2Vu9QlsAxeB6uoHPKatTbJkAtDVYbgU2WgMYidUp9ssXQ7K3U9jerE4xjpGZj7mPJiQVYmPb+hiGEeD3vc7Oru0g8GpRWhNZZ2fzVOhGC8U2JZE1lTKksKbuE28Vdl7srU5fmV8UDS2JgWDu1xkqvZ/j7yYv0BQNeWxvDf49pz6S6Ic52Yi7mYURqZBbWHKaz7cehddooVSwcw4tQwBVAm8kcENd75vKpwW/H93sbX3NW7F58o3NGq2R7PdET2HnIDs55waWlArDxuYg7nUOslwbF5NtUxL9MFfeXNY1zAHcfF1EaSO2vY/R1E2xOsXguwc6B4FdD+v0lbxaFLsaqe4ias2kbgew5a9GH/qqGcf4ZDbwpmCPwJ7M7u6uQEI/HXtjyeH5RdFCTVFy7g15UylZACmjZQg1Rcp2vH6EW9OB7xxkVvHyGDJYnaEKS05D4hIULeWeC+SZmeCZ1l46X0L1COw3s7KyxJT4j3vT2dnZsLudgyx2NQJFSMxDR2lNJHRFUlFlCrw8vrWXXqev1JpIeehI4yiPV4tG4hMiYr+El8dnI+5FJX1FFRUUYmNZcngVLw+JTxDXF+ehotLyb127e6mMmv7Vtf8sKI42jfMj4r5MybsRk/JN1xDH73Ak2vKBwd6evm6pFue3Algoayqt4uX1TANPhgp2drdDZBrng883YLPJcUG3Q2gENq3kgntPdg1xwDvcOMrTDbGtTlGdoRJFSCSwsvUjXOMor3tS6HpRGBs0OoYMDWy0UOq1Ku9JPi/2Fo66CkcVhVMnnL7e1rlg9va2I3/aF/w2nEGFrvO3bXsLyt7CmeQLr+Mcy9Wo39reTF3v3/YWZPcTmznLZPK/1HrSMc6vOeI5tTpEOchIibakrZduGOVV8fJgpXF0KUzdRUQREmnigpoOfEFxdBExWWsisRTwjn4mR4nUGkkYYjISn9hso/HVmFxUJEVYAD6DymkZfBVaP8wtKI6uaSdgyWlZ8AhJQwlNAm20UKjiAhwjU9ZYWsnJTc65TmBld08KvZ+bIjVucnLC+znlybs8p9rmbupJrVBdQ5wsWETnIMs8LlB1VlDFUJoYWlAcU2eoTC+4nQmLKCyNo4kLCktjMwvvtPUy4jO+y0NFldMywlFp3r+5AfbGQj99+tQjs9/M+voaW3LkKrhm4K0JileLhhbHqHQV0JIYvgqj1lXQxNAGC7neUMWUw+kSqGGEW2+squTkKlrKdXY2WZhPERW09zOkjVjzuECgKWrtpeOZWVW8PJ2dza5GIHEJBGaW5ehUe0+7T15UX9w/0HdwcDBo75dq/Qd0ew+8Z1rSOcjKht/V6IlibUlBcTS7GlFCSi2qTNEPc3i1qILiaL4K3dbHyEVFfnnldxRhgbypTN5SLlBjSDxIdWt5Us71xKxrorpingrtI0zPtCTQFbdNiRli9Oraqt95bm7V1htCsbcBVh4qSj/MqTdW5aGjkPiETFhEKuSmtAELL4vLL7oPK41t6aElZl9LzLoGcoU6fRWsLI4syCdycmClcXwVBloSE5P6rai+pKAoWqOv7Ohn5iIjj4/Cp8QEsDeMX/a2t7cnlDINI7xAA/dpyvPR6hQhcAnVrQAbq+LlElhZVdzcu3F/EWqKCoqjG8xkWFlsBSs7B3EvCxZBFRXg6BkpuTcaLQBb9TQSKON9xdv6GDwxxe+0ewpXVpdZkmK/1MTD3jhKJBKfAMFENZjJxZUpaEIioiy+rY/RZAXe05VffF9nZ6dCbpbTM+4nf43AxaMrkjJhEVhyWi4yspKbi6Wk5Rfd59Qgb0d/kZJ3Iw8dhWdkxWd8lwH8I9N/85//XE7LyITeCcTepNpy1ztnrdKgqxaEmiJEeXznIItVjcAQkwBLYd5NAju7wUzKQdzLhEXwVOjErGu3Yz6niPJzEPdScm+gK5LqjFU5yMhUyE1hXRGekSVvLruf8g1dCi2jZVDFBVRRARKXoGzD3U/5pr0/RORfo4VS9/7Y24XrV7/8aXIkvzE825tKGUQfvx/hvUc0as/R1ocIEQX/Z3Z3d2qU2FnHe/ecBpy0rVUEg3pkt96RkeHOtg867m1qIldVywLfX9nbazB0JnhfnYvJh+b0gfrt6c4yGlv8xr05pyZ5yiO8wTYlhmDuN5gAJWcY4aZBbpVRM/JQUXxArebFpX9Xyc3LQ9/Pgt+t4uVlw+/Jm8tykZFFlSll1PQqfh6WnBaXfqWCnZOQda3BDDSSlH09FXJT1lT6X5f+3zJqRkruzZKqlGz4XQjmPpGTk1l4Jwt+NwsWkZZ/q2OAmYuKarQcMfhJNPjxCWCfWL+pubnxFCaxjgFWNvwe6LDrdojw9MxLl/+jigcxjfHzMfeljVgoNlagKYJg7t+6/3lNOz4LFqFoKS+uSgmkxoKUk9jhsLf14OyNr8KU0zJ7piXltAyapDA9/3ZxVUoO4l4hNjYt/xaKkIijZ2bC7uLomeiKpDJqRgkpFVoSW0ZNz0Hca7bS0gvu1LTjK1jZafm3+CoMBB2FZ2ZlFt4JP45KosX29fceHBzYhwak2rBsb52DrHwMoGs1XcRCbExa/m08IwtWFldKTc+CRYjri9MLbheTUvJQURnQ22n5tzAVya6b57scRCRDCiulpGVA7xA5OXHp35H4kM4BVpBJ9nx1TuwtUj/M1RpJucjIbMS9mna8UFOUCY2AYKJsU+L8ovsCDQaCieIokRXsHIYMhsIDtiKqGPrtzT8WFEdbJgSKlvIScqppnH837nJi1jVEeXxS1rWQ1D8c9uYZaZiZbocIXhbncgGLycJ8sjC/xUbNQ0UZRrgpeTcR5fEJWdfi0r9LyLyWCrnJlMNBn+Mp3HlnZG9dw5xCbKzOzhZqiirY2RXsnPSC2+nQ29WtuFzkvdS8m1RRQWsvvYScahjh5qIi0/NvJ2VfxzGykrKvJ+Vcp0sL49K/i0799l7CX7699ScIJioHcc/VVA63FsVXoSmiAl4tKiHrmtZEwjOyAt35YbI3UX3xjchPMwsjopK+RhES+Wo0kZ1zL/4vSHwCUw6XN5dpuoi8WhQSn9DaS4/P+E6tqyjExhaTUjAVSfLmMnhZXEFRNIaY/MW3vyOwsq/dvZSYfa2tj5Gce6MQG/vd7T+39IRYiXX+7K2nx2zqCnPTeXRwd5vr29Orq0BqzDFWoNVWh/Scrq4u1ijC1ceePWNdu7W5t7cNJMDDjfMZ+NhQdn0dza8+8ync3d2trSmbef/sLeDAH6wh6NS7nt169/f3x8ZGOlsDsbcjLBDcJC/k5jKHe+mFvDpHGg98EVHTk3mqWiZ4I/X1mfQdQe4W9IM15NoSbHsd6doiB+7TbDi3+voSbNYBWZguON0GOr2B2dvUlMOHvVmdIgjazd66hti56EhlG76gOKaMlgF4IiIuldMz78R8CerUG5Gf3U/+OiL2S2hJjLCuqKYdj8QnXL7y+1xkJLwsDgwpg2DuJ+XcSMq5Hp3yTXFVSmTCV0hcQiUnNxt+Nzn35t24y+kFd767/eeUvJumcT4UCxjAvDVTaPZ28ncfmScEEMx9UX1xbScBXZGEo2cm51yHFkfXG0m5qMjqVlweKjIVcospg8elX6EI8zMLI1gKwP3kYxf0ltOT9zZI9ExLzp29lZDTrkZ8kouKTM27WYiN5daiWnvoSTnXU/JuWiaFHQPMwpLYBhO5ug2XBbt7M+qzuIzvrtz6E0eJTC+4fePepzRJIRQbq2zHQ7ExgXSYZyyejFhbEpK9+Qzcm71BS2JyEPc0+kphXXFC1jUkLsE8LsjD3M9FRRJY2Uh8ArQkBloM2KvgZXF5qCiyIJ8pg0FLYomc3LT824XY2DJahkeYIJlzYG+AyfBe1xCnwUzOht/NRUUKNUUMGSwPBRCCzkHAMlfFh+Rj7lNEBWXUjBYb7fq9S6WUdJYCnlkYkQG909pLB9mbeVyQBrnFqUbGpl6JSvyq2+EnOsp7LGGwN//RWt6N+ORtU2KWAg7Fxki0JWn5t+oMlS02GgRz3+oAnLkEVnZK7o0iYjKKkFjJy1V3EZVtuBJSapjszfuKn5G9WZ0inR1wKZrG+YYRwOEILjiwOkX6YU6LjWYeF1idInAdg36Y09bL6BriGMd4HQPMriF296QQjLDU2dmShhI8I9M0xu92iIBQUfBttg6hZUJgGhfYpoDIjUBM+i17C2BgBqdXXF+CKI/vGGCyqxEIfEIG9A4EE3U7+gtocYyiuQx4G6+dJW8uLyGl6OzsDOjtBjMZhU9EERJLqWm1nYRCbGxi1rVbUZ8hcQlEds6V23+Ky/iuxUa9eufPADEtuN1sDRGk0dRN1dTXeuv6s3pO+/q6w2Zv4apJH1V3xo/O8bDY29rqUm3Y7K3f9e6mzRWEWnl3zJ51RgnDPP0dsLftdeTSHNTel7EyXximVKerBrK33V13tIebvQW0vR25c+am8gXc61TS1zTSNyMDmYEEmBrP7TYmnY76+G3zJOwNZe9Lr1dFbq8j25piXGK4d10GXxrhYf+ejOdnALix8/Y6cmo8t7T4iwZNpIunAm+w8M6EHNeJ2Btoe9OaSD3TEmUbLhcVqeqsAIxtsLvFVSk3oz7DMTJT82/lIO8VV6XkoSJBdx7IxqDF0SQ+YJCDl8YhyuP1w4CyQZTHI/EJd+MuI8rj2dWILFgEtCSGLMgvIadWt+FKKelQbCxNDIWWxOahowqKo30CikOzt5OHowFDa8enQm4m596gSwr5KrS0EVtOzSilplfx8lpstEpuLmCdgkbkICOTc29ExF5Ohdy6ef/zkL+JfXTn+bE3ICi7Z1pSRk2v5OQkZl3jKJEEVjaiPL4AmHMIojw+JQ+wnWDJacWVKTh6JoqQWEJKzSyMqNNXJufcwBCTYGVxcelXymkZWbAI0B52QvbWc1LbWx46qnOQBQbtpUJuFRRFp+XfpooKMgsjSinpWfC7FGFBbPqVW/c/T8m7iaNnXr3ziaK5LKPgTg7inrIdDy+Lq+LnRSV9nZJ3s4oLhBmFhJu9ra54KzZPPhzPqX6YiyWlGkZ5gKWHlJqHjkrJvZlecLu2A19OzwTshVXArF67eykm9duoxK9abLTYtCsCTVF1K46vQtOlhdJGrNZEYlcDSwRgpbHpBbfxzCwCKzvkGiDTOJ/EQvl9Ky7oOQX/oUJOgk+FriFOKSU9B3GXIswHWQ67GgEKYxrjc2tRDWYyuiKphJTS1kdv66XLmssCkRuflr0/tvczOMIqz1T7zayurTDFRd2OI6ER3o2cS94yIdAP+w9rC9m+rAHX22frG+iR1vsPDwBbEGtLsOTUnmmJtBGLIiQm5VzPQ0XeifmCIYOlF9zOgN6uaccrWsvLqOm6Ifbt6C/AeAxJAzYVcisVcossgGQW3imuTKnk5tIkUHRFEkWYX8nNvRd/ma9GF5NSQi6larHRalUK70k+B/Zm7gpzzSmggzeW4XNO4A1O0xN560swv2ry1IV+bXtnZ2/Hm1Ur79bV3jPpE698848drXH2vowGTdRAT5pRl1Ajv9PZGjdmz6qrvWfoTJh1Qho0UbWKiD5r2lB/xsRwttWUbDUlm3QJYsENVXXE1ioizPEC7K2e7n3xAuX39k5pexsdzELA/oyE/bkY/en8dP78dMH0RN7CdP7KQuHWKmLVdZxzQuanCtaX4I7RnImRnMXZ0xiHQPbmWXN6cHAQvu1toCcNjbyka4sn4i9raiOH+jMMnQmDvRkby/DBnvTO1tj56fzFmQIh73ph/h+nJnLHh7MXpgv6bGkzk3lD/ZmamnvtzTFj9qwgnuXjV/zhBmh7Y4G2t/5+s74jPsiFM+uT6ORv1pdgYv71xrqo9uZYcuVX7c0x40NZHMZ3PPY1oy4BBf+kpOiz1sZoJvVbHPYLVXXE1HgulfR1Ofbz3u5UEf+GvTcdjbzU1hzTWBelqQFuuWrpbZs5BY28tLoQ4n+ntzvLYGj26zmdmnbwqkuOPNSmJNVtOFBPNJjJdYZKwwhXrSPWGSorubl8FbrJQmHKYZwaZHs/s8FMNo3zGy0UwwhPrC0R1xebJwTtfQxeLbreWAXqgHbXaoDWXnq7aw1/i41W3YrrGuKAYWc6O7ujn2kcBZb613YSuo49diUa3NjYaKDbu7ml0cfTemQsQfU92KltSgwuxAN/qYNazeYENlkwjfHNEwISH9JooZgnBJWc3LaT70RFYqN+/PHHQPKD5RsbG6ygcW9aE0naADi4Fa3l9SYSXwVEFgo0RViXexGJS+iys1WdFQhcAl+N7hri4BmZFaycjkGWvLnMPCGQN5c1W6kEZhZdUljbQahuw5nG+Bp9pd8IJL8TKG8qtdosBwcHwyN2SZ3/gG5vS0zPtMQyKaztIFgmhcZRvrqLmF8UjaNncpTIboew0UKhSQqbuimWSSFVBI1K/KreWNU1xG60kLsngW8bzGSrQwSuI1G24Ws7CeCq1ZBRX7YpMVOCXl5e8jvhre2NdXrgZ0kwTEnA5YTAas1RHqI8Qa0jgrelK6KcbR4X4BlZah3RMMIto6azqxEQzH3dINs25V5vAd724NHqEHWDW3WEsXzbPC6oZCL9sreXL1+KZOzTsbe3O4a4ZPBeCALmwQrgKiLvb4PN0rE5BAxRghDsbX19jSkuPhF7C3nFTySkp3KgZuWN+N4+a/9AT6DgTrAF4yhg8+uZlhhHee39zCYrVd5c1mAmWyYFGn2lSldhdYrME8LOQZZ+mANBR0kasO39DKtT1NpL15pI5gmBzg7sb2Ic5ZnG+fphLsiqOwdZ3ZNCwyg3pO2zpYdec+7szQSwtyMeT1D5+VWBo/YsEe+GYzSHUvX1vOtFnFurgF0BeNmU643gD9aAPGiT2FpFbq4A5ObBGnJzBQ5W23C9kyqI4vT5yjkODcdzura2pKoOdwcvrTpKXXO3kvCXrPTf19VGlhZ/zqBeoZG+aay7Hxf9v2sUEQzqtzTytyWYz7TqqJj7/6aQ3C7BfMZlXVPK7mSm/45G/gZW8Cc+5xqs4E/rS75uNU8ous8Ejg/lhOk53dvbVdWUz0xCglwIcJZ8Kihld+Ti2xvLcC7rqkx0C1f6RUL8vzOpV2rkEVPjebWKiB5LKrb489LiL7ra46GQP6an/q6tKWZrFenTjs8lOP5xex1Fo0R4s7eJ8bH2luwA7Ry5uwZ70ilVX68vw5WyOxLBTUjOf1KqvkHCPzHqErFFn1US/iLk3VDKInKz/xAb/b/JlV9zGFfbmmKi7/9bY/19DuM7NOKTnMzfi/g32ptiwXvvuHh+S2YdEKWSBrK3wcFuXRvA3gIIjDLpEu/c/BcM6tOoe/+rRnGnueF+texOEfpTPueakHddq46yGJJIxK/4nGv91rTM9N9bTSnYos/ZjO8E3OtadWRF+WU04hOtKurqlX+SCm9iUJeQsE+sphQi/nIl4as7t/9laRbqV0iw8NEmut+Wrdc3+WVv0zNOrg97O/ZcBh9YR593bwPqPSHkRysEVZBBu/BpR1pPGB0d8auMDw4OmpubGwK8d9y7He/8SQW2TAKbLIB0xCeUG2zWp3GPhgAzVSzkDz/8EEh+sHxra4spOhJ96BHSPflH31jvIgoS25SELMwXa0t6jgaYg/KAovowqnAE9sjvPS5FS7ml23xwcDAyOiSpw52oHbBBIie3xeYbzdM7I+0YYArUGG+XtHe/3nmPYIEyvTNSq1PMkKCWlhb9TnhbR5OmKxR787o5bVNiVWeFt4USlMcwwgOJr2GEp9JV1BkqT2qs8juBlglhJRP566+/Hhd+b29PJGUFirU/Okvn9b95snY6Blih2dvGGkuC7XaIjgos6Tl6ewe6vt7lfifweAXvknDy8iZ8X79tYLDXw95CdhS8WWDNkBpjGuOfsR1PL2A7bb2M87G97R+m/v4eQ2eQTeeP+LwebqAGbGkY5KVy7BcWQ5JjLIeAu4xCfNKgiULDP8lI+21TfRS+/Esk7M8dLbG9lpTUpN/kZv3B0JGAL/uyMP+/GjSRDMq3+Xn/Va++F0R1+Xw1PQHVaGRgsPnx/xBPycbGqkIWJJLpyEA0tfdysv7AZV3lsq5ymFeppK9d/BKwTlWUX3aO5WCLPpuayFNVR/BYV7FFn60vwUjEvxDxlwvy/qu0+DM247vSks8S4/9PWspv1sI2QE6M5GjUZI/AQTJ7e3vqWvz0RJ7PVIT8yKB9221M3l5H6jviRfzrU+O5RNzlyZFsQvmXvd2puLIvKgmXSzCfohGfKCS3u9rjhbzrIdsMVIFGvuPxnB4cHExOTrQ1Zweq7F0+2JNGIn61tgSrkd/hc65hkJfWl2Bs+hUi/nK17M7yHBQJ+3NZyeeamntc5tUi9KXS4s/KSj5PS/5NvSqSRb+ia43DYb9gUL9NTvj33Kw/9FnDtRzPOiHKaip4Iw3ZbZ2tcd5S+eTNXYm40i+cY7lc5tVq6W3w0mdl/J5S9bVRl7C+BLw7rkYR0ayNdozlgncIlfQNovDPna1xEyPZSPgnudm/L8Z8hkZ8IhXcjLr3v9CIT+x9GWkpvynM/yO+7IuluWDs7eEGCmBvXY1+2dvs3DRXcdT25qW9PI+M95gJzt5aWloaTx739i6HQ2KHxd5YYl/2Fo5K8+zGctEjUjSXdVsB29vI6HAg29v5yXCEN5yo2eC2t7aOptC2t/d3/5vHBVWs87e9nWgCT125Y4DJElQG0UQHBwensL2dWp7TnShrxLltb/X+Dcyna/bcz2rtodfUyr0f6af0nL569Wp+fv7Zs2cDA72GTveqBdAO4aPGfD4O2NJu3fyfmem/m3VAZp2QelVkCeZTEf9GvTqSUvX10ixUU3OPRPyqAn/ZqEugk79x4Vsm7cr4cHYx5jNs0WfdxpTVxRBuI+9OZyahGrU0JHvb3FwLn73JxLe++fr/cY7lCrjXpaKb2OLPLYYktfLu2mIhEXd5ZjKPSvq6rhYYSI3iTkLcv+va4kown5Irv4q5/2+NdVEs+hUq6WuF9Daotr2l9ZsHJ/YdsDep6GZd7b2tVWS19E6d6t70RB6h/MuF6Xwe+2p25u/Skn9Tgb+MK/1CKrrVZ00zdCaIeDf8ChxOIY18x9v25pe9+b2j7L3p5Mqv1xZhtdURQt71vJw/jNqz8GVf8jnXmLRvB2xpJUWfVlX8hUW/Uo79HAkHmFxi/L8LuNerZbfLsF/0WlLKSj7nML/jML8rx37R2hAdjrQPN1De7G14uDc4e7OZUxnUK9vryBr5HZnoJgrxCZ3yTV72H+SSW6BsPZYUTc3d1sYYx1hubPS/cVlXi1CXmuvvF6GB3zZy8e2s9N/JRLeYtCtK2R0u+yqd8k2t4k5i/P/RqiPplG+WQwUmBmdvnNOyN/BXYOAH0+l1MNgm2L60Hj8yMhxIK7S0tDQcXaMaWJ7TmAP9thZ84D7mrlOwt8P2zzqBfoU/XaGLvYG2t4DszWfgp+jo7AMH2dtSAM/pSW1vYQ7hvAYOeE4ZCL+2N8BzKmcHsr2FKee5V/MeeOcgi8mr8OYTx/9nNzbWGaLiQHbWcxfvFA0qmvBWm2XQ3hfmwuogXXhPTpBqp/uqrY9RXSP1Xn95evbW1NTEZDJ1unZ9x8lsb9iizxiUb1XVEbq2uCLUp3Don0S866auRC7r6sJ0fmrybwhlX2KLPmtpiK6W3hZwrpGJXwu415bnoGjkpRLMpyODJ1slcBHszWJIqlcB4eQWQ9Jgb1qz9n5ZyecdLbGbK/D25piVeejoYCal6usaxZ2h/ozUpP+gkb8x6xN7u1N0bXGzTojNDGSW5qDdxqTw494mhi/c9mbvS0cU/olc+TUGeQmIe5uCMKhX1hZhW6uI8eFsFv1KS0M0tuizCtzlHktqjyVFpbwbJvU5Xu3UtjfnWE5d7b2NZbipK7FJex8K+a9izKdU8jczDgiPdRWDvGTWJ9JMsd4AACAASURBVA72pkNy/vPqlX/s6ohvqr/f2hjdZ00FAxCX56FN2vv6jvgK3GU2/cr8VLjvE3OxN4q37S3I0oH56Xx7X8b2OnJyJMcxmmvWJ1bLbttMyUuz0NbG6PbmmPUl2Mxk3pwT4hzLxaAuadWR40PZW6sI8N5YXSgcs2etLcJnHJD5qfy5KcjyPNQ5njM5mrO+BJtzQh6shVhL22/L7upq8PtgnZ2dZsuLT/cEeTdnSesJQdhbW1trIM/puxEvZC9kDvrx48fHNZl3yYMHD5hi7DHv2wfE3mraCUaTHohJHR8Va8pDjvpsFU4/cIC9SVGLiwve0+vJd3a1qnVVJ5LtkFCeG/UP0rvLcxqQvUkUXJ39lMH4QTo9r690djaDS/D7kPHM/8bmBlNc4s3ezqv382rHxd7Mg0P9kg/b9tZ+Cvb25s2bBw8eLC8vr6ysLB2mhYWFiYmJ7OzshIQ4XVuY26QB0UtD/Rnkyq8nR3NKSz6XiW8WoT+FQf8oEdywmVMkwptLs9CUpP8oQl9CIy9V4L7ssaQoJLea6u9jkJeKUJfE/Bss+pUxe1j+NQ9dOBF7C6KPPQ2CcXjgIsHtdWAt4fY6EJ8HZg7LgRWC2+vImck8BuUKmAcrBOjiSGiXd1+e/MRIjlpF8vxXBMm4PKeEqfFcz7lhZrZWESMDGS0N0RPDOa5BwZ1juSBR2FpFTE/krS4W9ttS+7pT15fhqwuFC9PBqU+wQdGpd168eBvt4XQ6WhvDurIP1pAby+4gyJnJvErCXxZnCjaWEdvrqM0VwHkNznNfd6qYf2PrMJhyex2IngSvDpgBvwpwOY44ysHZm5vKV8hJIHsbHurpaI4NfG6wgR9eC3edhemCutp7myt+wh8Pa/oRJuRXAz3Zus56vw/WufnZ4+ztnDRWODo4dB2ZlgDu8u/3Ju/o6Kg3niCSKfhT/lwG7vObm8pDP3r0yK/wnsLt7W2WuPQ9sreQA69tJxgMXQcHBxMTYyK1f/bmM/AAUx36iofjMg7QOBALyJKiFxbnPXPrndF1tal1R/ajCTnwQB15l4c38ND8Lzh7kyp4Ojvbu9+z5M994P8/Y2+hb+Pzuiv8XuXTsLdnz57Fx8fHxMRAodDCwwSDweBw+FdfffU//sc/tjXF+axaCKJa1hZhkyMAM5gaz511QLoNyT2WlDln/uoiQAW215H2vozB3nTQr/pgDbk8X7i+BFuYzh8ZyNxcQSzPQbdWQ1gdfHqfcUA1aklIz+nW1rpCmhhYHwfSoCH0NLjjl49Ip/s4OZqrqqnwfjAFyu/t7WlUxFOwt9MJdrqzmPQ7z5794hnC9PRUszYQews4yZurCMcocDsdl2FrFbHu2nHt+FenK5kH2FslaLgeHu7raI7z2+9JGz8jpw/U3WBvtq6zzi97m1+Y43zYtrfg7K2z8zzZm98H5RkLPwr2FnKMtR0VIdlbyEbCrhBaNQZq6qTsLVA776U8DPb2d9tbaBJ8lmv3t2x729nZycrKMhqNz46myclJCAQiEPB0bWEu1Qyog700UDh1AhGpt+Xe8VIu9iYOg71tKKRHtgfzbsRLwre9hF0YzqBC13GM5pyAvalPz97ezcBZ9Iij7G06MHsLPefnIvOjTUyQawqyN7ftLQR7C301w//BE0SkIF+diL2dy49y1wM0HB0cus5Hx958fnP/jbC3j8v2thCu7e0smt5zrs8V95SfNAOyt+fPn3t+x3oyL1++PF/b20ll81vfe+A6O5vOwfv9iegZxabLcxr++9m8Oz2/51Iw/qdoxlu6jfahgVBLc0I/uLwnx3sg55Jv72fKleKTxb3t7OxAIJCeHmDbRk96+fJlU1PT4ODg4EBfV3vyRauio1oqHNX4Vt+fmr0d7fRtg0fLTybM0XMDtem//GS2tzOwt7MIGf65J2Fv726Sg8h/Qba3ID2e5d9qsDe781xtb+/mSQo+5mRagn1o0PO08ckAtjfDuXlOz+XB6tMIlY95+PChj9g+HwHPqeh9ek59ZD7+Ua0j6nQdwHpwx4RQ5d9zevys05aEVo2BWgZsbzL03PyszwyDH7sMHaoOYqBz33u5ZVJYyYQ9f/7suPCvXr2SKwWdg+fmOT33wXYNcajssuDsbWtrkykuOR17O3eB/TZY3UIwWfRDw4OSumC79fo9910WdvQz5dWik7G33d1dKBTa3d3tfXvt7+/v7u6+efNmyD7oYm/+CcdRzRSODg6nTjh9va1zweztbUdHB+tdHs6gQtdxnMhzqq50njzuLfAQvIcTfj7YoNiMiF9++dlzU83MzDTWn2w9ynlLG2JcC9P5MhkRtL2NjvS3NQXxnAYb+KHY4dQJIdJhU36q2ftyOjrU3v/qnqleWJxnyy5o1UI4Ojh0HXkDYXCw3yOwT0av79J0HYlkepfPUL99+fzmpguLtra2fMT2+fjo0SOW6PgG96Enx68AF1Go0Ve2d7QeHBw4pxzC2jK/XfgM3G+d8GLaTj9wN3ub88/eDMbO2vbzZ2/hDTyYyQecq+DsTVEj7AjvZa8BZj60ACc90XvgJ2Vvno2CgYxrc2yrUwRsbvwWwm7XS64sk8JDCMwTXhjnm8f5piMQAFvgunbBNYzy3Bjh6j0Y5uoBcLqG3kJnZx+CJVCVGM1d9qEBrqIELOwcZHnQMcgCMMDsGGC19zPb+5ltfQw3ehmtPXQQLTZ6i43W2sNottI8aOqmNlrcaDBT3DBRtCay1kSuN5LrDaR6A6lOT9J0VYFQ66oOUanqqKztIAJoJ9a0VQjVWHm1xPuRHnrN6c7OznH2Bj6J9vf3h4cGdW0nWHMaRN9c0FezDqhaLXr16pXP09Pn44MHGwppcsilfBckZDjNOsdya6pxPmL7/fjy5V6dmuQYO/GqhXDEOK86PPbdn356ux/9/PycVvNBs7fFmQKZlACyt7HRgbam+HOJews6n6dneAB7a1d5/6t7bpXFxXmO7IPe703eUBGMvRn0mq6TrSI8qYo6Y/2/DfZWZ6gKyd7OOFFep39A7O1dmplDsreP3fa2ubmRj0wupaSV0zLKqBllFDdKKZmllAwA5IxSciYAUib2ECVVmW9RmVlSmeUGMQuFS4WgY4srskpcwBJzSlzAEnNLKyEu5JVW5Ze5UYAjFeJIMBB4MhwEgYwkUABUUFBlFchB+6DT6cAR0WBJBRVDpGJcx6JKWjEIEr2UxCgl0UvJjDIqC+cCns6pAMHgVDJ5VUxeFYtHYvPJHAAUjoDKFdG4IhpPRBeImQIJSyBhCSVssZQLQMaVyvlSuUAqF8irRXKlWK4UK2okyloZiFq1QqVWqtRKtUapqVdp6modDoe3pTM0e9vd3S0sLPSxvYGaYH9/f2RkqLM1xFvqTxqTdNL6QfUfahZYtSAIg71tVstSzpe9nXQgwes7x/Nqqss9OjhIBmBvmvfJ3oIPBLxePPbdp08/KvY2WyCTVrjZ29igX/YWzsC9b9eT1vc+N3geZG/e/+qeG+Yi2Nv5Kjx5A2FgsM8jsE9GD7C3c7a9AS8Ocoi8yES4Rgtw4N4GiZ5pyd8Gewtue/M78FNM4OEpZ2Vvs3MzPvcJ+PG47c3z8gxvU5AVMAW54LIDWZ3eBiFXHnzx+VubkBB4G7oL5gmBcYwPwjACvP9NP8z1vEBdZ2d3uo03LstNL6O1l97aS2+20ZpttAYTuYiQ/eyZf8+pVM6vbsFpzSStCUC9sapOX6XRV2r0leouolpXodZV1HZU1LQTatrwNW2E6lacoqUchLypDIS0sVTSgJU0lEq0paK6EqGmWKDGuI7FAnWxQF3EVxXxa4sEqmK+qphXW8SrLebVFHGVh6jGcF3gKYs5iiJuNXBkyzFsOYYqgBOqSvw+ZDzXYm9vb2FhfmraOTXtnJmZnp2dmZ2bnZ2bWViYX1xcWFicX1paXF5eArCyvLa2CmJ9Y31za3Nra3Nza/PBg60H2w+2tx88fPTw++8f9fX3lZSUPHny5Icffnjyw5Mff/zxp59+/PHHH8DMTz8BH58+/ekQT39xpZ9//hnM/PLLL8+e/fL8+bPnh+nFixevXOnXX38Fy349TC+80l+dkH+1ZPmkv7IjT9rb23v58qXn+ODBA6PR+OLFi5dH06tXr16/fg326Dm+9kpvXOn169dgxvsIviTBM7eh2dtfxQ1iexsZGe5oCcHegquZi/521vne2Nv5Du0jYm/hDPzjs70B7O3Q9jb2bmxvflyi4cztww3UO7O9GUZ5x7a9CJf6HGpu3/rB2ZvBYPDZAyJQO+GXa7qINDHU9fJHtxYHvDmgE2dC4PHUGEf5hhEeCP0wB4RuyO2F6RxkdwywOgZYlUz4xsaG5yHrN/Po0SOmsNT1Si53R92TACFw9zXGB3xArr5Avw/g+hnmuN09hx0B3fUz23oZIFp6QK8NtclKbbRQQLi0PqneCOh+UPEDul9Xoep0oaNC2Y4DoTjU/fLmMmkjlsSHNDU3HBwcTE056CI04C1yddTa42IeLg9RU7e7lwYz2dUF0FGdAaAXIMNw99JZUdOOB3ppw3kYhrylXNZUKm3EShuxkgasqL5YVF8srDvkE6oiXg2GU40CoEAxZUiGFMGUIRgSOFVYCILMh5J4UBK3IB+ZMDMz7XeejSY9siyNQM/D0XIBUHPLyDkgSknZ2CoXKrOLiVluELIwuMwifCYGl4kqzwCBLE1HYF0oSYcXp6Xm3M2GxsCKUgvRLmDSECWZyJIsZEkWujSnqBwCAkuAYgmFWEJhORGOJ6FAVFCKiJRiIqW4ioYlM8rI9LIqMv7Fzovjwr9588Zg1FOZeCavii0gswVkjoDME9H4YjpfTBdKmGIZWyzjiOUcqYInreZLq/lypUBZK1aqAKjq5GoXNPXVdQ01dQ019Q21TS0akYSTnpWkbVK3dTSBaO9s7uhs6ehs0enbuvTtAAwdBmOnwaQzmHRGU5fJojdZDGaLodtq6raau61mW4+lp9dq6+menJwIzt6Oj+uMJbOzs5WVIV7wcMYuzuX0xcVFEom0u7t7Lq35bSQ0e9vd3UUgEEaj0e/5o6PDLtvb6V08YWojr2on62vOWajRCEPa3ra3t6plqSe3vZ1MGK9RnFgxT53A9vayXkNxjJ34TVknEe+sAxdw7/3449t3QS4uLgT0nG6epi/XVnyowyOwJ9/2OrDfm3uzN+B1uh4gtlYBbK68xcYyYmMZDmJ9Cb6+BJ915EtEOND2Nj5ub6yPBcvXFoHXXoFYXYCBWJkvBLE8Vwhiaa5waRYKYnEGCmJhpmBh2g3Xrrz5c1P5c878GQeAWUf+1ARkaiJvajzPOZbnGAUwOZo7MZI7MQxgfChn1O7G8EA2iKH+bHtvVktDUkuz0u+DdWlpkUCDqjqIqk5iTXsFCGUbQdkKoLoVr2h2Q96EkzUCkDaUSxvKJdoyibZMXFcKQqTBcpWYiNi/0ERwfm0xvwYA1/UDnaN4+wOdLcewZBiWFMN0gSFGM0QA6EIUTQCAKkBReEgQZA6CxEGUVUKDrFoYHBwoIeRVseBEBrySARwraDAiHU6kwytocALVDTwZBnpJAKdJFQxXBcdVwcorYWVEN0orYCCwhMKUjOhvr35ZgissrUCUVSDLKpA4IgpfhcFXYQikogpyCZGMJZKxlZRSErUcAK2cTMdTGAQKg0BlVNCZlQBYVUwOmcWhCMW8kG+p//nnn2kMUhkBUV6BxFcCHeGrMGAv4LEK7Ij6tiMKnUA77IjBJrE4FABcCotDTU6NQxfBeAKmQMR2gSOW8iUygUQmkMpFcoUEQLVUWaNQ1gKoVSnVmloXVPXaOq0LDY0NTc2NLjS1tra2t7eD0Xvb29t8IYfNo3H4dA6fzuUz+K5e+CK2SMIDe5HIhO5eFJJqpQzspaa2+rCX2rp6jbuXBm1TE9ALnoCDQPJaW1vb2tra29t1Ol2XKxmNRrMrWSyWnsPU398/6Ep2u31kZGTUlSYmJhyuND09vbOz41dD/fLLL/Pz8wsLC0uutLy8vLq6uuZKGxsbW6704MGDR4fpyRPAnOMy5PzksdY8f/78hSvt7Oy8fPlSIBBYrVbwUeC30w+5cGVlhUgk7u3tfchCBpHt42JvFzrPodnb3t4eCoXS64FNt33S/v7+6OiHb3srVKv4L1++9BHe5+P29pZClhr+mw9OQnROTNT8Nj49kaeQY33E9vvx5cuXdRrqqD3bwz82lgH+4WIkCIBzLLuOS/A1Dxbha4dYdxWuLsJW5j3MA3pIMqDzUwXzU9A5J3TWkT8zmT89AZmegEyNQ5xjboYxOZI7OZoHMIyR3PGh3LGhnDF7jodb2PsyB2wAKgnXHz/+3iP/8vIyj53Y251uM6VZXTDrU0xdKSZdsqEzuas9SdeWqGtLbGuKb20E0NwQ11AX06CJadDE1tVGa2qj1TXRqur7SlmkUhZZLYuUie4Kebdk4nsy0T2pKFIqipIII0X8SBEPgIAXKeAA4HMiuexILgsAhxXJZkSy6AAYVDfolEgqGUBlxV0O271qYXJyDAG/QSVFUslRVHI0lRxDAxBHI8fTyPF0agKdmkSnJNIoSXRqCp2a6kIanZoOgkHLYtKzGfRsBi2HQctj0PJKimKg+beY9HwXCtgsuAsILgfF5aC5HDSPgxHwSkAIBaUiYblIWC4W4aSSCokYgFRaJZeRXKBUK2hyGX1kxO6Xvf3www+1KoW8WihXipS1EmWtVFkrrdXI1fVKdb1SU6+sb1ABaFQ1Ntc1tWhBtLY1tbY3tbQ1tne2duraOnVtuq72js7WyKh79VqN0aQ3W4xmi9FiMVlt3SB6+2z9/b0ABvrs9gH70OCgfWBo2D4yOjwyOjw6OjI+MQZi0jHhdDpAzMxMz83P/fLL270APTcJmPn1118XFhcWFubdDpflpZWVFbfPZX1tY3Njc3MTVMzb29sPHjzY3t5+9OjR9670+PFjwN8C4IefDtPPP/9stVppNJrLq/LWpXLoWnkOulR+/fXXFy9e+LhOdnZ2vF0noN8k5NMGHMiLFy88XYCZQ48N0FHIvjwOmd3dXT6f39fX9+rVq5cvX746TF7eGHfW2wvjyR++sxr46zPV4Mf9/X1PX572PRnQE+Tdl6dlT8a7C08vNptNLpf7Dc30K8aHUyiRSPr6Anr2Pxw5/UqyvLxMJBIv1Cbkt9/zKpydnSUSiefV2sW1s7i4WFVVdaHzHJq97e7uIpHIQOxtfHy0rfmD9pzOOQvVal7I5+lDwPaWtrUKvCDhRPCYc45ntlbf2m/WFmGrC4WrCwAfWpotWJotWJwtAMwtTsicEzLrgExP5IFwjOVOjgLvRJoYyR4byh4byhobyhoZyDTqEvk8VDh326tXr7RaBZ2Ww+Xkc9kFXE4Bl13AYUM5bCiXU8hhwTgsOAfgBzAWE+EGA8VygclAMegYJh0DHBnFbBaWzcKymNjU1DvFRVkcDo7LJfB5RABcooBfJeCTBHySUEARiWggxGKmBISELZVypVKuTMqVy4UglEqJqlauUsnVaqX3uxZ+/vnn5uYGtbpaq1U1NKgaGtTNzdrW1obW1ob29madrq2rq72rq91k6jKbDWazwWIx9vR09/R09/ZaBwf7AXJgHxgeto+Pj4IwGPQQSJ7dFY7qjreYnZ6fn1tYmAdDLlZWgNeHrKysrK+vbWysb2ysb25uuJQ9EGPx/fePHj/+/vHj7588eXyo5X968eIFqHtevXrlKXx6mH4+TCAJALdH9KhnUPeDWtlbMe/t7e3u7prNZqFQ6K0jvbXjoToGAiZ8kkdBeme8lWU4N8yp6+zt7RUVFf3ww1sb6qmber8nDg8Pc7nc9yvDqXt/8+aNWCweGBg4dQvv5cSenh6pVOohc+9FhtN1KpPJfLbQOl077+WstbU1AoEQyFT5XkQ6UacLCwt4PP5Ep7yXyqCN80LnOSz2FsT2Nj4+BrI3H8ZznMo8WEOB/imfo5e7Cr65itxcgW+suD1WoMUI9E+tL7mdU4BlaBG2CsLFh1YXClcW3I4qL48VdHkOcFSNDeWqarkh2dujRw/xuBQBL17ET+Bz4nmceD4nnsuOZzMAsOhxDGocnQKARo4lV7lRRYwlEmKIhJgKXAy+DACuLLoUG11aAqAMG4sri8eXJ+LKEwj4ZCIhlUhIraxII1dlkauySVVZVHIejQKhUSB0GpTJgIFgs1BcDobLwfA4RQI+VsAvFfBLRUKckI9ralKHcyPu7+//8ssvDx8+9Jgcvv/++8ePHz9xpR9+AAI8wfTTTz89dSXvoE6QcDx7BhghQGPAs2fPmExmT08PSDt8jA0ee4OHcIAM441XevfP6M3NzYqKCr/hwOHM4buss7+/39vbKxKJ3mWn59LXXwMSMBhMyHd6nktfF9rI6Ogom82+0C4urvE3b95IpdKPzhrU398vkRzZAeHipuh8W1YoFFar9XzbfGetra+vf6TsbX9/f29vb3FxEYcDIlj29vbevVoJ/zKtrq4SicT3z97QaLROpzsu9/7+/uTEeCXhtromTqWMqa2OqVXE1ChilIoYpTxWKY+tlsUqpLEKSZxCEieXxMrEcSAkwjgQYkGciB8PQsCLF3ABAOSJncDjuMBO5HGSeJwkLjuJx07hcVL5nFQeO43HSedx0rnsDC4nk8fJ4gLI5nFyeJwcLjuHx8kDwWXns5kF7e1NIePeXr16tbq6uuBK4EtdXe6Ytc3DBPpfQD70w2F6+tS9pOXZs2ces8re3t6rV6/29vY2Nzf/GjXoMZx4Mj7mk+Ncx4v2uLPv9zZ98+aNQCD4uH7cb21tEQiEj4W9DQwMCASC4/9iH3jJ69evi4qKQr7T8wMfxcHBwfj4OIvFer//ZaeepTdv3shkso+OvQ0MDPydvZ36op/6RA97++ju9mfPnikUip6eHiwWa7FYzGbzh+l2f/ny5fLy8vz8PJFIfPjw4fr6+gXJGdr29vLly+Li4ra2tuO3i8vG8/OQvW9oqHdoqHd4uH9kZGBkZGB0dHBiYhiEwzHmdAKYnp6cmXGAmJubnp8HsLAwu7y8AGJ1dWl9fWVtbXltbWVzcx3E1tbGgwebILa3t4Blww8fPHy4/egRCGAJ8ePHAJ48AZxcT548/gFwdYFLiH8AFw/v7Oy8+zv1xYsXVVVVT58+PT5vH13J/v6+UCjs7w+4geoHOKK/s7d3cFH+Btjbzs6Ow+Gw2+1MJnN1dXV5efndPyvOeKU87O3jktzD3j4iscEtIUDb24sXLz6uhQuvXr1yOBxzc3N4PH5jY2N2dvaCWMUZ7+dAp7969aqxsTE9Pf3KlStQKHR1dfXDvHOeP39OIBBEIhECgSCRSAaD4YLuk9DsbW9vr7i4uLUV2HT77yn8Gfj1118xGEzIpWfhN/gea/6dvV3o5O/v7//d9nahMxyk8V9//bW0tJRCoUChUBQKNTExEaTyB/jV1taW0+mUSqVWq9Vut38UXuynT5+OjY319PRIJJLZ2dn5ef+vKP0AZ3tmZkYqlXK53MbGRhaL9eTJkw9QyEAi7e7uEolEJpOZn59fVlZmNBoviFUEEuDs5b/++iuLxbp8+fLAwMAHSz339/dnZmaio6P/5V/+hclk7u7u+mWZb9688bjjwOhncEs5MFrp+fPnv/zyCxhK/fTp0x9d6dmzZ96jDou9lZSU/J29nfTO+zt7O+mMnW/9j872xufzz3cG3kFrf336YzCYj91zOj8/Hx8f/9vf/rapqcn74fgOJvDg4MB7icnxkIk3b954B1qA61o8D/1Xr16trKyg0ei8vLyysrLCwsLt7W0wLHVnZweM5fCsY33+/Dm4kubZs2eHC2yAv08P008unwWoJ548efL48eMLWjH3448/EonEqqoqFAqFRqOnpqbezVSfvZednR0KhXLz5s2YmJi/GleOB+QEv5rel9KzZWsQCgWu9vUEFnt0PKjmPbE6nqVRz5498+xycnhVn3rWV/30008OhyM+Pv4f/uEfiETigwcPHrvSo0ePHh6mB4dpC9gqF0gbGxvrh8m1snttdXV1ZWVl2ZXW1teOT4L3PD979sv8/ByI2bkZYLfe2ZmZ2enpmanpaef0tNM55XA6J53OSYdzcnJyfALA2PjE6Nj4CHgcGRsaGQUwPDI4NDxgsZrq6lV9Az2D9r5Be1//QE9vn7W3z2rrtXTbTN1WY7fVaDJ3Gc06oxnYr65T36rTt+q6Wts7m1o7GgG0NzS2aEDUN9a2tDWBk6Y3dDa2aBqa1HVaJQiVRl6rkdVqZEqVVFEjkiuFcqVQIueKZByRjCOQsHgiGk8IgMUjM7nAixbo7EoqE0+m4xJTo/546d/hmFwiuYRAKionokBg8fDi8sLi8sKScmgJDlqCLyzBFZbgoVgXSgjQUkJhaUUhsFlgBbQUBBFaWgnFVhQw2dTnz597pjcs9vZ325tnvsLPgOztb2A5HqhghELhxxVYs7W1hcfjg2w8Ef6lvOia+/v7drudw+FcdEfn3v5ff1NiMJjt7e1zbzlIg69fvwb1lkdpeTTWzz//7NFVP3glUEs9fvzYo6i2HwKbiQDbuD/Y2tjY6OjooNNpc3Nzy8vLS640Pz8Paprp6enJyQkQo2Ojw8NDw8NDQ0P2vv6+vr7evr5em81qsZhdcTgmvb6rq0s3MBjaMLC3t9dttTQ0arUN9XX16ro6VV2dqlalrKmtdkEhV0jlColMIZFIhWKJQCwRiCR8noANgM9mcxksDo3FoTFYlOTU+P/2f/9f//hP/5CYEkuhE6mMSiqjksIgUl2g0CsoDBAECgN/CByFgaMwXUdGOcUFYPNYRhmZWUZmlJIY2AoyprvbAl4Ib1Kyv7/vzTJfHyZvTgmyTNDPuHc0gcxjZmbm6tWr//qv/9rS0vKrK3mupoeCeF9NIBTGlUBa6UM7th9uP378vV8afz4IRQAAIABJREFUsbOzs/3/sffez21c2YL///HdH7d2632rXu3uq5md8QRH5SxSzDkHgMg555yJnANJEAwAmHMCQYoUcxZFiiKVo23J9siWJZE73U3CMAlSlCx75Fev6xR42ehu3NDo+8E5555z/z5EIRCI7DPEc9AQT0cN8cgIML4/G+KBvopKz1/++tHxE8d8Pm9La3NLa3NzS1NDYzDYEAg2BPyBemgoa+t8vhpoKKuqvB4oGJ6nwgkNpdNls9nN0FC63I79KPn69VWDSaszqDU6BSBahUYLDC4o2+Or0crUWolqWwBu2BGhSgeKFogJrNIKlIDwsaTis3FfcIREpY4LiBZ8hco6jhISPVsJCAd8ZSkNe4WhNDKVRiZHSDnYvjR6ZYQpQClNdFCAaI6QqMw0JSgqM1VtAURlpqoskFBUForKulfIahsgKhtJvSPlTkpEdG6q3k3Tu2mGCrqxclvMXiYkFh/LVsMGpJbtqAdCQzv8HKefy5Xg79y5c/PmTbGKCu10BXiQeBr5FU0CSLytQKxpb6vI1y6BYlDXdkrru+WA9MgDfcpgvyrYr2oYUDUNaprCgLQMaaEA122XdZHEqV3jJigbR8+EuWfKDCVm7Z0CU7WCCVsjscH7Z35K8DowB6Rz1Vslz579lBz8zfT2448/CgSCxsbGA56n//XW3h54/vw5i8X6fanW97YC2rO5uel2u8Ph8H4HfID77927J5FIfi/0NjEx8Ttd88hise7du/eb3QCvX79ua29l8jE8KYEvw0PCk+EiwpVheXIslPqQK8dwZGguICjwFQqpj+TIIEFwZICwZWVsKZwlhXHlZQI1SgiKqBwj1WMlOqxEj1WYCUoLIGobqdxBAcRJ0XvohgpATFUMSzWQGMDqY9vruLZaDkdE/OfX/+A++fLLL2UaZmWTyNsq8bVLazqA4Ml1XUAqpPpuIHd1sE8FpbVuDGmaB7WAhLVtl/WQdIwaOsdMkHSNm8zVDFeQ1zNp6Z2yQtI3bdsuT1v7fhJb33SUzNj6ZmzAJBFLgv2quvqara2tly9ftrQ2aY1yHShao6zcIIEEVDMIIEoAEkFqeUotT1HOlWs4cg1HpmFLVEypiilVMyUqhlhJEytpIiVVKCcL5GQ4Jiuz4CJHjOPLiHwZkSeNjCY+Mpo8cDTBAQXHUY6BxnHnFbUzlEg6B339+vW9fT44OECgF3JkZZAAQ6xCRoZYosdK9VipARcZYpWVpLFHhhjgAHCImeAQsy3gEJurGRYfyxXgexqFnkZhRaOwqkUMBbuubt0eypoOGTSU9d3KQO/2UDb0q5sGy6HRbB3WtV3Wt4S1PDkmekqONGFzc7Ovv9fp53eNmyPDun8BGvqfboBI8i5o9PvBsYbKvdMWEBGA0f/pBohOBh9VBrOB2QdmQZmzQzlIdlLI22U68sHG+uHLIXstB0hbMg+eu5OQHshPD6YjG5wHCnsFymMG7t9JYraTzSy84IxkORtackXKMQtQwpWYb0E7dXbu3bsAvZk94r2HHT5fy9CSa1fGvLc6940HD8zZDTZp9K1yKHoTiUTBIJAy5b+2w/fAfyZ629ra+i96O/zQv8OR/0Vvh+y0169f1/l99T0KkFQswG/WKQswJ81sS3/0xLOTlRKYcqD8lcBUAUwGuyaANz46D3/A4IJDqWMdht4MduHggvPnV373dJ8/v87u5GPv8G7zUDlEbz/88IPRqqzplDaHyyFpGSpvGdICMrytXQBYZGRb2kf0UMaw9lFDxxUjJJ1jxq5xEySRJGPdk+ZI5jFoKLdHc2dAI6MJMMSBo2nzimP6zw0ODVQ0it+h+b/NKYPzDpmOGD0lR74IIL311HTIfpuavNunKAzUR49+CroeqXykMHw55Kjnvvdkeu9W25hn6eycO3du37x50+QWxTzgA9kZAukteh3km+nt5cuXYrF4P3rb3NyEFOdQmG/IQh9xvPj++++hIKWQbhxSiX/77bdPnz6N+FtAOUkgxTikFX/y5AkUmOPhw4eRaOl3wS3KEg9EWL25Y4JfX19fW7u+tnYd3IA47FBc1qtXr167tvzo0aOYboORO+zXKDx//pzNZv/n0L1tbW15PJ7fl+7t/v37v5eIIVtbWxMTE79Hy+k/vzi/se7t1atX9QFfy5BuO0v6VQB39isf8FbklEjhgIMPeCtyeqQA0Jv+UPSmB+jNETkRnCTc0f/GLMfcuauGu/6NeUrMndEntgxra+qqt7a2fvjhB7tb2zVhinlKzJ3R13njAe+l4Xaf5Nq1a3uf5OHhEERvkWpECtGV3FXe9W/MU2LujD7xjQcMLbkG5x0SHSF6So40YXNzc2Cgv7pNdpjrRH/ufuVf4zpqC/1gx4nRsWFbHQcCoOgK7FfJ6P3Rx+9Xjj5+v/J+50L7DU4eGLD9ttkt2e8K0P6DrzN89c1f3r39EPOaMXeG5u1Gu+zrr7+O3CFvprcff/xxP3rb3Ny8e/euQi4Si9liMUsiYUkkTImEKZUwZFI6JAo5DRKlgqZSUlUKikpJVSvJahUgGjWpXE3UasjlaqKunKDTEnTleEC0OD0oBh3WoAfEqAcCuZmMwKvVhLGa0ICY0TYLEhK7FeGwIR02hNOGdDkQLnuZy45wO+B2C7y+3vPGaL2RHnlfhf/Svb2vnny369y7d+934fcGeRRNTExA8cagf9+tyf+Ss9hsNpQN87f5dJDeapvDWug5+AG+Di44lXpmtHNxzJ756quv9HbR4Lzj5034rXVv0Dzx8zps6+3aR/ReX+XW1taLFy8cHl3XuCnmYfvtPODKsU75pQ13+CRXr17d29XDI2FPQwzd21tWb7cu8wAb2VtdeXDBKdHio6fkSBM2NzdDoYHqVmms7tpdn3/VMWoz/QDHiVevXo1cGbLVcT5k3VuE3kzuGPfJ3o49YHwPuCv2Xudt94TmActp9K1yKHoTiUSBQCByV0UKm5ub8/NzzcEPO1PWIrm2xrifW2ikLe+9ANHb48ePdzn8/sJ/33s933hBqMIejycUCkUq/8az/oUHvH79+ttvv4XWnH755ZfPnj377TWvh2/+t99+OwG6wWu12hs3biwvL3/Itd3bLh6Pd+vWrb37f6U9r1+/DgT/M9Db119/bfgA6O2AKQSgt+odeqt4a3o74Mqx3vql9Oaskcakt8v70FusOmwj0QHT8wFnvdtbAL3pCNFTcvQX53dNb99++211dXVHV9sHTm96BxfSvZlcAL2FF53NQ+UOP8fbKhqYs73bsB5w1lvdXZAfHnS1d6Q3mUxWUwO4r+7aNjc3FxcXGgOHpDfmwzvMmPnXoZ3guwcdcMC5B7y1AtAbEHNlV+V3/fvy5cs7d26D66DXrl9fWV29dh1IiHlteXkJlMWlxfnFxbnFxbmFhdm52alZUKanJyYnr0xOXpmYGB0buwzK8OhIeOTyYCjUU1KS39ISGBrqGxrqHxjo6u/v6O/v6Ott7+lugaSzs6GjPdjZ2dDeHmxproWkqdHX0OBtaPAGA5X+enc9KLU1Dl+1raszRszkXQ157/9ubGyMjY25XK6urq6BgYEHDx584HgBGHrs9rq6OrFYXF1dXVlZecCa/PfeXW97we+++668vFwoFBIIBB6PNzc394F3b6SB33333Y8//sjj8W7evPn06dPfJtbGh0lvw0vbRhPAFnY43dvvgN5G30xv0Q0/YMY6xFsfEL0doraAf/pbTcP7XfON9Ob9wHRvuxoerXuDftu/fv0aWpX8/PlzuVyOQMGsPtaHrHvbRW+DCw5BOQJOSIbhk7Uu8sCcrW1E1ztlCS86O8eMLUPaninLwJy9ZVjbOWYcmLX1AMtFrZ1jxsZBTbBf1Taq77hiGJx3tI/ouydMLcPa2i5Z75QlNGf39yoCfcqBOXttl6y6Tdw5ZuydsnhbRcF+Vc+kufWyrmfS3HZZ1zSo6Z+x+XsVnePG+h65vY7dOWYMLzpBepNEg/6hdG9yudzn80We2pHCNr35D0lvjAMY69d765D09vjxI4kIYdLnWox5NnOe3QKIw5rnsm+L25HncQJS4QIygEFSXZnvq8qDpLY6r7Y6r646r74m31+b76/J81VmBOvyG+oLGuoLmgIFLQ2QFLY3F7Y3F7U3F3W2FnW1FUPS21kMSX9XyUAPIKHe0nD/tgyHYF3thTotPtL5v1lhfX2dRqPhcDgsFisWi7/++usPHC82NzcXFhYKCgpOnz6NQqFWV1c/5ApD7gc5OTkfffRRIBD47U3873YjbW5utrS0/DNAGoPBaG1tNRgMv01Ssg+T3qLn5sPTm94mCv2rLafRNd9V7rhirPR6ti2nFXrIctpxxaB2EMtdpOah8l3H/7J/fzm9SZaWlqJv5o2NjYcPH14eHXIHP1xv9DBoOd0v6MbgYMjbAjhjfbBSbmPcvn0b6nboUebY2Ww2m0Qi+dOf/6B1kT5kejM4eRsb63fv3jU5Ad0bQG+aMlstq65bhqFlKCy4MmIKhZ/XNW6CE5MLEHESA9pay0JT0zH0DHcDT2pAC8sRKhseTki+mPy5yoYnsHPqe+Qp2ScUVlwe/CKKks5TwgyVVDghpRAZ7wpyc+EXkOQ0qqDAWEUjcnJg+CSLj8HXlFU2C4XlCKog3x3kxaV+oXYQEaQUMi+XoywdmLWF5u16myQ6BtlvSW+H0asd5pi3o8BD0tujRw+qKtC3b1B/BY48TKPefMy1RYLTQY1+PO1X3tzc/P777yOBmnficX799OnXz549jQrJ+eVXXz75cluAJGM78ujxY0gePnr04MGDe21tLX/60x9Pnjw+Pj4KZiq79xDIV3b3/v07kNy7d3tHbt29e+vu3Zug3LpzZwOS27fXb9++cfv2jY2N62try2try9dXl6MVopubm5GFL1B8KGjtS/QKmO+jtkikyufPn0NrYqKjRn3zzTdtbW0nTpwYHh5+9uzZN988A8NYAktlIHkKbECHgBsUoPSrr7/+aqc3nnz5ZaQ3Hu/0xqOnT5/+GiD4+vXrxcXFlpaWf0lKNyieX+ReihjHowtQzNhdUb5u3rxJp9P//ve/p6amzs3N/fjjj5EFTFDor0jQr+i4X9HDGilHBhYa1ugbI1IxqADSW33TYPm7aT5+pVkk2t8lvOhUGphvDFXz9OnTd6O3d2v4O0z/XRMmd4Vza2vrxx9/dFYYO8eMQ0suV5BbiIznqeAYekbfjLU5XN56WRdedHaNm4L9qtZhXWje0TxU3jio6Z+1dY2b+mds7aOG5nB5bZcM0EyM6PpmrOACVX2gV1nVImoKlw8uOOu6ZJXNgp5JS12X3OnnBPqUfdNWdwPfUc/pGjf5exX9s7aaTmnDgLp9VF/TKfX3KBoG1GoHsbZTBo2pq066sLAQuVs2NzcvX74sEokam4KugPCtm7/ostWxWfISlqxEZsL2zexrQQsv/iK0Ci+6JFrcfvQWHgpXNUt+sxE/TC9F3+pDSy6tnRlxnHj16pXVasVgMH6/v76+PhgMGgyGTz/7u9ZFjvm9g2yUvg6Jr0PSPfGTV+XgAnALOfzsYL/qMFX6hccYXLyNjRt379417tAbS1aCIKUiSKkcRWkh6pJEj0rJOdEULkeSU3UeikBd5uuQKCy4lJyTagchJfckDJ/UccVQ3S4mcnJ7Js0l2ES2rPRi8ud8TRmJm9s9aUaSU2H4ZG+ryOFn4xhZmUVnUJQ0AjunoklAFxeeS/hUacMnZZ8oQMbjGJloWjqamp5dcp4tLz1x7i9FqEvFmISuCROke/s16O3N8PH+qOjtPmtlkVzj033//feRL3bMwrvS29tV5pd0wsoi0WmnxKz8rp2vXr1qb2806GlWC81modosVKuFYjWTrGaSzUK2mAhWE95qwltMOIsRA4nZiDIbkaAgTEa4yVgGvBpKzUZAjPpiJu0sn3vJqC806QtM+nyLsdCozzPqcox6UHRZRl2mUZ9p0GUYtOkGHSjaVIM2ZUcSDVpAjLpEsyHJbEgi4k9tbKxHav7tt9/W1la5XAaXS7ctznKXUwOIS+N0KHdE7nQA4rDL7Daxww6J0GEXOOwCu41vt3IhsVpYeh3ZamHZLCyrhWGzMqwWutUM9AbQIWYy1CFWMym6Q8xgh5iN6OgOMQO9UWbUwwwGSbQRFjIQQMgCRU6HeCUSEj0S7x5CzG93tugUKBA/fv3112AsUuDl8ePH93c2KIzkTXBxdWRB9fLy8hK4LS4uzoLbzMzM5OTkOLhduXJleHh4ZGTk9u3bMVnzwYMH4XA4FAr19/f39vb09vb09PR0dnV2dnZ0dna0t7e1tLaA0tzY1NDQGAQjkfrr/XWg1NbUVvtqvL4ar7e6ksdn/4//+d9z87KdLrvL7QDF7nRZIbE7LQ5Q7E6TzWEExWCx63dEZ7ZpITFZNUarGhCLymhReioc+9HP5uZmQ6O/aXBfxU/vtNVczZCZsLZaVvRjvW/aqq+giPWojisAhfx6AtCb/s309uzZs4PpLbzgHJiz98/ads184UVnz6S5d9ry6zUBunL3hNntcUD05tqhNyC6qRI+MGcvxSZqPZRSXFIpNinYp6Lw8vLL4gqR8fXdcgwtI6f0vLmaQRMWKCw4lqyELS85eubPXCWMJS221bKyis+xZSWJGcfwzCw4IcXTyM+DXcTSM/mashJMIkNSVICIc/g5FH5+fllcuZNE4ua2XdZh6BkCTVm5k5ScdYIqLCByclnyEjghGVIKuuqk8wvzjx8/XltbWwbC+V9dXFxks9nnzp8xe5lv21fhBSeemS3SIg0V1BJsYuuwtqJJYPExB2Zt/l5l77TV2yrunjBVNAnUdgIElN2TZk+jIDS3axnKG+60/ejtxYsXL1++hOhtaMnVB9rm+masb9uQX/v4XfRWXl7udruhH37Pnz/n8XhMFs3qY++6h6FaheYdOGZWKTYxs/CMtZY1uODoHDP2z9qawhokOZUmKqhqFobmARtlz6S5f8baMKBuGdYOLgA/FWo7gR8DoXl7c7jc36sIzTvaRvShOXvzUHnHFUPPpLnjiqH1sq5/xmqtYTYNag7oB4OLt/5zemPLSsjcXFeQ2zSoAe5VeQlNVFjdJqbw8+z1bJ4KThcVUvh5mUVnlRZcQsbRYkxi24i+vkdO4ef1z9gyCs+UEVPQ1HSeGo5jZnZPmODElDJisqeRb/TSiJzcUlxSuYtcjEnA0jMlBnQhMl5tJyBIqSIdkirIz4NfyCo+x1PCRTrAgFvRxLf4GANgwDzD2+reXr58qVAovF5vZKKNFKB8XsH6Q1pODwM6hznmLXVvS+Qan/aN9Pb48cOqCuyHrHtbXSLarcRI5x9QePnyZcBvCveXrSwSV5YAWV0irl4lXr9KXFsmXb9KvL5Mur5MWouWa6QbO7K+SoZkY5W8sUqB5OZ1SkRurVFurVF3Xqm31qi3b/wkd9apd9Zpd9Zpdzfodzdoe+XeTdq9mzRfZc7a2mqkFY8ePTQbYHNT+PkdWZjGQ7I4Q1jYkcVZwlK0zBGW5gjLC8Sr8wRIlucJ27JAuBYRoB9I1xaJ0R0C9ENE9nRIpDduXCOtrwAdsrpENBkokGVzY2NdKECrlWi1EqVWInekTKWEq5RwjQquUpYAoihRKYp2pFCpyN8Wea5KkaeU5yrkOUp5FiCyLKUsQwGKSp6hVWeCkqXXZhn12UZ9ttmQbTPn2i2AuOx5bgcgle6C6spCSGq8RXW+ojpfcX1NcYO/xOPMr6u1R7NmpKs7u9tkeqK9lueo5bv8QkDqBe6A0NMg9jSIKxrFVc2Sqmapt0Va3Srztcl97fKadnltp6KuS1nXpfR3qwI9akB61cE+dU2H1N+jbAppm8M6SFrCum0Z0rUM6bdlWN8CSuuwHpK2YSjwrKHtMigjhjZQ2kcNaiPnwYMHkQpHFyB6a96f3gJ9SjghRViOKEYnDC252kb0tZ2yvmmr2k7EM7ONVbTeKUvToKayRdgzaQn0KZ0B4Bkdmnd4W8X2enbToKbjisFexwn2q7rGTa2Xdd2T5oaQ2t+rGJx3VLcBc7a3TWysokWvwYxWSLyR3r777ruvvvrqYHoLLzqlRkwBIj4191RVC2D4g3Q8fTM2jgIGeuSQhpZcoXkHNC+ChhWAGwYXnH3T1v4ZW3jRNTBn75sG5vuBWTvwCsZLC4ER7/pmrOFFZ8eooX9/rVL3hGkvvTnqOZfSjyJJqXRRIZyQTObnF2MStG4ykpJW0ylFktMaQxq+uiw55wRfDc8qPptZdLZhQN09YUKQUnomzXx1GZqaUYS6xFHA4PjkthG9QFOGpKSqrPiWYS2alp5Ter6MmJILu+D0c4ic3AtJnws0ZWl5p4sxiUlZx4XlCAQpNafkPF1cmJB5vAiTkF92seOKAVAK1kmnZ6bz8vJgMBh9Z0tLS/sf//O/a12UAybvmG+FF5xkXl5Nh7Rr3IRnZmtdZAw9kyYskJuxVEG+xcc8e+kTYxWtFJck0iJlJiyOkcWSlcgtuLdVxe1Hb/39/Q6Ho7Ors6pFMrjgxLGyckovlGATq1pE4UVgiIFxXwSormfKAozpPIA+0BwPDPSsrXvS3DaibwO9qXomzYMLjq5xU98M4KHVMqQFY+faGwfVoPOWvTGkbgypB2ZtvVOW+h4F4JI1bemZNPfNWLvHTW0j+gEAjLQDc/aGkNrXIRmYA+4oSPd28+ZN6Bv66tUriN6gf58/f97b2zsQ6rXWxF5zGpq3UwX5vg6JSIu0+BgKC7YEk4CmpusrqElZxwuR8ToPBTQ4JqOp6Vo3OTX3VAEizuSlKyy4tPxTmUVn7HXsUlwSnJBc7iIR2DkQ4svNWEsNE4ZLogryGeJCuqgQQUyJ/rbuGnGA3tZv3Lt31+gEvmiDC06FBecMADHqQnN2gaYMQ8tAUdOpgoJL6UdyYRcSMo6y5SUoSlp2yTmTlyY1ohUWnL6C0hBSS42Y0LwdS880g5WUmTBp+adLsIlyM7ayRViKSyzGJAT6lEhyagkmgaMoheytpbgkV5BrqKQG+pSGKhpPCbfXse11bG+rSKApKyOmWHzMwQXI7038drq3ly9fajSaioqK6GcoVN7c3FxeXj40vb0ddf0SNVX0uStvQ2+3fhXL6ftpOEhvhL2jsHfPy5cvGxst0+OY6H740Mq13ty16z+jN7ejbJ9Kvn+m3+eDDhqp2zeoFhMVorerVxcq3TlX5/DXFvAri4SVJUAgPgYRmRiBv/UVMgjBwOvNNQokt29QQcYFXiN0e/8WfU+t3r3hMxO4hqA1Nr31tPraP+gQoAaH4GB6O0D3Vtctp4uLWoa0KEp6y5AWz8rC0DLkJgyGllGMSURT030dErq4kMDOBmZiYQGGnommZQT7VaVY4F2WrISjKCXz8zH0DH0FVW7GVrcBx+NZWd5WUXzaEa2bjGVkUvj5UiNm1zQA/QvRW8z4q9BXdWNjQ6lUXrt27QDd2+CCk6uEWXwMhqTIFeDVdcuJnFyRDlXVIirFJVEE+b52SXWrGM/KFpQj6nvkMHwylpFZ3S52+DklmAQcI6u+W04V5GPomTWdUrkZ2z1hUjuIugqKu4Gnr6CC8yUTdOjJH1yIrS7qmbS43PafdG+gztIV4CLJabVdsq5xE5qaIdIipQaMO8grwSYGB1RwfLLSgiNxc8uIKRwFrBAVD8Mn2+vZvVMWFCWtb9rCkhUnZh6T6FE8FTyn9Ly3VUTk5HBVMKqwwBng4plZxegEnYcCJyTjWdkUfh6ckMxTwZHkNFeQByMkM6XFcalfyE1YvgqOIKfKLTixHgURqqtOOjU1lZubOzk5CRni79+/T6FQ6AyqvZYXc6QO2BledFKF+b4OadeEicDOYUqL9RVUqEtRlLRSbGJOyQWWtFikQwKW4nB5cvaJS2lH38HSF150ibVYaEp+/fo1pLb//vvvHz58yGAwMFiMpwHANQInu6JJoLDiRFpkuZOEpqbrPJTWYR2WkQXDJXka+PpKKpKSJihHuIJcs48hM2HUTiIMn5RdfE7roYh0SF+7pAh1yVzNQJBSykgpJi9dX0FFU9MJ7GxPI78UlwgnJOsrqAorHk1LpwkLjJU0YxXN2ypW2wkUfp63TZyWf9oVBEYfy8g0VtGg20bnZN24cQO6sXfRG7RzYvKKtTq27m1g1kbm5fl7lWI9qtxFwjGzgv0qqrCAKihAU9NdQS6GllHRKOAoStPzTwvKyzKLzpZgEjROktKK17nJGFo6kZOTU3oeSU7FMbNSck5iGZnnkz7lq8uogvz0gtMoanpKzgk0NT0567i/R7HfcBvdvLW16/fv3zfat9ecQto7aP1pz6S5slnQEFIxpcUaJ7GyWYAgpTaG1DWd0qZBTe+UpXvC1Ddt7Ro3hebs3ZNm0IsAwOieKYvTz+EqYU2DmoE5QIPePgIuaAAxGvjhBAagbh/V90yaQ+Avq8EFB0TeYBYK+yAQYNwOkjcQ0zs07zDYxNERZN/s9wYNyeHp7f4tQOOyukS8sUKKNSEdNEHumb3ew8Hvl97u3aRfv0pcmsMtzuJuXCP9GhXe75qrV4l26++L3g6CD4Defq5725/e3sNtsF+vHn5/NL0tLy8E64vu3dzLW1BVD2r44T/xlxz5L6K3X+p7Dj1hDXbB3hCgL1++nJ2d/frrrxsag42hfU0hvnYJW17SOqxDktNstSyeCt4yrC1GJyDJaRVNQq4KrnNTtE4ShpaJpqZj6ZkIcmoR+lI9gEc5zgCXws9Pzj5BYGcXIi9xFKUJGceK0AloakYJJoEmLMgqPkfi5qXmnkKQUjH0zMiag5/r3lxKAxOKv/rixYsnT548Ar1HHzx4AGVZvXPnjt1uRyKRXDE+coWdqWW7AwcXHBxFaXWbWFiOsFQzyLxck5eOpmUwpcWFqHglMMVmuII8jYNYgkkod5FKsIlkXp7UiFHZCDIThsDO4amYhFiGAAAgAElEQVThMHwyX1NG5uUVoxPM1Qw4IZktL2FKiwsQ8WXElPyyOJkJUO/5e2NPbH0zQC5OiN7clSZIxVXTIVVa8VBtfR3SEmxSGTGFp4Kfvvh3OCH57KVPeEpYGeidrfNQAPZtl4h0qN5pi9SIHpi1GSoBIK7pkBi9tMzCs3BCslCL6J4w00SFAFi3A2oYNCWdq4R528QEdjY0KCYvvWfKYvYxHPUci48Z7Ff52iWVzUKasEBfQYVi5rnrpRMTE3l5eVDOezBYWigYDF4eGXLWC3a69w12zMhh4UUnTVgA6N5AehPpkAJNmclLZ8tLUnJOIIipLGmx3IzFMTLdQZ6hglpGSCFyclR2QkwTYeSyMQtiLfbJl0/+8Y9/KJVKEolE3dnS09P/23/7/yzVzPCCE0PP5KngRE6OUIssQl2SGjGleADaiJxcnhqu91BsdSy1nVCAjBeWIzIKTuMYmZ3jRpOXzpIWN4bUGHoGVZB/5PSfZUYMV1Fa0QQgCJ6Z5e9RcJUwjqK0CH0Jx8gSgvAnMaByYOc5ClgJNpHEzeUoSgsQcXhmVlL2CRI3twSbyJAUEzg5kBnX4Gavra1F6E2r1TqdgK9kZJucHt+P3jrHjChKmr8PqIPCgsOxsgL9SoakiKMoZYiLqtslaGo6jpnFlBUXoxOE5QgYLokhLuIqYWx5qa2WhaFl0MWFRE6O1kW21bELkfH6Cmp28Tm+piwh/ShPCSdxc0vxSWYvQ20n9kyaY3b+0JLLBNLbgwcPjA6A3iKpt6LLkKIa0FgvOAETLajz3jvWP38OODvHDA0D7811D6A3+1vS29vq3u7dpLU05lJJn/HYxxdmsL9kBjrkufdv0SFMvH+Lfu8mbRcygvRWfkjL6Rt1b2vXSFLRKRb9CJ3yhUkfdy+GvuStUSNS/4Pbu3qVaLMcas3p70L3Vledu7r6U2z0R48euRzwg3vgX/vunXWqyUiGdG/Ly4uBugPo7a3vgffetNlJXDBgjql76+ppq277oEOAGhyCvSFAf/zxx+rqaqvVWltXcwC9OfwcvqasfVSPIKVZa1k8dVn7iL4EmwjoqzqkfE0ZU1KEoWWIdCg8K4vMzxPrUWhKutPPxbMA9QaFnwdYZ6roGgex3ElCUdPFejSelZ1ZdBbHyCKws9nyUgI72x3kmX2MvY9v6ImvNAL09uzZM4fDgcFgkEgkKmpDo9FFRUX/9m//lpx1ej96G5i108WF/l6FWIfSeSgEVnb7qF5qxCDJaRI9um1EX0ZIkRkxeFZWRuEZpRWfknOyFJckM2HlFpy5mk4VFBDY2VnF51iyknI3OaPwLKCHyD3JUZRml56nCguQlLTU3FMcRSlPBW8b0cWc2PpnbFYbQG8vX750VwKORIBdad4RbWztuGLoHDNafAyNg9g5Zix3kW21rO4JE6BOmAcUCYABF7TbhuYBW9t2mrJFZ/ekGc/Kar2sg1Q4g+DB0MQZMQdDOS4jVuOhPesDovsfoLfJifz8/Pn5eQgdfvjhh5cvX05Mjr0TvbnKXaTGQQ1ocyfU98ipwgICO6e2S8ZXw6uahdZaVqBPyVXC8CxAd2WsojUNalQ2QnTnxOzVvTshenv69Ok/F553dHQsLy+vrKxcvXqVyWSeO3/O6eeHF50oShqOmaVzU2o6pMnZgNsfRwFzN/DZshLQbEclcnJJnNz8sos8FfzI6T9ReHmheYcryOWr4a3D2lzY+WL0pVzYBZkJIzNh/D2KUmwigZXdMqwV61FMaXER6hJdVMgQFyHJqTwVrAgVz1XCChBxOCZgET6f+CmSDPxcIXJzcMxMQyXVVseCbt1oenv9+rXBYLBarRF029ra2o/ewosulZ3wydE/FKMvnU/8FEZIFutQhahLZcSU6nYxipKeX3ZRYcEC6waQ8QXIeJWNkF18rhSfKNCUUfj5TeFyngpe3SZCkFLghGSHnyPQlHWOGXgquKGSxhAXeVtFOg/F5KUjSKk0UWH/7L4ug3vpbe8Yvdue6Ght73aF6LPehd5evXql1Wo9HmDp+N5tZWUlUAuLnnuW5/FM+pGZCUxzMMfrSa3zpZt0cSZ93PgIciQMH+gpbm/OGx2CG3Vxdb6MhRmsw5po1MdNj6GagzkL01ivJ/XGNdLqEsGsj6eRv6jypLU05kpEpyucyQM9xQLuCbnk7Mgg3OtJ5XFOBGoz66oz+JwTYsGp0TC8ypPKoB6pcCZHQ9X1q5Qan/qNaQefPHlcVYG/tfaGNacriwQh78TCDHb8MkLAPdHSkGvSx5kN8SuLhNamPKXsbGtj/tU5nFEXp5SeGRqAKWVnry+TFqaxKvm5kUG4XHJarTjX3pzHoB3BYz5pqM+SS85wWcdtpoR7N2nR3bg3Nt7aMslqxu4dgug9L168eP78+atXr5qabFNjv6nldG+Fo5uztxyozbt27afY6F999aXDBtDb215n75V/pT13N2gmIxGit9XVq/7abXp7XxV+X9eBmj8/hQ/4TTHprbu3473Q2/taCrf3Olort7e3NxQK9YFbL7iworOzs6mpKT09/fyFcw396ujnWqTcPWFOyzuVVXwOhk8+deFvhkoqgZ0NwycbKmmuABeGBxxoqlqEWAbgLM9TwzkKWF7ZRTwzS2rE6D2UpnC5voJq9NJguCSasKC6XWyrYzeG1HoPlauABfqUZh/D36vgqeAl2MTKln1XMioMjKdPn66vrxcUFKyvr+8sVtn++80331RVVRGJRLGSth+9eVtFkJtXITKeJStmiAGFRCkuyRngomkZbHkJiZvLEBcxpcU5pRdUdkJ+WRyWkcWWlxDY2XXdMmgOAwyjgnytiwx4/Y/o2fISiQGdWXi2rktGFxeKtEgCOxtBSu3eRy2xl972jhTU86CJBzC/gk51se2wkTGCkg5BBqYo/PqlWltXvXRycqKgoGBubi76kTgxOeao50d/+iHLUAra8KIrvOAcXnJDKdV3FDNATNcIa0KFyOsB14/ZgWIt5smXT54+fVpYWLi6CjiTbG5ujo2NCYXC1rbWyiYgdTpTWlzXBXg7dE+YiJwchriIJSvGMbOyi88VIOLQtAwsI5MmKsxHxKmseKkRTeHnVbUIva0ipQXXPqpPzT3pDHBJ3DyJHp2WfxpFSVNa8SobHsvIQlPTnQFuMfpSKS5JoAFsjmhqeikuUe+hGKtotZ2ycicJBjpmycxYX7sESU6DE5Kttdsh3IxRurfNzU2j0Wiz2aL7f2pmwlrNHlraPb7hRRdfVQatKa7plJIB3LQDnnmgpybgbwf66g3MAQ58fTNWwIYIZjSG3DfB+GeA0+fArL1vxgqNDhQUDfIChNA/vOjsn7UN7riHxhwak4d/fW31wYMHJsdPwVlijlTM0w/eObzkDgG/YZyDC0BtoQJUHzDzsn371wuwRMkGLVHab4EzRG+PHz+OdO+hLKd6vd7hABYf7do2NzdXV1f9P6e3yStIpezMnXXa7RvUmXE0l3XMV5mGRvzdX5PptCZiUX9n0I6Uq877KtM8zuQab5pSdtZhTXRYEtmMY0LeSV9l2m3w3L6uIiLu087WfBH/ZHtzPpd1zO1IEvEAUKuuTGtpyHHZkhjUIwrJGYshvr4mw2KMb2nIqXSlYFEfr6+SI1P46hK5dn9629zcfPToEWjgeOytxN9ao0ROjFlYWSSIBSdXl4izk2gB96SAe8JmumTUxVmM8Vz2ic5WoJ420yWzPi5Ymxmsy7oU9+9tTXkW46Xiwj+rFecq3SleT6rFEO+2J6kV5y4PwnDoj8N9JWzG0aXZGHrK6Bn9MPR27do1s9n89OnT5ib71JV96e3WGtWgjdMoztd402/foELKv/u36Ffn8VbjJYM2bmEaG1FnRt4FC4yIajNywIPbzJ8fA9gToYNj9iG0cw+9feWwAvR2/xZ9aRY3HIKPj5TdWd+tST3ggu/2FlTz6HMj7YpqFKBL+zm9Lftri+7fAvZHHbafIfUtVHHRIx5dq7ctz+1Pbz19v5Te3tejLfrBF31NlZGp0+kuXryIQCAU4KZSqTQajUqlunjx4v/5j/8d7FNGnxspd4wa4ISU+h5FfbecrwZMXZ1jxmC/CniCLwD+Se2jhvCCs33UAEXdBMJpDgEr2vqmrZDKZwA8sn3U0DttATyF5+ygv7CjfxaIGQGktwfCZjp6pw5a8gnp3tbX14uKiqKfttDzc2Njg8fjzc7O6q3i0Px2ntOdJmxPckItEk3NkJuxECnWdcvVDgKg8JizVzYJNE5iQ0gd7FfpAJMZuymsMVbRTF5644Da1w54lDeGNF3jpsoWodnH6BgzNPSrBubsTYOa1ss6YKUeWO6eMDsDXF/HvlpYkN5M27q3KnPHKKB7iySC3KnwYW2RvdPWiKt7rOvsnt3f9vou0HK6l94mJ8ffjd72VjL6Fn3b6kUfv+s6onLMkyePIXq7fv06dJPcv38fCFY3chlK0goGdAVuufCis2FAZaqi+9rFRehLajtBacUXIS/5exWWGmZtl6ztsq5tRN8KvvZMmttBM1+gT9k/a2se0qodRL4aiCsGrUjwtooaQur+GVt9j7y2S9Y9YW4fNfg6JK2Xgfi00ErP7glT+yiwaqF7AnDPah81NAyoI786TBWclZUVqM6vX7+OSW9mb+xovdByFmBF7Yw10KeMQvnD3lTRvfrOZZOHt7p67eHDh8Yoett1NSC0h6hQZSP0TJotPiZDXBToU9R1yajCAqOXVt0urmoV2upYjSHgV2XvlIXIySkjplQ2C90NvDJiitpOqGwWVrYIG0NqQyVVacV3T5rVdoK1hultA/wa/b0KYxVNrEd7W0VyM27XNwWqzOACYDl99OhRBMMORW8Gg2EXUEO/D16/fr2ysuKv+dma08krSIno1K01ytoyKdxfKhOdXpjG8jknar3pBNynOMwnMvFpmfj00izu5nWK15Pir80cDcPVynMlRX8+e+b/X5rFQdPntUWCXHpmZBCmkJ65tkhQyc+a9fE49Mc0yhduRxKLflTAPU7Cf6pWnGsMZIf7SjTKczTy50rZWQTsr2vLxMhsdzC9vX79ugrc7ty5fUh6E/FPriwSZifRPPZxmfjM5UFYqLeEiP9UIT1zZ50qEZ7ic473tBfcWqNcGYJTSZ9TiJ8xqEcE3BN8zonhgdLhgVKd+kJLQ06FK3l+GsNjH19bJsrEp6euICN1jlmIpjcoOtr3338PBTmDXr/77rsnT55wuVydThfwmw6gt5UlAg79cW11BptxdHWJeHkQ1taUe20B77AmCrgn2pvzbqyQ+ruL/TWZy/P4no5CX2VqqLf41holUJdZ4UoeGiidm0R7nMk9HYXTY6jpcdT8NOZyqHSwr+TaAr6+JmNpFtvoz7ZbEmYn0THb8uA2I1Cbt7z8U3TNr77aprfbQB+e5rKPU4if1fkybt2gzE9hb1wj3btJvzqHnx5Hra+Qb61RpsZQV+eAWwhaH3B1DndluGxkEDY/hVmaxd2+QZ2bxKwuESevIIf6S29cI93doA/2loxdRtxao4T7S3u7iq4t4K9fJXa1FYwNl60uEZdmcWvLpLlJ9PQ4cm2ZNNRfev0q0DNNgZxrCwTIm9NkIGzr3lZ+0r01+rOtpkvBuqz1Qzt63r/F2BHA6L+fRKNhdHm/4+/dpN+7ue1FANHby5cvI1/1SOGX09uuR9t7/9foFN66dYtOp3d2dkaqDUXwolAoBoO+YSC239sg6EIO1ad7wtxzIGO992pHLqg0ML766iuI3qK9jKG2PH/+/NmzZ99++63eKgntrN3bOXcbYtwNvIYBYCYYmLObvPR3sMftXPDdJ8LBBafBpIPozeO1to/q3/magwtOmQlj8TEhVVb3BBAHrm/G1nHF0HHFAJEBFE/unT/CE5COjY3tpbfpmSl77bvo3t65Jm95olukxTx+vJveoFvlypUrFQ2xQw2HF5w1nVJIf1PXLQ8vALrAgwWihMA+v3wOPne/d82V3OXlZai2EL1ZLJbId3Zra2tmdmo/etvvmr/xflMFb2Xl2qNHjwzgqoWYn07i5rIVpTmlF5RWHIqapnWTFVYcipLGVQH2ZWMVDXCEpWW0g94FLcNaJDmVIS5UOwA+U9sJOaXnuUoYTVigtOIpvPxCZLzFx8xHxAk0ZWgasJzW7GPw1HCFBZeYedzhj71EF6A3h+it6W0vUG9tbb169SocDk9MTOyit9WrRAb1SLAuy6SLc9kS5ZIzC9MYAfdEdWVa4qX/Ve9L16kvqBXnKlzJFmN8rTdNxD9h0F70OJOlolMVzhSl7Oz6CqA5W1kkqJXn5qcxcskZg/Yig/pFjTedTvmCxz6uL79Iwn8mk5wh4T+VS85gUX/nc45XV6SSiZ9JxadBevtpPcEqsOYUsJxC6S+fgtvXX3/9dCdU6/LyMgaDqaz0VHpwh9O9nVpZJMxPY/ic4wLeSbnkjEx8usqTwmUdq65I5TCP1VSlSYWndJoLNVVpKtlZBvWoTHxGLjnjdiQJeSeE/JOtjbkdrflV7pT5KUxRwZ+UsrN06pGNKH1hTOIB6Q0DfTE2Nzf7+vrweDyZTKaAG4lEwoFbenr6f/zHf8hkxIPoDbD/npyfwsjEp0fDcBb9iEJ6xm5JwGM/4bGPc5jH+ruLtOrzGuU5iyGexz4OkDHli+lxFAH3qU5zQSE9KxWdNhviSfjPvJ5UX1V6UzBHpzmvkp2t82Vcivv3QG0mj33cqI23mRJitgWgt7rY9HZnnSrin7wyXDbQXSwRna5ypzBpR9Xyc8sLeDbjaBnsr/6azEZ/NotxlM853taUV12RajFeqq/JYDOPlhZ/1OjP0ijPDfQUlxZ95K/JQJX9TcQ/aTXGNwdzeOzjXNaxtqY8MuEzPveETnMhWJ8lk5xm0Y8G67Iq3SmDvSV2S6JRF9fRkpea/L8b/VkC7gmoE27fABaHGmPRG4N6xGlNFIPDenUON9hXsrFKubNO6+8u7u0sun6VuDyP72zLn5/GzE9hri8Tp8dRY5cRwbqsel/G5Chy7DJibZk00FM8NYZsDuYE6zKvLxPnpzBV7pRwX+nSHM5hSah0pyzP40fCMLM+PtxXMtQPUPLUFdTlQVhvZ9HyAr6uOuPaAr7ClWzSxy3P4x/cZsxN4f31hv3o7TDpdwCrBBB6wB7zh2DMZ9xe+8g+h71hmjG6hBsbG7vo7cWLF/X19UtLS01NjUGQbN7t4m911i41yX7nRnsrDy25lEb6l19+ubGxUVRUtJfeoK/wd999p7ftS2+gkWW7lw4zMe9XsXfeP3zVHV7cprdXr155vLaY9Lar4ft9nNFLP5/0WWreKV+7xF7HRlHSmNJinZuSXQLEB3EFeWXEVAQxtWZ/ReB+V47s9wRk70xv4UUXQJOgdhAIuTJjHYBUrfOO3mnAKgdFXINic0DOfIBX36wdhCfAEbB7wgyFJh6YtXdPAMsP+2dtnWPGHiDD0sF3+za9PXv2rKCgALKcQnfI1tbWlStXPA37GugjbQcKb/iUnXsJNN797MQd5nu3Wz2a3jY3Ny0Wi9FojNT/AHoLAyEwgEAnkDExsg4gNA8YEyFLKGiIByJlQMbHyHpMyCoKnQJ6UgLHQys0wdEBHlyDCw5gQGdtYTCGTmQc97b9MPRG5uUVoS6l5Z0SaMr46rKBOXuwX5WefxpOSC7FJ9d0SrNLzlGFBVBzggNqCj9fbsYqLDimtBjHyMooOMNRlCZmHsuDX8Qzs9PyTyPIqXEpX4D0loEkA5F7eWq40Us7euaj/fD6Hektpu7t1atXTqeTSCRWevKjZ+j7t+jjlxEaxTmXPWllkRDqLV5fIfV1FU2MIDpb88FJCL4wjXVaEzta8m9cI7UEc2qq0q9fJY4Nl62vkEK9xdBazts3qJOjyNvr1OUFfEN91vgI4toioaMlv6ejcG2ZODYMXG1mAu2wJrrsiUP9paC6BR3qLfknEkX7kF2/Sq6pVv7jH//4Z5glJBKZl5eH3dkw4IZCoY4cOXLhwnmruezm9TdYTm/foIZ6S26uUTdWyaHeErXinEF7sb4m4/YN6vQ4yuNInhhB3FmndrUVBOsyV5eIU2OohWns4gx2ehy9vkLubi/o7y6+u0FbWwYm9YUZrIh/sqM5b356XytnpG9vrJBNBkSE3tra2goLC+fn51fAbXV1dWNjY3193Ww2EwiE6mrd5Oi+11yYxkqEgPpTIjzV2phr1MfNTqJl4tNU0udTYyivJ8VbkWrQXuSxj7OZR8nEzxiULwjYTyZHEXzO8eEQjMM6Vlz4Z5n4NAH7idkQX1b6FwTsrxLhKTH/JIX0ORL+N7s5IT/njxzmMaM2LlL/XYVGf/7Cwk8eKs+ePbOYAAfKO+s0seCkiH+SzTxqM19CIf5mtyTCSj7q7yoSC055K1JrqtIuD8Ls5gRY8UcuexKs+CMm7cjaMnGwt0SvuXBng8bnnJCKTuXn/LHCmayQnllfIZEJn9HIX1xbwHe1FcjEp5Hwv3JZx5Wysz0dheWq80X5f3JYEstgf6UQP5cIT8klZ2jkz4sL/2TUxcFK/iIVnpIIT22sku/fouu12BcvXmxtbV2/fq2+ZtvvTcA9MRqGV7qTndZEDvOYRHhKozw3NlxWXPhnHOaT5oYcjzNZLjlDp35hMV7yVabx2MdDvSVc1nEU4u89HYVyyZkKV0pu9h9N+jgc5mON8rzDkiATn7aZL7Hox2q96XjMJxrlOZM+zleZChA25mND+YX25jyPM8WkjxMLTlW4kuMv/jvgV8A/KRGcqnKnPLjNmJ/G19fpYtJb30D3YdLveFtFGHoGiZuLpqV3XDEc8uG+9+H4DntMbuH6+jqDwejo6IieCSA3vubm5v10bwd/1l7TTMRdBnSg2Y6L2z9rAz1pAGVG7xRgPz34snvfhejt1q1bhYWFey2nUIsOpre91/zt94QXXZDu7QB6O0ytwotOJBlY4Ujm5eKYWXhWtrdNROHneRr5TEmRrZYlM2LVdiAWA5mft3eMDvMRQ0suT0A2Pj5WVFQ0PT0dfc8cRvfWOKhGU9MRpFSeCi43Y9HUdBI3NzigkhgxKGq63IxrHdahqRlQZDuRDtkwoJKZsCo7QeMgirRIIGoXMSUh/ajcjGVIiuD4JCh1UjoY68vfG9vKv9OubXr79ttvCwsLI1ZIqAkH6N52Tj8YDd/u3Xf4jkfT29bWls1m0+kAfW1k20/3pvNQaMICKKCG2k7gKEqBNKC9Sii5hcPPwTGyiOwcTyMfCPIsK6ntkjGlxURujtnHcPo5td0yrYvcHC7Xucm+dokrwC13kRQWnMSAbgypxTqUsYoO+gICC4fRNGB1ua0uduASk4e3srJ8sO6NJipky0tg+CSeGg6F1ZWbsWR+Hl8N56ng5moGjpmJoqQ1DKhC8w5hOTK94HQxGLuuBJvIU8Ezi86KtAiFFVfXJSXzctHU9PZRA56VJdajYHggXh1TUiTWoxiSIq4KBtHh3vF9R3ozGo0kEmlwcLB/Z+vt7e3u7q6rqztz5oxGeXHXxAyZmSAjTsTKs8v0s+td6LCIB9XeC0bcrXa9NdBTPDl6kM0RoDcfQG8vX75EIpG1tbV37969d+/egwcP7oPb+Ph4SUlJIOCv9BDeSG+R5oDrW+l11emzE+hdnlLRLQVru2/8iLVlUnMg+8467cHtfY+JtHd9hWwybtPb1tbW4OAggUDYtZb2zp07bDZ7eXm5pdk9sQ+93VmnVVemaZTnhwZKmbQjrU25UtGptqY8lfysSna2KZCtL79oMyfQKV84rAlc1jEW46jDksCkHamtTldIz1wZLhMLTrEYR32VaWZDvK8y1WFNrPWmadXnEfC/apTn5JIzgdpMLutYlSe1OZgTqf+uQlOgIJrevvnmG4txm94kwlO+qrRwX8nUGIqA/aTGm+60Jna3F8rEp6srU132RLXinM2cgMN87LInEXGf0ihfLM5gw/2l+vKLdzZoKMTfWPSjQt4JjyOZRT86MYqgkj7nc06E+0uBeqrOk4mfVbiSaWSA1Vz2RCz6Y7c9SSI45XEmK2Vn8ZhP8NhP1PJzla4UFuOovyaj0Z99Zx1YzqLXYn/8cTe9YVEfY1Afc1nHAnWZedl/BOCPcqSzJb9cdd5bkdrgz671pvM5J3Ky/qDTXEhP/T92S8K9m/SejiK7JeHqHI5K+pxM/IxJO2I1XfI4k8eGy2Ti03TKF4APoinBYozPyfwDmfCZy55o0sUxaUdys4HrIGB/zcr8g1ZzgUk7IuSdLC35SCo6hYD9lUE54vWkPrjNWPjF9GaooIK+zyIoRqijnqOyEeq75V3jJn0FReehdE+Ya7tkUgO6slnoDHArm4WhOYfOQ2ka1Dj8HI6i1N3AU9sJGHqmWIdy1AOhjziK0oPjnkPPLIjemExme3t7ZBqIFN6B3gbnHSYvncDKttawzNUMX4dEbsa2DGvhhJRSTKKhkqbzUJDkVI2T1DdtLcEk5MIueMDY+lDcsjdqv3apoCB6u337dmFhYbSlI9KEra2tg+mta8JU3SYGEk/N2Ws6pLVdso4rBqifm8Kaui5ZRZOgcVDdFC7vnjB1jhmbh7TuBr7Zx2gYUAV6FaDrm7oJTJvdPmLwNPLrexRd48bqNnFzuNziY1h8jC4wooTaQazplMYkVFD3poXMLL9E9wbSG6BsgyK34ZhZjSE1R1HqCvIEGoSnkS/SoSzVjPoeIGgLpOjaO3W9cQ+oe7uyl95mZqdtNW+I91bTKcWzsoA7hJ1D5ORIDGi+ukyoRaAo6d5WEZ6ZVdEkwLOyVTY8Tw0XapHlLhKWnqlxkhIzjxPZOUBSigYeiZfrDvIognx/rwJNzeCp4DBcUgEiztu2HYdinya4xTrMw0cPY9Lb2NiY522StIYXnZ5GvtKKdzfwO8eMOg9F56a0jei8raKeSUtli7C6Xdx6WWufM8YAACAASURBVAd5uYGZIey9UxZrDdPh5zQOakxeevfEvpE1oPrvutUtXl50etm99DY7N22uiuH3RuTkiHTIMmIKECuEmaVxEqmCfKoAUFnJTJiKJgGOkclVwnwdEqkRXYpLkhoxRegEhqQIz8riyEvN1QwsPcPXIcXSgeBzdHFhau5JLD0zB3YBBYb2xTIyXQEuhp4hNWIQ5FQKL4+ngsX8bWCu4C0vLz158kRv3XekvK0iqQGjshPaR/T2erbEgA70KQN9SqUVb6tj+XsV/l5FTae0fVTfN20txiQqLDipAY0gpTj8HJ0HCLLYOAgkiuiZAiKE+3sVA7P2QJ8SSAhWz65oErSN6FqGtIF+Zc+kuTGkjvl9BOlN+ODhT2HM3+z39vr168HBQQaDIZfLVTubWq0uLy+XSqV/+ctfFLJzh4GPXZP3L/j3zaATffEIvW1tbREIhO7u7uhn6ObmZmVlZUNDw8OHD7yVpDfSW/SV799i3N3YdjOK3v8rlQHdWxS9DQ8P4/H4XWtpv/zyy38mlX/58mVLy770NjeFgZV8xKB+weccz8/9v/6aDKvpkkR4qq+zaDQMh0yiM+Morfq8WnHWX5PhcSaLBafs5oSG+uxwf+nqEqGzNX84BFfKzlaAtDE+gpifxoR6iuuqM5bmcAPdxVfncA31WUZd3PgIYr/eOIDe9JoLkMPcrTWK3ZzAZR2XgAqwnKw/YJB/L4P9Rae5wGEeI+CARbv1voxKd0prY+7ECKKmKu0uoHs73t6cV1OVXutNz8v+I499rK46fWQIzmYeFQlOjoRhAu4JLvu405pY78sQ8U8KeSe72wo6W/JnJ9DAahh7Und7QVtj7tQYymVPkopOtzfn3d0AVgTH1L1xWcf7u4o2VsnT4ygi7tPWxtxab3qlO8VqumQzJ1R5UkiET+uqM8pK/6JVX5CJT/O5J9aWSb0dhQ5L4tU5XFLC/zLp45SyM0ZdHJd1vM6XoddcEHBPNAdzRHxA18ikH61ypwi4J7Dov9dUpcFL/mIov9DVmu+rAug5I+0/6nzpbMbR6opUhfSM254U7i95L/RmrKJJDei+GSuOmaW04jMKzoh1SDQ1XWbCknl5BHYO9NiVGNBCLRJDz8wuPh/oUx47+xeZCYskpWpd5DJCclWrKD3/tK2WxQGXSfJUcJEOtc809pOeAKI3FosVk95aW1uCfW8XRal1WIuhZbgCXJ2HQhUUlGAT+Sp475SlABGvsuGZ0mKTly7Ro3JhF1qGysuIKSxZiama7vBzVDZ8cvaJ/VZl7tcQtZnx6NGjg+ntH//4h972U8z6nUsBfm8Ds3a2vATLyCRxc/UVFAwtA4ZPVtsJKGp6cvYJex07veAMRVCApgGIAIVVM4CRruCEFI6ilMjObg6X89VwkRZJExVylbD4tCM0YaHCgsMyMhUWPJqajmdlq+3EPNhFurgQSU6NHYl+0WUwlm9ubr569aqi2t52OXZgkZ2a/zR8u/csumiiwvjUIwkZx2QmLF8NBK+H45NbhrVSA7qqRRToUxYggLi+xira7nN37Hpv3F8RlF25MrqX3mbnZmw1b/B7q+uSsWXFdd1yMi+PJiy013MMFVSaqBDPzOocM5J4uaZqBlNS5Axw+Gq4w8+B4QFlibWGderC3wjs7IE5e22nlCUrrmoRMcRFrUBSLyA8G5yQDCckuxsOZke3zIi7d+9uTHqbnJx0+Q9nOQU7anDBAeRoomUgSKlVLUIw6ke82kHAMbN8HRIUNYMtL7XWMgWaMmE5ooyQUtEkCParUJRUh59TgIgjcnKgwC5v7O3IATYfPzq97F56m5ufMVex9/7+oYuKvK1ihriQKSmSGjEtw1o8KxtOSA70KaGMEUAy+Bqmu4GPoqSn5Z/ma8oigXk5ilJjFRVDy6jtlKGpQFTti8mf49nZVGFBSs7J+NQjFU0CLD2zY9TAVcKAxGvIeBwziy0vjfnbwFzJu/omeou0942F0Jzd4edAcXe9raL3mNxscMGhdwijw5i/md4gr9UffvgByuEYeX3x4kVtbW1RUZHbsa9+5ecz92Go6zDHvMUKvge3GRHL6X709vTp0xcvXnz55ZO3pTeoddHauJjliEJxn3eh5ry54YDuzYCIZK6MSW9QgrlXr14dQG+zk2iLIR5y9m+oz+rtLLx9AzAEQz7vG9cBn637t+hQLqy7G0DOq1tr1DtgzitIYwoG1WNArmART3mwAJy4cwz9YLRtChTMz89GSBrSvUFddP0qEdJ13b9Fv3mdMjuBvjqHM+njutsL56YwUtHpacAejbm2gL95nbJxnXwLMGQD1d5Ypdy/Rb+xQgLrTLkcgunLL15bJNxZp96/zQAiSIOrH25cA9KFQQkPri+ToCbfWafdu0kHc3xR790EEnyB/0I9A7QLoDddxHK6Uu/btpxWuVOguIZ3N2hOayKTdsTjSC4t/giL/hgB+yuZ8JlRe1HIO6GSn21pzJkYRfhrMidGETPj6L7OohvXSA5r4twkur0lz+tJxaI+VsnPTV1BDYeAxTqBuqzZSbRGed6gvTgahjcFsg3lF6sr08L9pVfncNPjgN9bsC775nVKX1fRyiKh0Q94711bAPzeFqbxdXXamJbT/lBPVfNPa+P3ex6Ba6BQfTM2AjtHZSPQRIW9UxY0LYPCz3fUc9wNfDQ1nczL6540d0+YuUpYSs5Jngoel/IFXVTIU8J6pyxIclrPpAVLz2wZ0op1KEMl1RngchWw/T4xst/kEf4zgPt+9NbR0f4ma9Rukgj2q8j8/F4wJDqOlf35if9rrWF2T5rLSCmA1oQL2DJwzKz0/NOVTQKGuEiiR6kdBDwrmyEuTMo8HhtuosBil0JCY2E+fPjwYHp7/vy5wSbb41MI0FvbiB7LyOwaNzWHy4mcnLpuubWGydcgvK0iuqiwc8wIwyW1jeipoBM0kZOLoqYHepUoSjpAyYpSIBkALikp85hQiwTykOKScmEXSdzcC0mflbtIIh3SUsN0BrgsaXF6wZkSTCKKkh5T4wJaTrfprcrniElvuxoeGcFdhc4xI4Wfx1HC+qatvVMWb5u4MaSGErYCnkmLroYBdaBPuWcNx+5x3HXZ6H/3o7e5Q9Cbv1ch1CICfUqOvBTPyi5CJ8AJQIoIEjeXzMsjcXOx9Mzk7BNF6Es5pecbBzVJWcfdQX5ls1CkQ3IVMIef4+9VSA3o9lE9TViApqRzFKUaJykfHleCTfR1HPxdc8uM+PdFb/2zNjQNiIlD4OS4gjwcMzM+9QhPBU/IOJoLv5CWd4oiLMgsPHsp/ShXCYNahGNmlRGBJGan4z8W61AxtVPR/bxrxHfRm91u32U53Y/emNLi6jYxS1qithPQ1HS5BUsT5jPERTwVnKuEBftVcjPWXsfWgalNCpHxIi0STkhmyUrQ1HSGpAhBSknIOEbm56XmnlRYcPGp/4+99/Bq68rXhv+ce7/3Xet+77fuWu/MnbkzmSTOJM4ktuO4F2wwXQIhCXUJSQj13ntBnd4EAgkEovfei+m2E/dK7BjzzTkbZFl0l5Q7PutZYuuwzz67nbMf/favfKb30pjiNAzlks5NJXMS4W3W+KTMk6YiBtjEzBGkvBt727Qoiu6NmHTbOKQtCizTgX+QffszpoQ9vr4le4sssdGJly9flpaWNjc3e91v2Jy+ydgOx7Q+xLWzE0SvR/TkyZMd2VukRffu3XU7oZieh6rD2BC2rvpaZytiZZ7c1YpsDCTPTxNH+tGAc4wPY6fGcNNjuNEBTH9XJqA73e3I3o6MqVFcX1fm9Bju4LebnyFq1Yi92RtozsuXL6t9jt6OnfXeVuYpc5OQVQfgRvsaahy8hofKWV2RNDDQF+n/x48fGXTIXaIXQB5JpsdwIArt5Eg2vNe8/9SamyIMdKMOVau9M2s16LW1ZxsbG9evzxR5U4B65fJ1cqTaK/PkuUkofKrZcGp6HDc2iHHmn5udwC/MEKPILhTmNYr1blLe+tqk8qLLENGErVBXFyiwXSrEhiNqBsAZ9Y4/A6JP3lqmjQ1mFxXKd2RvzS0hZ+WuewSR1wckjtJkNW6xt6upx40FdCTuLEeRwRCl0fgpXEjkdklmwfPUKKY4jZAbf/LC55BwDt6qEOkwKNKFpiETlhbna1UyRWlpmDOE3HixARu5xW4JvZ0zNzdLp9NramoiMySSeAv2FujRoSmXGMLUPBmSLkjlq1GZRCgmNFOc7vXzsxlXUtCn8LnxZ698iaVdvpT4jwvxX0O0hnwRhF4I9Op2q+qO56PZ2w8//BCpeXRiD/ZW26XNIl+salUAApFfxpJZ8EIdprBOkMNPCfbqrqR86/XzMdTL9gp2YuZJFOmCvSIvi3JRYYMCuoMoQ6S8BI4y88tjf+KpURmE82T2NQZMTQRadI4AcljP12SloE/x1ag07Blfm3KHhkB6b1vsrcC6I3vb4aooUhv935IG8Z6BpPZfGqNL254G7C0lJaW/vz+6nw/C3kKDRl+bsnHQVNWiYIrTuapMdzW3adhc3a6yluZCZBreJzUW0DPw5+0Veano0w39hqYhU32fvqH/dZQk2B+bHgpj32+o7zeUh2U1Heodd8Gi6v+avaWkpETvQkKubg8je2sZsxYFRVfTjsss+MTMkyRoxFOTIL+7EKG3V+RlEM4zxel6DzVPhuQqMxMzvqNykhCw3pWxICcJdRJDvQw840RVbx8CHcPe8vPzZTLZ+vp6ZAh2Y28uH9ffoXb6ONXtSrWDzJYjy5ukVa0KviZL7SA3DplKQxJfm7KmQy02YmUWfEmDWO+hSs04by2/MCCUmiBXKTIz7hoCinxaUAdFpK2A4xE3DZuLgqKaDpWpiO6t5df36e0VebYyVm2XZkcu9X5lbwfvusPmhNib+fCyt8hIRCeA04qFhQWP6w1vvbuvf/uLlz7EDmw0e8Pj8YFAIEKAoptz//49txMStOxe/1i6cHOJqlOdJBM/IxP+1tmKkIm/BcphSumxno4MifAbj+N8eXFcTWUCtPmYd7QtnD45ks1jfxWsTeRzvhbx/zExjN263f6dszBD0qnTIw9GW1sbFot9+vRpdCtA+uXLlzXVjp5d2NvWHWOb8wHO79WomsrkN9nbY5i9veGy+FBVurlEnZv8sMHZ9DosYG/z87NF3tRo45joqt5cpi3OQlLAG4vUpTkoEf3f3dKQHBG2jdgtw6HOjw3twd4aD8LeSurFkCrbiMVUCOmKgZiYtrJcf6eGp0JxlZl13Vqvn58rSbeVsQoDwtJGiamIURgQ+tqULh+Xr84qrhe1jts8fn7joImnziSzr2mdbwR33+39BbO3udzc3MrKyu3T+y3YW+u4rbxJqnFSKsLyqlZFoFdX0iAuhN/4oQFjVauipEFiK2U5qzg4xlWDl2aFXftWhGXuah4Un34/w4UYgQRgb//Ur01OTt4e8gu0aA/21jxqhYJfoU+xJOlFASGKdCGLfLGyWV7ZLAfqhmevfoXEn2PLoRhTIEAWmnLpQsLRJNTJU5eOsGQIoIllK2exZIjqdpXaATnHr2pVaF0Uj5/PkkKq1tVtSq4qk8xONBbkbBMB2mCb0/3ZW0zDdxvQA5x/P+wtNTW1r+/1b8KNjY3hkaF99d6iq2crYwGvXdEnfW1K2BGgtbpNlV+eZyvdezN0H8YTXXLreL5Ql72yuvLkyZPU1FQQ5isy5/v7+w/urK551MqWI+NSvsXkxJ26/IXUlE3hJDJEqa4qjq00N9irNxczvZDemxLSe4Oj3/LVqIJavr0CkiPWdmpcPs7ejgwhb39v+t01F7Cj3SPb7XaZTBa9wo6MDumc9O1PEOQ7BjaAjfiw3UpALhUjNCs6TyQd3YElDeJ39DVjcOWNjY/eu3dPZdj/N230rbenYzpnewZw5i2sQ2Bnk9DO6Y2bNyLT40A7p5Hc2xOLi4sHZm+/AF3Y4RbR7I1IJNbW1kbPrUiL3oK93VikSoTfhBtSOKwvB7pRWtWJ9NQ/SkXfZiD+lJX531cv/6dR931q0h9Sk/+gkh9PTfoDHvuJXHKMTj0yN0XIQPxJIvwGaFMdcFWOYW8dHR1oNPr9srebS9Tl62QgJQKx1ZfmSCvzkGwJfAJfa8vXyWDjdfk6eX6aODcJOWM7YCsi2Woqk/v7eyP9//jxO7G3m0vUhRmiQXsSsCVgNwN9wnugoJ/hzdC3Z4e3lmk6LQYoGu7N3iJt/BUT787eol89Hj+Pr8mKPnPYtKmI7to9OEFMaXoHd25ujsVi7cze6mpL6ve24zvU8vk6c3jEUhwUAacDhXWCyBISU719v8qN9Js3bx6IvcGeKaIK3CQxLaPW2i4N2ElsGDAAB/StY5C74IYBI4YWBwQJRUEREn+uKCiUGLNrOzXNo1axEQtCWkWV+bqBhzrZMmZVa+Uv4cNdYNtZPreLpO1QN4IzvzN7Kxd2dLanpaXFsLeR0WGj9z2SrbfszN07JF9ixC8uLuzI3oaGhg7urK5lzGopYRbXi6FEMaPs/UXY3L3yNmsRN9rIF7C3iIhhY2NjbHxE52RsZ297lPkL/8vozhsbG7l///67s7eD1PztqBtgbxrr+2ZvXveusrd3cRz/LtdGr5rR7I1MJu+oB72xsQGzN0j4EX3t3unZSQKV9HlTfQqF+JnVdFohOaZWnFDKjnPzvmoMpjBoR/ItZ/MtZ4o8l0z6UwzakdLCyyT8pzjsJz0dGSjkn5k5X8xM4IG//ugb7dZwiL1pEJEHo7Oz872zt85WyPdbHhNSmUdl/Dkt+Y969Xd2y5mhviyT/lRFyRUi/lMq+fOqsqspSX/IRPypuiKeQvw0G/3XoD8RNGG3ykc3EKRrqpIHBt5gb0Z95m7SrO2Xx5y5sUi1Gk9/8/X/AxyeFXkv8dlHq8qu6jXfY9F/VStO1Ncl5zH/rpKdALvGMZcf8Kt+i70tzM8VeVKjOWuk4dB+9Bx5bpIAB7GgzU8TgbLd8nXy1ChuZYGyOEu6sUidhxUNby1D6oNjg5ixIezKPMSJh/qgbXfAkueniQszpOkx3OoCdWYc2oIH3HRyJHtukjA1iluYIU2N7rz5PjaEKyqQ7bxz2nog2Vv0mwhSwo3iGdEvoOh09CUx6UMxIb2dMzs7w2KxKioqIvw+kgjWB4sCkFTvl0d0Y6PTMTVRmhmr8JGcnLw9YCtoyNramsYk2rZRtT+JaRmD4mQDNfDQgLGuS9MKizFAHQ7VzzHVjvkK671B7G19fd1bZPe1bu6u7tHwmBIO83X/hu9dmqNc2NGxA3sbGxsxefaxWtij5OjGRqf3uOSQ/4LY28LiwuPHj7fL3oaHhw/O3kAkhmiZ1iFrsusDtUfDd2Rv0fKR8YnR3zh7M3nYY+MQe1Mbd9VQjDxWIBGRAkbEhG9k2HweIR246AyRodkaqc3/bobPGrW0jMIBtUatIAG5soNd4gG3gk1DZrWF/T5lb8vLyx7nDuwtspgdcF3cLdu7lzM3SfJ6BI8fP/6n+QWFQtmNvT14cB/eOT2E3lt1RcKlC/8fEf+3M6f+w6D9nsX4Ow1yq3GpwH1xfDjb4zwfrE0K16d0tiJrqhLEgn+wGH/3ui648s8HYK9v5cVxQ33o7ewNdMX2hi/OknSatEjkyq6urt3Y2/r6ek21s7t9Z7233br61jLNZjpT7L3kcV5w2M4Bf8vNoVTg0ZebdzSH8rmI/01ayh8b6pLslrOFbshLn9V0Gp/9iUl/anuF97jRrWVaoDqlt6crsiQ/efLEqEetLlAOWw64y3A/hkz4ND3lvwTcr932C5AXPd81du6XTfWpBNzfmupTuHlHm4IpBu331RXxu/X53hW+tUwz6jFPnkATaXFxvsC9yd5iKnxjkaKSHScTPjVoTg73ofNyv2TmfNHenG4xnibh/1bovuiwnQ3UJOrUJ4FlRksoFZP1Fyz6Lx0tCLXiBJ16xG49W1IQ19KYVuy9XOu7plefnBzNthhOWY2n28LpqwsUveZkU0OqWnGi2At5M9mx2uPD+AKvZEf21toWdpS/6x7BW0dM2r6ibF8bDE7O9PTUb5C9gcpvr3BMo5Qm+urq6srKyuHZ264raMwtDvX1gBs6MR5fYY8hm+zNU5jva1Xu2/AD1mqnct4Pe9u+czo2NmL0vKvsbacKv81I7VTOa/aWlpY2MjISeSVC274HZm8RVrEZbnWL0Eef3/wXHG5rl2yv47cCqvGaZ0Ax4kCkOCgPUMxvHrXEsDeHwyGRSCIiBlj2Nqp1QDunERe7IPQcCIkLeeIdsYSHtz6HLZDB6TDsCXnYAhJNsOvj2M9BUyMU4dTUMGCs7zNAgVX69HXd2rpubW2Xxt+pqW5XVberq9tUVS2KyhZFZbO8PCyH3Hw0SktDkuKguCggKgqKC2oFQjVxdHT4/v37YiULOhkQef38glqhx893V/OcVVyXj+uo5NjL86BN8zKWtZRlLmKai5mmQobRm2OAoXNRtTA0DrIqn6S0EZU2ktxMkFuIMhNeasSJ9FixHivSYQUaNF+D5qmz+OosngoNI4unRHMVm59cBYarwHDkaI4cw5FBYEvRbAkmT4zO5ZIPbXMaPZ9i0qurqy77DuxtxxXlVzk5N0n0eviAvQHZW/Qvg0hzHjy473FSQZiHA9azoS7JX3Vt+TrZX5XQFEwBNoxAwfyAJRwq2+IsSatOibC3vWVvtX7PW7A3o+77Wt+1qrKr+eYzgZpEi/HU4ixJIT2GTPsvPPYTKvlzgxYKnzA2iCkpuFxSeKkxmEzE/00sgELNHqott5ZpQX9qd1dHpP8j7O2w5YD8zaFUseAfDNoRu/WMRPiNXHJsagzH5xwd6svi5H012INiMb68PkWoKLnitp+Plpkd6nYGPRpMpMXF6wXutB03vm8sUiA3xarvaOTPYBduZ3o6MipKrmCy/uJ1XsBh/lpXfS0l6Q828xmgD+eriLeZT6vlx1tCadUV8Tr1dxTipzLJMS77KyL+U6/rQmryH/Wak7AHu6+yMX/Vqb5j0r8Y6EHp1N+lJP0BWJhub8X4MK7AK3nx4kWkhyOJtvbm3cLv7Lb6hkfM5U2ykgZxCHpXQm7eID/ykMo2tKkX6NHWdKjCIxZfm7K2S1MPRz2HYyaqK5rl9X36qlblfh7n31gLDU7u9PRUXl5eeXl5pNqRBCx7E79eV+C1BPxIhfytQy99yDl705AJAHjfDQ0YARr6DQD1fdAbvx62mQ306iD0QL7TarsANP4Otb9DDUWNbFNVtymr25S+VmVViwKsBxVhGUB5ExRytAxaFaQlDZAzJ64U/89t0xs3biQnJ6+urkZqHp1YW1uTKNkuH7egVuD18z0A1dCCAeCq4rmquM4qrqOSa68A4NjL2PkwbKVsW2merTTPWpJnKWZtoohlLtyEqSDXVMAyFbCM3txNeHIN7k3oXblbYOocm9A6mFo7AEOTz1TbGCazHsjeAHvbbXq8l/MRQcXmSr8pdYCGEhrNrQHdbTQthdz2jrb09PSenp7ofh4dG9Hk04NgfN8cYn9X1BC3vx7iytdDLI8d4kYpcO5V0iAurhcVBSEUBoQFdcKCOkFBncBbK9gcypqoofTBJACM5uZQcu3lHDCUJFbKwsL8P+McIpHIoaHXZvgbGxujo6McGeb1EEeNrxke3M0h9uQaPEwIbqbetQmdkwmgdTC09k2obXRNPkOTz1DnM9Q2ALrSsgmVha40QVCY6AojXWGAINPnyHR0AKk2R6qlS7U5Eg1NrMmRaHK4IurU1FSkwz0ej1AojCxSsGPzmVwuSaigQZDnAAjkOQIZXSDLEchy+NItSHJ44k1wRTlcER2CkM4RbIGfw+FDaTY/h82jA/CELIEoD0Ai40vlAomcr1CJVRopgM6g1BtUeoPKYNKYLHqTRW+26PMdFrsTgtOdX1pWfPv2j2tra4FArd1pcbhsbq8DoKDIXVxSAKG0sLyitLyytKKy1OerqPH7avw+f211MFgXrIcQCjWEw43hcGNzc1NbW2t7e2t7e1tnV0dPT3dPT3dvb+/g4MAgfIyMjIzBx/j4+OTWMT09PbN1XN865ufnF7eOZfj48ccfo/v2XfXefnfsraam5n2xN9inBmQhuDQH6YptX0Hf75kY9tbV1ZWVlQVsaSMPD0i8fPny7dhbwJ9IIX5GIX4W9Cc1BVOctrNga6+9GXK94XVeIBM+pZI/m50g1FQmVFfE97RnZCL/lI3+i9MG+fffhr2sFiD21t0Zqfk7srfJURwO+8nVy/+ZQ/m8ouQKi/l3q+k0l/XVxAiWzz06Pow1G06r5MdzqJ+3hdMOaEawrTk0gx5zEPZGIx/hc7/OoXwuFX1TVhQHeXerS0Yh/2w1nXbbz3e3IS+c+z+u/PPArMHtuOB1XpCJvy0vjmPR/66WH6eSP1NIjuUx/47HfuJ2XEhL+QNgbyLeP4y67xm0I0nX/m9fV6ZCeiwt+Y+DkLPo7T1Pe7/srbhenIo+HZ923FzEEOkhY1IqL0ntIBkLcpxVHEg/mpsEuUvgJon0GIOX1jRkMhXSZWY8XZgqNmIlpuzIzsJBVnqDkzM1NcXlcktKSiIzJJIIh8M4WhKDj2TwMxj8zC2gGHwYvKgEL4sBg87NYsCgc9EMAA6awcHQOWgYGDoHS+dgGRwsi49n8QksPoEtJHHFVI6IwhFRBFK6UMYQyhgiOVOiYktUbKmKLdfwAJRagdogVulFGoNYZ5bpzXKzVf/gwYN/+gJPSUlZWVmJ1Dw68fPPP1dVVejNSoNFZbKqzTaNOV9jyddZ7Xqbw2BzGOwuk91ltrvMDrfF6bHBsLq9dneB3VNg9xY6C4vdAMUl3pLSAoDS8qLSssLS8qKyiuLyipLyipKKytLKqjKAKl9FVTUEX3VldU0VgL+2egs1dXV+gECgLhCsm56efvXq1fr6uqfArnXmOCu5zkqu+29kFQAAIABJREFUvZxrLcmzFkMwF7Ig0uBlGjwMjSNH46BpHDRVPlVhISssZLmZLNYTxDqCWE8QanF8VTZflc1TYtkyNARpFkuMYggyNvF6KMGwbo0jPKx0LgoaRDCgW6O5OZRcNIODprNw/f19CASiu7s7up9nZ2cpDAwdGmtoiOkcbC4veogpXDGVK6ZGhlgoY0qUeTsMsV6k1ovUBrHeLAcwmBUmeNTM+RqrQ29zQsh3GRwes9NjdrjN7gKbpzDfU5jvLbIXlrgKS1xFJa7iMk9Jubek3FtWUVheWVxeVVxcWvDw4cMd2dv9+/d9NZXV/gp/nQ+gLlgTCPoDQX+wvrYhFIDQGAw11Tc2NUAIN4SbGwFaWptb2yC0tbe2d7R1dLZ3dLZ3dXV2d3dB6Onu6+uF0dc/0D8Ac4uhoaGRkWEYEMMYh4+JiYmprWNmZmZubm52dnZubm4ePpaWln766adIh3s8HpFIFM0wXrx4cevWrX/+krlx48bNmzdvwccPP/xwBz5u37599+7de/Bx//79h1vHo0ePnmwdz549W4OPn3766Tl8vHjxAqhjgp8W63sewItWTBZwMvIJ4rZHvkYnIk37DSb+tdhbTk5OZWXlbuzNfUjZ2/bV/YOeiWFvPT09+7C3tkPvnN5YpA73Q+E4byxC5gsRLcAbi5QFWFsLaFzdXNr0i3ZziTo7gZ+fJoJNwEM1P+hP7Tqo7G0vFghuenOJ2liffP7s/1tdEb98ndzflelxnB/pR68uUPq7USvzUJTSqtKr7c3pb03dbi3TDDr0o0eP4J3TPWRvVBbji1zG3+nUI5VlV/DZn+RQP68qvcLnHhVwv9apvzMbTjlsZ6Wib5avk2cmcGnJf8Bm/eXq5f/ks49y4G1Wdu6XRZ6LzQ0ppYVxNZXxes3JiWGszXRar/mOkP0Ji/F3lfx4cyjFbDhV60uoKLmyY4vGh3Fer3g32Zt9l9DXu1EreyWbJUkX6TF6D81WlkvhJl5JPcYQpSYgT6Rnn2WK009f/gJNuXT26pcMUeqFhK/xzKssKUJqylbmE09d+qK4HhKVHRwGJ3dqaorH4+3I3p4/fw7Wgx+2jtu3b4PF4M6dO/e3jgcPHjzaOp48efIUPp49e/bT1hFxXfny5cvI+zr6LR9ZIaITP287IuW8ePEisrq8evVqb/b24sWLisoyvVlhsCj1Jpkeon0yrUmiNQJAdFClF6r0QqWOr9TxlDqeQsuTqTlyGFJ1nlTNkqpZEhVLpGSKlQyxkiFS0IWKTfEGX0blyyh8GYUnJfOkJACuhMCBwRbj8sTZACwhBiBXmJUrQOUKUEwBCmbGGRqtEnTOzMyMz+ergQ+/3x8MBuvho7GxsRk+WlpaOreOnp6e/v7+AfgYGRkZhY+JiQkgXJidnV1YWFiEj+XlZbCo37x5c2swfwAr+l34uA8HpH7w4MHDhw8fbx1Pnz59Bh9ra2ugw58/f/7y5cuff/55O3sDsSKi9/J+3WU4MtOiEyD2xnbZ2wGrGl1UJB09k/dOv9w61tfXt81u6ET0DAfpSLc/f/48um+3y94A+wcV2LrP5t/t99p+o8gzBe649ey+/vvs2TMwLx49enT//v178HHnzp3IdFqFj5WVlaWlpYWFeTic5Pzs7Cw8G6cnpyYnJiZ2C2d3wP7/tbK9K3u7ceOGwwb5e4t2N7Vjem+nteCS7XluwG4XgMur1S2HscCFLOxYlQJsJMHn0nUyhDnS0hx5cZYEMD6Mczs5YNHdg709fPjA7aSBEKuHYiEHyLw/+TiIq5SlObJGlRTRZNqHvdV6uw7P3g7Qlh3EPLtftVfDQ4G0traWyLx/+vSp0ZD1Fiwwcvel6+SSwsvAViAyAyP/fS8JkwHz4MGDjY2N5eUFr2vnndObS9ShPnRHC2KoN2tpjtzXldnTnrE4R5ocye5sQUyN4iZHshdmSJOjuBuL1PFhKNRse3N6VdlVreq78SHsQDdqcjR7fpqwNEeanyEtzJLmJglQYFzYw/BwH3p6DLf532niygIVOCje3rqJEZzXI9yRvXV0teWXcg/OpVrHbTo3NU8O+YhSWAlZFCj4TCrmdK4kncxJZCsyWDJkUuZJQ0FOStYppjiNxkumC1ISM04KdRiOMvNS0j/MxYyo2+2v4WR0cSYnJ3djb48fP67x+yp95ZDoAkZpeWFxqbe41FtU4vEWOSEUOtwF+U6PxemxONxmIM2yOQyWfJ3JpjHZNEarWmeSa40ynVGmMUhVOrFKJ1JqRXINX67mydU8qYojUeRJFHkiOUsoYwLwJXSumAZBRMvjkwByeQQGBwcjOycPk5OHpuXihoeH92Zva2trSh2/tEFa1aKsaoH2ZGGo4F1a+LNdDSnutKtr2qEN3E10wpt9nZraTs3WDi+k6wMQ6IE2fwGCvZAXZQhbG8RgpzuycdwwYAQIDRpDg6bQoKkR0iXaRNOQuXHQBGxOIw/pbzzx8uXL9PT0GNnbs2fPxsfHhoYHBwf7Bwf7Bwb6evt6ALp7urq6O7q6Ozq72tvbW9vaW9raW1paw+HmxuaWpnBzY2NTfaipPtRYXx8KBOprIQT9kAysFkK1vxKWYlZU+corKkt2mIqF26eiJWoqak1Wjdmm0egUd+/e3VH29uDBg7qAv9pf5YPEpW/cqKyiKDLnCwqdnkKHp8Du8tgcbkjsZ3dBc95q11vteku+1mhRm6wao0WlM8q0RqnWKNXopUqtUKkVKjRCmYonU3FlKq5UyRHLWWI5SyRjCSQMgRQCT5zDEVI5IipHSGHxSRB4RCYXT2dnQ2ARpqenIxPD6/UKBIJo2dva2pq30K1QQ/eSq/lbN+KKFXngXkIpE9yIL6FDd4HBFpBZPCKLT4IfLvhGbCwtD0NjZdFYWdRcFImRQaIjSXQkJTeTyoKRl0nnZNG5EBg8NEuAAWCLszkSPPQpxfHkeJ4cz1fgBSqiEIZIQ2KLsZ4CR6QJv6PEu7K3W7duCXhXfBXJVeWJlaWJFTDKSxLLimEUJZYUJBUDeJOKPBAKPUkFriQvDI8zye2AYU9y5m/Cbk20mhLyrUn51iSbJclmSbZZkq3mZKsp1WZOtZnTLKY0iykdwGxEAJiMCJMRaTIijQakUZ8JYNChtGqUw6EBnjX2YG+PHj70uHIOz972Iijb19R3OXMo9lZXV/hB2VuMqv5btKsxmN7W2hx5VJ49e2o0oHdhbwfqZODb9i1qcvBLzEbMw4eAvS16XZABwcGv3THnyjxlfBgL3MLtpMF2oIbvWPLkCM7rFuzI3joh9naI8DstY9akzJNxyd9cTPw6DXuGwkkCIb0VVoKlJLegTqCyk9hyZLBXx1FkqPJJiRkn0ZRLEiNW46QINGhLMVNhIxzKZYDRxZ2cnODxeMXFxZEZEklcv36dyk6zluTmw3rE+eV59gq2s4oD4K7mAr0xTw3PWwvpIYE4oUBFqbheVNIgKW2AYhSWN0rLm2TlTZD6WmUzrNrcovDB+m2Qllu7aoswqWu7NFv0SBthRREaFBowQrwHpj7AOsxZLmhvbwPsbXl5OVLz6MTa2prWJGocNEXxWlvrm8603vzXIYSX7+dCyFvvzg6foxvy20m/fPkSgUB0db22hdrY2JicnMhho2UGstxEAVBYKAoLVWGhKq1UlY2qtkGfGjtNC+DI0bk2oXfTDR4YXrqxgAEAaawDFDMtJblWGFFTEfKdtm0q8iNTsSgg3JqKUFD20gZJrhg5Ozv79OnTzMzMGFfDY2NjDEGGpZgJ7gLN+TIWuBdw0gZu5PJBmvUuH9ddzfX4eR4/H9K7r4PC4xYGhEUBITztoVicpSEJ0NEsb5JWNMsBqloVPoA2ZU27CsDfCU17gECPdvMnQeSXAKzwGhowWgrZ0YqGxcXFXC43ImLY2Nh49OiRSs8rDAgrmuVVLVs3alXUQD9LoHv5O6JvFPntodtUS+03NGxprDYOmSD1R1gPEraBsDSPWiIGm8AqAlaahGw2X2PL8DOiWBmTKA/LXQWW3840PnhN3pW9ra2ttbQ0Nob8oZC/qakuHA6Ew4Hm5mBra6itNdTWFupoD3d2NHd2NHd1tfZ0t/f0QOjr7ezr6+rr6+rv7x4c7Bsa6hsa7BsZGRwbGx4dHWppCUul4pGRofHx0cnJ8ampiampienpyZmZ6dnZmdnZmbm52evX565fn5ufv764uACwtLS4vLy0vLy0sgJJ42/cgLSGYYH8rQcPHgDpbk5OTkVFxY47p2/L3g4iizrIGrx/nu3sDYVC7ab39qHZ246MYdvJvRp1GPZ2kE7+JfKYjRHZ297sba+Gb/XSQfK8faPeL3vDMa6C1YKQG+/v1JQ1Seu6taEBY9OQOTxiDg1CUpyWMRs44++EDBfCI5DhWOOQqXnU+qZfjIPI3riTk5NCobCgoGD7u2xxcVFhpuxkvveL85ut7eAYo06PT9za1vJPDZ/U1NTFxcXtTdjY2Pjpp5+0JslbsLdfrOGQxxC9bMcfADu26Fc/+fLly4yMjM7O19q0GxsbExPjBve72pxuZ8MxI749w4HP5CuspJnZ6adPn6JQqBhndWNjY0ZP7i824gepc0zD7WX8aPZWUlKynb0Z8yX1fYaDFP6r5KkIK/5F2duHeGKXl5e5XG60LuT7uguDwSgrK/vF2BvQHgO7ugszkN+v61OEuUn81Gg2wPgQdnQQA2EAPdiDAujrzOzpyOjpyOhuQ7a3INqb09ub01sb0xrqUtisi5GfNX19fRkZGUCJPqZ/Xr58+dtgb3uRj8Owtw9LdLbo1F61BXlg9nYf3jndm73tX9TBbvr2DX+P7K113FbbBXmCbRmz7hvx8728f40u7sTkhFgs9nq9MXN7Y2NjaWlJYX77cOaHreFbrJ0flL0dtv5vn/9/CnszvoO/t7fvvS1mv18J+7O3/Ur41X60tI7bdmRv0Yz/0aNHH9nb9pfYeznzrrK391KJmEJWV1c5HM7a2lrM+Xf/ymKxSktLd2RvT548MZslCnmGWoVSK7NUCrRaiVYpMAo5DBlGLsUCyKTZUglOKsZJxDixCC8CEOKFAoJQQBQKiAI+kc8n8fkkAZ8sFtEkYrpUwpDJchWKPBhsjYav1Qi0GoFeLzYapSaj1GyS26wqm01ts6kddq3LZXS5jG6XscBrLSywFRbYiosdpaXu6uqKiIpof3//HuwtUFfU2Xpoq4WDUYqDU5OcPTZYm0Pp4XBjZEyfPXtmNGB/AdPdd2mj1YS+d+/uxsbGysqSx7nHzuleDd+qwNszs60S9hqIqVG828V98eJ5pIcjie7eTmvxIXZOD7N45L8F19levsnNHR8f24O9yU3k7Vf9imfaxt9o+P8M9vY/Rvb2IdhbzIi/w9yD2dvMrrI3gzv3HQp//8QupuH2Mn60ouHusjf9b6oV0ZWpCCucXnPk9fg7SvxG2RuXy/2F2dv6+vq9e/f+qaoCrJ9+3DrubB337t27v3Vs2TW/NoN68uTJs60j2hIKWMo8f/482ppmu63Nzz//HG2PE20iFLEhiplVe7C39fX1YKCko+Vd2VtE9x/4tgC2I/AnCLIOoq1Dn8CgBHyuLFCAQcmbn+SVeQjL1zcNSkKBtMbG+kij1tbWTIbspQ/veOUg1Ge3PDYL+u7dOxsbGzdurLj3Ym978ardCt/p/NszvKlRvGcX9tbT22UtZke/v35rabOHO7Y3e/sFZW9v0TkQe2vdZ+f0+fPnb7dz+hb1ebtLIG+9/wN2TicPvXP6Xn6BHLjP81X5lMnJSbBz2tv7OvwMrLQ3qXcxD1zU++dq+97aWSHo6HjttrO0tJTNZkfL3h4/fmy0SYO9v132VtWstLsNkZXod5T4LbK3Gzdu/PLs7Xc0ZqCqe7O3QF2FxZhcUpReXLCJQk96oQdR6EF4XeluJ8LtTHc50p35aQ4YdmuazZxms6RbzWkWY7rFmG42pJn06QbdJvSadB0MjTpdo0ZoVAi1EqFSIFRyCAoZQi6FIJMiJBKERIKUiBESMVIszBAJkGJhpoCP3EKmWIiWiLAcdtbw8GvXlGtrawo5pjGIaA5lNDdkhBsymupfIxTICAWQDQFkfe0mgn5koAYRqIE+6yAga6sRfh+ipjK9phJRXYnwladXwagsSy8vQVSUIspLEKVFCNAhRd70Ak96gRuCx7nZIW4nwmlPhzskPd8Cd4g5zWpKMxs2IZOSHzyAdk5v3FgF7A3itREsQqQWjqZKXV2AnKqAT7B1Dj5X5iEraeApMMY4GgSWXZghzs8Qofha0/DnFBRGFmB2Ag8wM46HgZsZx0+P4afGcFNjuMnR7MmRTUwMZ3e3ZdptedGv0cgM7+7pVNlokC9y2BE55IG2VQm7I1dUQKHQFRVhOQDsh1ZW1iiD/dBKSxtgb7T1kuIggLgoAKEwIC6oFW3CL/TWCL3wp6da4IbczwrcPr6rCoKziues4DkqePZynr2cay8D4OSXcmwwrCVsazFbqKSAnVOPxxOpdiSxuroqMZD2XVd+lQxg4ffWiMPNTT/88ENqaurCwkKk5tGJFy9e6EzS0KDxzXrurxT4Zv4PuGC3jNm0BtmH0GCJ7of3mP7nL/DMzMz29vboMqemJg2ut4+UtVtvx6h/RWc7JPnL1zio4xPjz549w2AwMSYX09PTOme0vfYHHO7oJhwkDZrpqhRGd3hVVRWLxYp+7UDsLV/2m2ZvLR/ZW/QT825pwN4+xFuDzWaXlpbuVjuwoxr9CZz47fG5x7/eezkxBQ4ODiKRyB2tFjY2Nm7evNnV1dHR0Qb7Zuzs6enq7e0Z6O+DMNA3PDw4NDQwPDw0OjoyPj46NjYyMTE+NTU5PT05NTUJGYXMQU4Z5+evLyzMLy4uLCzMr6wsr6wsr66urK6uwg4Xb966dfP27R9v3/7xzh3I2xYsl7z34AHkcfHxY8jRFpBHAudMP/30E/DcE/0JWgSG4+eff66r8xUVWctKHWWljvIyZ3m5q7LSW1Hhqaz0+nxFPl9Rta+4urrE7y+vqSnz+yvqaqsCgeq6Ol8w6K+vr4U/60KhYChUHwrVA7fXzc1Nzc1N7e2tHR1t7e2tnZ0d3d1Qb3R3d/X39/b39Q709w0O9Ec6ZGwM6o3x8dGJiXHQG9PTU7OzM6BDbty4AYzhV1dXKKRTOvX3OvX3es1prfqUTnNaqzqtVZ3RKE9rlWc0inNq+VmN4pxKdlYlP6+UnVPJzyuk55Qy6FMuuSCXXJTBn1LRRZn4klR0USq6JBFekoguS4SXpeKrEtFVqTheKr4mE1+TSxJl4kS5NEUmSZFLU+XSNAXMmJVypFKBUsozVQqUUpGlUmKUCoxKiVUrcUo53uu1RpvuR6b95OSEQJInVuRJlHlSFVemhpwFyDV82IOAQKUTagwSAB3kh0wBYLRCTmUhv7L5WuCJwGrXRzzKOt1Wl9cGI99b6PAUOryFjsJiV1Gppwj25QH7jy0qLS8qryyp9MHOY33lkCdSyGdsZY3fV1tXA8MfDNa1trY8fPhQLpc7nc5ItSOJmzdvSvSb7A0sIbt9RsJ5vXUGcOFhyymokYSbm3788ce0tLTr169Hah6d2GRvA8bourVu7cBGnwREIYYuvJFhAuJ80Wdivkb/C6T3zdA2kQ/Y2/PnO2y+Rzfkt5NeX19HoVDRZGJjYyPC3g7ecMBdtnda9JmDdODBysnXbrE3LBa7B3uLvvv29L712TcDKHPfbDEZPFWi6A7fzt4gN+z5MmC1EF3tmHKi/xWd3jfbu2fwtao+yt7e21N88+ZNDocDfHy8t0LhgrhcbmFhYTRpiJS/vr6+urIyOTkxOTExNjYGPEyOjIwMDQ0MDQ0MDg709/cB59S9vT3d3Z3d3Z1dXZ2dne3t7W3t7W1tbS0tLeGWFogrhMOhxsYGGPUNDXUA9fX+YLA6GIBQV1cJUOsv99eU+mtKa2pKq6uLAHxVBVWVnspKT2WFu6LcWQ7BUVaWX1ZqKylxR9bjoaEhBAIB/NhFWvEx8cv0wIsXLxYXF2Cf47Pz8LGwMB+xeoZ9kEImzzdu3Lh167UbUpjm3r5z53ZkFz7Go+zW3vvm34iH8de+KeFUZDt+7x359fX1Haf6Ho7FI9v02xOgtN0KfO/dvr6+rlAoHI4d/DBFs7cdhQSNg6ZAry7Yq48Jz9U4aKpqVTb0f3Dzt0OxtzebECt7axmzFtWLbGW5lhJmScPhnB6/WfKhxTb/w9jbO/bGB7v8oOztg1Xg0BMjuibbZW+5ubnRjP/x48cmWPbWMmYFkesOFXYl+l4fKF3Vosx36d/7G+wXKPC3uHN669YtDoezm1TpXTplD/b27NlTi1lkMqTZrUiHLcNpR7ocGS5HhseJBChwIwu9GYXejCJvRknhJsqKM8pLNlFVlgGhPMNXkVFdCaGmKsNflVHrg1GdUVuNrK1G1lUjAzUZAEE/MliLDNZm1NdlNNQhAUIBZCi4iaZ6RFM9EgaiMYhgs85HHoyP7O1dZsLHa3/jPbA3exPriLu9yhv6DSRWwjXkd1dSv63t0rSO5zePWFrHbTUdahz9ChJ/zlvLbx2zhYfNkNunUWvTsLl5FMrQPGqFHaBAacinFHxVeMQCBecegTxLwXkswKFUQ78h2oNdjGCsoEYcDjfuIXtbX1+PyN7ebEgsewsPmzMI5/G58RhaHJ5xpXHIBPzMtY7bwiOWum5t07C5ddwGQnSHRyyBHh1UwxFLsEfXMmr1d2r8nerQgBHy7BWWBXp0NR3qirA82KuLobZvVgNa0YHVwofYA/lAc28X2duUwbm/x5DmUSg+OjQZ4HHf3hsxZ2JGPOa/h/mar3XSRkZH/hkzYLvsbWZmRmOn711ay5i1od8AXBI29Bs+NDeKabjHJ2ppee103efzxeycQuaAdnmgR1fRLE9CnUzFnJYYs5uGTeDpA67XoIj10IMGRbKHnzgoAR7J8AgcsBh+SMGjB/I0DZkilzQOQaVBrosGjE3wc900ZAoNGptHrWH46QDlQ0GQoTjI0BAHe3WNg9BVreM2X6vK6tB+oDn5QYv9yN42u/fJkyceV+7sBH4n5fH3pYT+TuWszFPUyisf2dsHfR4+Fv4b6QHA3ux2+/b6/PjjjyINfrclra5Li6FeDvToMNRLFWGZtTSXzL5mKMhR2giZxPM8Naq6XWUqpOOZ8So7yVLCxNIu5/BTfK1KiTEbiTuXK0kvqBWQ8hJovOTKFgVfkxXs1Qs0WXILvqxJShek6NxUsR6bgT8vNeHAGrO9JoV+aWNTA2Bvc3NzMU14+fJlVVXV8vKyziRrGNhH761p2IyhXq5qVRYFRURWglCLziCcz6JcdFVz+eosJP4cQ5RaGpJgqJdRpIt6Dy0+/binhmcpYV5DnrBX5GUSLyBxZxVWQkrWqQvxR3VualzyN9icOGxOnL9Ts73mMWe0BumHsB6L6ZD39RWwt7a2tugCZ2Zm9Puxt9CAkS1H4hhX0JRLAk1WTCdEfwWUN0J8wfK/5f3Vtkk+YN86gFtEX7tLOt/gYQwNDT579iw7OzvaAmBjY2Nubk6dvw97axgwQqNMOJ+GPUPKSwAMBpCY5lELTGIgJtQIE5oW2PkizJOsEH0ZhZhfw4AhPGwG/nhDA8bQoLGuW/umj8Zd5XPeanFz82un636/n06nRxYpEAHM7FAEenTeWgGaeqmqVZGGPVNQy+epURxFRqBH56hk45hXmeK0UL+Bp0bl8JML64RaF6WiSSa34GVmXDr2DF2Yai5iuHwcnYuidpDyZAhC7tU8GaK2S5MnQ2Jol62lTKkJB/fAtcoWOTnvWibxgq0sl69BhQaNHEWGqYhuLMjhq1FcVabWRckgnKfxkoO9Ooi9tX1kb9FPzLulfxXZ247sbQ+HF4cheQexHNw/D8TeFAdibyC0HNAwi+yygd2358+fR7bhwMbc1ucbu3Zra2vPnj2FjydPn4JwwVtRBmGdNqDZ9uhRxPr2wYMH9wHu378Xwb17dwHu3r1z9+7tu3dv3779448/3gL4HS0M7zajP1596B549eqVUqm02WzRV4Kpe/v2bYEKt8taCMnYsnPiQoNGHP2KvYKdSbyQX87KJJ7PpsVhaXE5ghSeKlPnpop0mBT0Kb4aRWEnZhDOW0qYNF4ST43KzomjcBJzBMlk9jWhHnM17bilmJmKOU1iXxNo0acufUFhJ6aiT0N8CH2qul0FqhEjkCishdjb7du309LSpqamgAl5JKL2zz//7PV62Ww2T8w4LHsjsa5JTTiljcgQpmaRLxYGhITc+FxJGluOLA1JXD7ut6c/yZMhafzkb079lSFKNRbS1Q4SV5lpKWYyRGnBXv01xAlfm5LCSXRX83brQ3Ae3jn9PbG3V69eodHoiChofX395cuXB2Fvdd3aTOJ5RyXb4KWhSBc8NTyNg6y2kxoGjCX14jwZ0lvLDw0Y1Q4yT42qalHIzPjGIVOgRyc14apaFFxlJl+NclfzKJxEDO2y3kOTGLBUTpLCtquEOKrnN9nbP1+5eDw+hnpC7M2WE5V5BxYV7NUno773d6pLGyUI3FmVnUTMu0bjJVe3q7RuShb5osZBru3SULiJGFpcQZ2AyIqvaVeVhSSkvAR3DQ9Li8Mzrxq8OdeQ311NOyYz4/DMqxn4c0xx2o4ELmaqx7C3urq6nJwcwN5evHjxFF48IuwNSThfUCtIx55hitMIufEUTqJIj2HLMyjcxATECX+HmqdGEVkJNF4SinSBmJcgNmBLGsTXkCdsZSyFlZArTb947WsiKyE+7bjaQSbkxvPVKAz1sr0iD0O9jKNfyRGkpGSdclSyoVYwrpLyrqXjzjqr2AmIE0IdmiFKPR33RQbxPAL+kZaY8V1Rvegje4t+wb6H9K1bt9hs9ofYOeXz+R6PJ+IyLbquMHtjHV72tj/rOgzP20s4t7pAVSkuR37VMULnAAAgAElEQVTWjIyMpKWl7aj39urVq7GxYbdL53YpXU6Fy6lwOmVOh9Rpl7gcUke+2J4vBLBZeTYr12blWi1si5kFYDYxzEYIJmOOyUCDQTXqyUY9yagnGfREgx5v1BMMerxem63XYmGgddosnRal06C06gydGqlTI7UqhFadBqBRpWhUyTCStKpErSpRwLvS0vL6R1v0WHxMf+yBV69eaTQai+WNCDYdHR1Wq3VpaUmo3lX2VhGWE3LjG4dMeAa0JhFy41vGrGT2tUzieYM3pygoQlMuUblQsK/z8UdZUkQC8kRy1ilzEYPGTzYVMQi5CenZZ9Ozz5A5iaYi+t+//RMCd+5y0jd45tWracfI7EQ84+qFhKN0YSpLkr6b72LA3u7cuRMXFycSiex2u2XrMJlMOp1OKpUeOXLki6N/2aaEF7tzCsveIIlFUUCEZ16lcpOMhXRzMZPCScwiX6puV1G5SRRukkCLru3SFgWF15DfZeDPX0N+l4A4QRemWkqYeg+Nq8x0VLJZUkTTkCkBZm8k9jV39f6xbn9fsrcY9jYzM+Pz+cbGxvaVvdV1a7G0y8FeXXmTDE25lJ0TR8xNwDPjuSoUinRBlU/MIJwXG7B45lWuKlNuwX9z8q/GArpIjzl9+QhTnMYQpbGkCLYcKdBkYWlx7mre5eRvQNjfuh5IurMn9mNv+8negr36FPSp5lFLbZcGgTuLoV3OlaTz1CiGKDU9+4zXz0eRLuQIUjjwHFDZSV9880eljUgXpp66dISUl6DMJ6rspFxJmsSYzVVmloYk15AnKlvk2fS4wjrBvvuwO7I3sNs+Ozsrk8lWVlYi7O342U+xOXEaJxnPvJqYcRJDvSQ14Wj8ZEsJE4E7V1IvziJfjE8/jqFevpL67alLX3hqeI1DJiztck2HWu0gnbv6JZp6OUeQgiScK2uU8jVZWPqVXEl6sEeHpV3OJJ5Pyfo+Oet7kR6Tnn02FX0qmx53Ne0YjnHl+NlPhdBPryMQKWQlJCCOk9jXaPxkX5sSsDeLQ/N7fOW+t51ToOYc7ags8osz4sks4ucs2vlZtHDo+fPnz549W1lZYTKZt2/fBuaKQCgEWPx2KdAbwh/Y7vH+/fv3to67d+/euXPn0aNHgLGJRCKXy7Uje3v69KnHxZ4Zf71z+p4Eb7SDRKA/SB6IvckvRdRQRkdHU1NTHz58uH3awf7eystLUns7s/q6svq60H1dWf3d6IFu9GAPZqAHPdi7iaE+zDCMkX445AMc+GF8CLuJYezEcDYA5I1iFMLUKG56DDc9hoc+xyGnFRC2nFnMTuIh9xZTEOanSfOw24v5aWLEHcbCDGlxFkJLCBEI+LdX/uOZjz2wsbGxtrYmlUo1Gg1kvQzLeB88eLC0tESj0SQSCVeOiZjIxSyNCishMeM7vYd2NfWYwkZEUy5pHGQU6aLSRiTlXcsRpOTJkFnki2x5xpW0Y3wNGkO9jCZf4qlROPoVby2fLkwVG7AEVjxDmJpfzkJTL1eE5Tj6FSo3CUW6qHFQhFo0PvdqjiCFKU6PCCdiBBKFtdJQY8OdO3euXLkil8uLiorKto6Kiorq6urCwsJTp04d/fbTfdlbeNhM5iRWt6nKGqUMUSopLyEZ9T2acknnptJ4ydk5cfjceFc1F4E7m0W5pHFSaPxkujCVIUqlC1MdFXkZxPOZxPPuam5RQCg1ZTcNmb6/cCSDcJ6QG78b9Yz0J6T39rvaOQXsLRwOgxXn7t27TCZTJBKqrPuIr+q6tRjqpUCPrjwsyyCcBzPBUclOw5zGM662jtsonEQU6YLeQ2scMnlrBSCSbybxQnr2GQz1srOK4/Jx6MJUa2kuW57ha1WiSBcDvToc/Up5kyzSn7sk8o1exsBA/46yt/n5eZWNtsuFm6Qw2KtPyvy+ecRS261Jw5whs68ZC+n55SwU6QKKdKFp2ERkJSDw50yF9IYBg9fPv5L6bSbx/NW0Yxja5Wx6nB0KFsxiiFJVdpJIj6lskSNx5wK9Ogon0eXjbGdvsVPdL2lsfO10va6ujkAg3Llz5+HDhzdv3mSxWCKRSGMU1nVDPy2wNEgoHh4xK6wEIiuBp0YprISracd4KtT5hKNCHRpNuYTNicvOiUNToS1spiitYcBAZMX7O9VKG+HUxSN6Ly1Pjryc9A2Vl5xJumAqYiDx5/LkSCovicZLhqSGxPO50nQk/hwCd5bMvkbMS2joNxBy48UG7KWkr83FDL4mi6vKxDGugmIhjdh2tcmm/D2+dd+Vvf300091dTXl5YXlZQWlJe6SYldJsau4yFlUaC8szC8szPd6LV6P2esxe9wml1PvcuqdTp3DrrHnq2EobVa5zSq3WuVmk9hkFKlVeXI5MyHhO6WCKZcz9Dq2Qc+BwTboWVtgGg0MCHqGQZ+zBapRD8GgpxggEREEo56g0+JdTh2Q5B2Kvb0vmdn7KudQ7K2hvry9+V299b6vmu9YTmdr5kf29nt8ZfwCdf7555/9fv/Ro0e/+eYbCnyQyWQSfMTFxf37v/87npGw25KWnn0WTbnEFKdlkS9hc64UBUV5MoS7mts4ZNI6KRJjdl231lnFFukxsBWnRGLI1rooZY3S4iAUM768SVbfpzcW5JgKGaFBY2lI0jRsLmuUVjbLq9tVwV5dbaempkOt99B8rdAP9x1RVCdtaAjeuXMnPT19ZmZme4+VlZXx+XyhhNUwEGMAGyt7axmzVbUqwsNQxNjqNmWeDCk2YD1+fhjSvNY7qzi1XZqWMWtls7woKGoagrSX6vv0oQEjbHJr9bUpfW1KSM9pxAJHoTUhcefKm2SNsX7mdm6Ixih59uzZ9vr/Ns+8evUqKyuLQCCotw48Hv+//vf/onJTdxymyMlAtw5NgdhbZYsik3gBz7iaJ0OypIgcQUom8YK9Ig9FusBToUh51yRGrNSEwzGuJqO+R5EvYHMus+VIKjeJxk+WW/H2ijyOAmJvFxKOcpWZCcgTB4jvmW8pyu3t6wHsrbW1FfTt7du3p6enFxYWlJZ92FtDvyEVfbp5xFLfp0fiz2XnxEGcknZZZsahiOeZ4jQU6YLGSUbgzhJZ8RJTdhblIop0AUO7DDYuUaQLWWRIY9LgpcnMuMoW+bn4r7A5cQjc2bpubaSLdksU1UlDoYbIfKirq/vkk0/weDx4YJOSkv7jP/4jE5tY26Wt7dLYyiDzEcjMYsDAV2flStKlpuz49OMMUSqkiMZPFmiy+Josl4/jruYGe/W2stzGQWNBLb9xyFjVqvDU8Oq6taWNEoixyZD55azwiNlTw5OZcTUd6pKQRJVPzC9nhQaMxkK6qYhe3iQtb5KGR8wVYVlNh6qiWV7fb6jpVDf0G2xlrJIGMdBbren4V2Vv9+/fl4iSYA+ryNbGjNYmCG3hjI4WVEcrqrMV1dWG6mnP6mnP6u1E9wF0oQd6MIO9EIZ6McP92JEBCGOD2RPD+LGh7PEhSN4zNYqfHIWckW6BMDMOQJyZIMxGMEmYhTE3SQS4PkWcnyZdnyLCCeL4ULbLwXz48MHGxsavxN4Osru6f57fIXvbq1Ef2VvklfcxEdMDr169+uGHHxgMBo/Hm5ubu379+vz8/NLS0tzcnEgkIpPJTFHmbsuJ2kGuaVdB5pYdamMBJHSJlh/E6JvH/He3Mvc9HyOQKA7IIuxteno6pnXr6+v19fW3bt3SmxX7sreYW7uruVWtipiTB//aMmb1+PnR1rJ7XAvpvf3e2Nvo6Gh1dXVdXV0APsRi8WeffcoS7zpbQPMbB00Gb07jkCnYq9d7aITceEJuPFOcVtetcdfwSHnXrCW59f0GiTGbKU6vCMsclWxvLb+wTuCsZNd0qCXGbJkZDww/S0KSmnYVEn9OqMPYKw7iJfg1eyMSieFwGMyW1dVVEolUWVkpN+0T0rd51OKu5gKDCU8NjwmLXQ1eGmRoHJap7CTAYByVbFMRI9irK2uS+tqU1e2qqlZFQ7/BXcP1+vlNw+Zgr66uW1vVogDSRED6t0+PmKkew94aGhrS09MnJiYgf6GzsxqNBovFStXsui4tMJUABYJ0eMRS3iT11PCaRyy+VqW7mgsZh45CxqdvmoNAX6Mht+D8nep9s0UygMc8uoStf0E2p/+67O3evXtmY/qOwpXfyMnrU0SPK3df9vbs2VOPixO9c3prmXZziToxnN3ZgmgLpw90o24uUX/FRt1YpKrkFw64c9rQUNEW/k3L3rrbUX6/L2Zh+/j1Yw+AHnj16pVerzcY3ohg09/fz+Vyp6ameIrs7esKOPOamoy9wdt2y/8hzgP2dvfuXQQCMTk5uX1MgUL9W7C3CPv8ENXeVmb+74u9xfTzDz/8QCQSHQ6HJn//YFMRit88auEoM8sapRGD4ogPkZaDzahgr06gyWoaMm3rzx0FnJvs7aeffiIQCDabbWhoaHBwcGBgQKFQHD16lC1DHayczcL1HmpxUBRpzqGubR23BXt1eg8VuMs5yLUx7C0UCpFIJGCOtri4SCQSR0ZGLA7VbmK8LRYFPaqR9L73BRa1+2Y7YIZ/Xfb24MEDox7xK3KafW99fZrocTFAgCOpVOpwOHb0OLq29szj5k6P4aILvLFIFfK+ppI/Z+Z8gUb99+oCZWoMNzGMXV2gXJ8m3FikzozjV+Yp0+P4od6sxVnS7AR++Tp5ajR7dYFya5k2PY7vbEUM9aFXF6mDvajuduTiLHFiGAuTQuzUKG5uknB9ijA1ihsbxAKyOD6MHR/GToxgx4Ywc5OEmMqo5Bcidprj4+PJycm76b01hqp+4+ytrzOrpqYq5oX78evHHgA9sL6+bjQa9fo3vGgCddb79+9z5dgDvpp3y7ab2txu+fc+HyuQCMjqGwL37t1DIBATExM7jun6+jrE3mJdB8funMbed2xzkY6lcTCxaIF9VUTJLTb569Z5sEbCnu1gP1jNI5CTs5ZRSAKxHZDem1HyIazHduyQ935yeXl5YGBgZmZGZ4c27A4+4vWQMz/Iy8YeiBnxmJwQ+9kaqf3um28pZnX3dP38888lJSVkMplOpzPhIyUl5d/+7d+onOSYwvf+CsRXreOvx3S/CrzRzEOxqNZxW3FAFgwGI2MXCoXIZDIQMTx+/Hh1dfXp06dWp7q2a/9N2L3b9eH+W9up1VtkkSb8jhLvqvf26NEjmL3ttUcWTUHeR/pw95qfJnndzAcPoJ1TuVyen5+/o9XC2tqa182bjrJauLVMW12gyETftjcjxgaxOZQjI/0YFvNLGuVIuCHVaTvX15VJIx/pac8Q8r6mkT+vKLnitJ2rr02yGE8vzZFvLdNc9vMU4mcM2hejg5gc6hFmzhdVZVfV8hOrC1SD9nuP47y/KqExkOywnZOLj91coi1fJ5sNp8tLrujVJ5Wy4wM9WdHddXOJplK8lr1NTk6mpKTszt58bc2Y6Mvfd/pwo7D97n1dH9nb7+hF8UtXdX193WAwxLA3UIlHjx6xpZhDvc1bxqw17arSkKQiLAsNGEoaxJXN8uZRi9fPd1VzGwYMDQNGWzmrrBEKp11QKzBDe0z60KBR66J4/fzDSjKKArJAsBbI3vZmbzF6UZGFNtinV9gILmgvyWwspCtshPKwTKTHMISpBi/NWgo5sjIWQCa0JQ2S2i6No5KtsBLwzHi9l+au5vlalWWNEnt5nqmIXtOhFuoxjkp2UUCo81BdPg5wjFIaknBVqFT0abEesy3c6uaKrjGIf7/sDcyW+fl5bX7uIUdwPw69J7E71Mxsm8jPL2O3d0A+6l6+fAls+F68ePHkyROhUEin0/cwr47caG8qGcl2gMShG17aoKgL1EXeDo2NjWQyOSJiAOZH+S7tdvYWHrHUQLu3ykCPLjxi8bUp67qh3dVgnx7WyzRVhOWlIYmvVVnfp/f6+bWdmrpurcvHLQ1JGvoN1e2q+j49UEKt69ZWNstDA8aioKi6HdJvq2pRlIWkBXUCqQlX3wfZagi0aFvZztOgtutflb09fPjQoPtN75zOTxM97k3Zm0wm287egLXs2toz7zbZ2+oCRSr8ti2cPjGMpZE/V8mP19cmhRtSOawveXlfqRUnThz73/nmMzbz6cnR7HB9Cj77k/TUP3a1IYEgTa8+2VSfTKceGR3EOPPPMWhHhLyvURl/NmhPItP/pJKfwGM/IRP+ppAeS0v+I5P+hdlwSir6pi2chsN+IuAeXYEFeBHec3OJqpSfjzwYk5OT22Vvr169unfv3uPHjw8ie7uxSK33J5r0p0y678tL4lbmIcb5jri5RAXYt5y+zqzq6srIY/8x8bEHonvg1atX22VvIMPTp0/ZksOxt/CIRWzAfvrl/yXkxrPlGWmYMynoU5YS5olznwFFb7kFn50TdyX1mMyCP3f1KyIrIRtybUDJ4adcTv6mum3Tr9sB1j+I95QEIfa2t+zt1atXBrNqR9lbeMRC5SUzRGlEVoLYgMkiX6RwEqm8JI2Tcj7+K3c1Nz79BEeRgcSf4ygz6YIUmQUvNmAziRfyZBmE3ASmOF3tIIsNWLowFUOLy5WmHz3x33lSBGRdS7mkzCeSOYk6N5WUd42Qm8BXo5D4c76WHXTpYNnb7569LSwsaGHZ2x5jV99vqAjLKlsgBlDbpakIy4Aj/uo2ZUWzvHXMVt9nKAoIS0OS+j4DiGZRDauONQ2bK5vlZY3S/DKWs4oT6NEV1AoKA8LwiMXl41qKmQdwiZxvL2d3wOwtev5fv37dZrPNzc3JjPvovcW0q7JZrnFSnFWcxiFTfjlL56YGenTF9aLQoLEwIADGN9XtqtJGSWGdsHHI1Dxqcfk4hQFBRbPcU8Or6VDHFLj319J6eV3da/YWDocJBEK0pcuzZ89sLk3tNtfQjsq88/FfJSBOIAnnBDp0YsbJ+PTjjkp2Bv5cOu5sniIjmx731yP/mSeHzEdQpAvJqO+5yoy4lG/OXPlSbMRSOIkGbw5HkSHQoNUOEo5xVWUnffntf4kNWMjkAn9OZsYlZ33PU6GyKJey6ZBPu3NXvwQuQmJaVNup0Zml0Z3/e0m/q+zt4cOHO+6cLl8n93dldrUhO1sRC7Ok3dbyyGL/hkrZSk70+UgaUCJQVOTk9kTMvSD25qKDndMd2dtPP/00PT394MGDHXdO5eJj7eH0iZFsGvlzhfRYc0NqRwuCxfg7hfgZlfQZHvs3i/FUvuXs7AS+qxWBRf8FkfZfLY1pN5eoK/NkqfDb1qY0Ou0Lf1VCDuVzpeyYWPANHvtJeUkcAfc3teIEN+8rueRbheQYCf9pre8aEf8pj/1VKJCMx/yVQTtyffqNndODsLeNjQ2/3280GgN1Za1N++i9LV8n8zlHzYZTlaVXsFl/GelHD3SjuloRqwsU2KNH6ugA+sYidagvK1yfMjeJ7+nImJ8mri5QOluRC7Ok1sa0QE3i5Ei235dQWng53JDa25lZWXalOZR6c2l/FjjQg66sLPu9PCcf6/kL98D6+rrJZNJqd4hg8/Tp0zwJOuYVvO/XpiFTFvlSTYeaykty+jg6N5WjzDx+5m+QVwhmvMFLw+bEfXfuM54aRRemNPQb0jCntS4Kmnr52OlP9ggwCqRlMcKPaPY2Pj6+Y9ftwd4a+g0Y6mV/p7q+z8AQp1lLmWWN0uycuECPLotyMTRgRFMulYYkeVKEwkrAMa5kEs+XNEDhFmylLBL7GlOcdj7+q7NXvswRpCRnnUKRIB9aTHHaV8f/zBSnaZ0UgSarrFEKXKWkZ59NQZ/a0RICsLfHjx/vWP/fy8mDsDeRAXs1/XgC4oTaTrqG/C6LfJEuTHVXc5GE85C35zKWzkWNTz8Rn37cXcNjiNLKGqUUTiIJjuFB5SZrXZRzV7/CM68qbUQU6SKKfPH/Z+89v9pIuvXR/+N+vffTXXedtX7hvue+Z8457wSnGY+zjbENBkxGJOUshHLOOZNzFCJKgCQwOUcbk8HYHnucsy3f6W7QyAIEOA32dK1nNdWl6q6qXdXdD7uq9raUZ19BnCSAux82EfT3Zio7JgHd22b29vr16xcvXqyursoMe2NvHGV6QsbpZNS5smYhiR2LpESIDWgsPbrWq8ggXpIYMfpiqraQzFGmE5lXyp2iln4dmnY5v5YN1Jx4absFattNPQext46ODhwO51cxvHv3bjv2llvDovETixv4KEokkXWlqIHHlCJI7Ct0UVJLv76uA9hXkYoLdw0ZdIUUbFbUmYs/ZYuSIuOPno86LDFiyJw4Y0kWSwbY2FPnkVDUyBRMWEzKcaEO9V8//U8UDbCZzJQhPOOWdOJFBDbsUtwv4dGH67u2+DessUf7N2Vvjx8/1mu30L31dKamI75jMw7Hx/6jrjpmdYE8OYpenCUuQZgjzV3Dry6Qx4aQN6ZwgDGwG4T563hopde1CWxPB6L3aur8dcLIQOZgT/ryHGlkILPTnXJtHLM8R+rpSB3oSV+YIQz3ZXhak66NYxZBMtHdgdisQALZG/X+/fvQzKnNZguaOX369KlSqSwpKcnPY18bf2/d2+oC2aQ723s17doEViL8td2ZyGEe4TCPVBRHYJD/ba+KNmjPtDUnsBmHOczDZUWXzIazjXWxevWpxRuEq56U8LB/Y9AORlz8H1bTOQL2exrlgNV0Tq85vTJPyrWeryiJaHLEXvWklBRcZDMP02kHdapTRXkX6muvlBVFFOVd6O9KC2KiSlmY/8GYnp6Ojo6em5u7C4Y/DLvfBsP09DQajUakxLQ2AyrAEFiZJ0mER7u9wLJFPPZ7s+EsKuM/qaSfyosjtcqTbOZhGuWn1uZ4RtZBPufnfNv5+Cv/b1X55Z7O1PNh/1ZREkkj/yQW/KpWnJBLjiXG/3tV+WUs+l9qxUkq6cf+7rT36PhW1RgZQFVXl38t3wC4nl9YAj6fz2q1qlSqzeV+gO4N8gqKogBmPxniZIUVz1NliI3oqMRjEiM2EXkuCXlOqENdQZxky9MSkWdNZfQk1LlUXLjcgruceKzcuTf38CB7a3jw4EFaWtr4+PjmJrx79y4Ee2sfMROZV5Q2gsSIEWqRFG48ZF4BZG8RrcPGuLRTLFlqBvFioYOLZ8QATrFq2eejDmeLkmNSToAfNpo6j0QXJ58I+0FmxiEpkWx5GkeZjiRHyC04wF4xL56rTCcwrhBZsal4wIbIVvQ3R2P8JnRvOTv4ORVoMnVFVJ46Q6RHJWSecfbrUVTAmZi2gFLhEuOyo0U6lMKKR5IjHJ0qFAWwRyPQIhORZy/G/mytZHjGrWRufFmzkC1PNZfRLRXZ2aLk81GHsfSoTNIlZ/DSxmD2llvN6excNxQSNFRu3rwp1ZO26pqgm6yfeidsWeDcOooSUe4UMSTJsakn8Yzoywm/phMuHD39XxxlekzKiYj4o2RO3OXEY8CvzJgUdFhjj+ZS7C/YrKg9TjHbqlyKP7xj+avd0dGBxWIDdW/Pnz+3FWg26yDz7Wy6KKnCJUZSIkicWHMZncKNY0pT8MyY0mahrYrZ0K1Ow4fXd6kSkWcVNnxkwq8MCaCNRlEjKfz4TPIlrjINRYuEPC6ExxzJJF2icOPFBnQKJgzwpmrCZJIirBXZ6cSLmKzL2aLkZNS5/DrOZmE29Wo1RrG/CV9R5GN1b0+fPtVptmBvVz0ImfjY/AzBZjpXXX65rDiCRPhRozzZ0hDXVBdbUnhJozxpr4qmkH4U8Y/W1UQ7amLMhrNuZ9KtZWqTIzY1+T9I+B9qKqIY9EM08gFHTQyPfYRG/onP/rmtBaBQzKyD9bVXUBn/yWMfkYmPORvjWdmH6dQDXZ7gLRQb7O33d+/eKZVKkUi0CIalpSUoMj8/39HRceXKFTTqXBB7W1uiTgyjFmYIK/OksUHk6gK5y4voaEsGiGN/5tIs8do4dmmWNDqIvOpJmbuGvz6B9e9acDbGaVWn+rvTC3MvVpREDPVmjA4i564BDHVtiTIHGrBdnCWuzJMWZgAbKFMgu4Us2S7PkZZmSctzwVOZStl5P3ubnZ09ePBgYmIiYiMkgyEpKeno0aP/1//5f9RVXwlB3W4tU1fmSTLxr90dgMQIuO91aoA7jg0icZjvycQfF2YIWtUpVvah4rwLCzOEvqupqIz/ZGQdVMlPIJL+yWYcaai7MjWK5rKOeFqT5JLj1yexLMbhiWFUjjnMURsDsrdQa+Ng9vYODttLwOfz2Wy2Ldnb8+fPGcJQzig3v6ABkwHjVoEW2dSjKW4UZJIv4bNjajzyFExYOv6CxIhR5gB2fXHZMVIzNhL0BGouz7aUZ2OzogjMKztOJwXr3pyyxibH/fv3Q7C3d+/eGcyqoHVvHZPrC49Km4VEVqxQi2zo1nDB6dFaj7xtxGQqy2ofNafiwomsWLkV19Kv56kyWPLULGEiJiuKp0qPSzslM2NBexDK0mahoZjW0q8rqucBS/288rJmUVW71FKRrbQR6rvU+XaOzIzNrWFBru6D5PZt6N6WlpY0u2BvhmKqQIsE/Kdlnm3s0UA2Y9V5pNJmIeTiQpNPTsVdqPXImVLE6Ys/VbgAt1SJyLNKG94zZqHyE0ubhQJNpsKGV+USOYq0qMRjYh0qnXBxM3F5X845BXaex9u+5aNw+/ZtsZb4fv6teRtkFMM5aEjDXzCW0BDY81xlOpEdS+bGEVmA+xBdESUq6bhQi2RIUhiSFJogMZN8SWHDp2DCEjPPVrZKLif8mowOaw12vBtcXNBQr2lX1jn+NB2wJXvLKdQ1dAU71S1tFoqNaLtXATghLc0C7OcRL1a3S0GF8RllDr6lX89VpLsGDRxVeiouHEmJgKzWZZIumcroWHp0EvpcbNqpyISjKegwhiSluIFvKs3Kt3MMxVRLOd1cRhfqULjs6MJ6rqGIisuOZkoRkGPTIHk29eo0RtGW8t/niZ+KvQV/p7s8CKno2NIsMd8WbtSdZmQdnJnE8Tk/a3/6oCMAACAASURBVFWnjNozGakAORPxf+m7mtbpTi7MvZAY/+8i/lGIr6wtUXItYY6aGK3qVLszsaM9mcM8QsB9z6QfopB+HOrLNOvPZKR+ZzGc5bKOTI9hJKJfmxyxes2ptJT/qKmICqIsgeytrKwsLi4OAwYsGKA4Eon8xz/+cfzY/whib0G32uo0uOH+PEuzxHlw6nNpFnAt4E//iAgtkL29ePFifn7+/v37kLeJR48ePXv27Pnz53fu3BEIBKmIK2270L0FsjeN4qRBe6bLi6CSfiITfxwdzBQLjsolx3WqU4O96Y7aGAH3Fyz6Xxmp3/HYP6sVp8z6s+3ORBH/aKc7RS45PjOJw6D+u6HuioD7s9uVuBvdW1UVrHvb5++Hv6x6Idjbq1evsgV7M6MQ9L4OcVpUzwvtpzzEtf6fKl3yhsa6Hdmb0aJ2Duj9V4GRnZeNeyesXFU65GLV3qEgMK9UtkpyqlmNPcAHMt/O9ntfff/OwZ/h3fyqNYm39MX3lw2LvRe8vLy8I3vT5pNtlQxVDlFuwR0/+y8k+RKZG19Uz0vDAZ4qpCbsibAfkpDnTl/4SaBFqsDZ1dYhI1+dWdYioguTgC0mVnytR17hEqOokWja5cpWCZIcgSRHcBTpO/GhnII6ntuzNXu7c+eORLcH9qYrpJy5dCAVF3764k8MSQqGdjmTdEmZQ1DY8M19WokRk1/LKWnklzYLzeV0uig5jXBBlUNQ55GsFdn5drapNMu+1QrIEEOlpl0VxN4wGEyQ7m1L9radDbbATa8Bu6dBC3ATNmAn78ZmXqhWNW7AmX2IGu74E8zegmfour0ImeT40hypMO+CXnOKwzy8MEOUCH9Vyk5kpP2nkPcLh3lYyD/adzVtsCe9KO8CIumfXBaQB1rclmsJq6uO1mtONzviWpvjeawjdNqBorwLeAwwN6fXnGbSD5p0Z0iEH3o6UwWcnxWS43LJcWb2odpKgL0FOrkKZG/Pnj2D6M6jR48ebzhaf/DgQU1NDR6PV8ix0wEzp4E3+QjK9ck8Zd1apqrk558+fRr6DeZyuQwGQ2NDpbdth3Vvqwvk4vwLI/3AzlaN8qRRdwaR/E8i7vurHkSD/QqF8INSdmJqFK2Sn8iiHmhpiCsviairji4puFRZGjnYmyEV/cphHh7syZgcQdfVxNyYwjGyDjKyDpr0ZxdmCKDEtqW2t5apY0PoioqS0G2Bf/3bSuCvYm/tI+aW/iBGtTPvCVJIfFb21jFpcw0aIDMf7jFLc58u0FAWGN+5wjt+0sCPq+1vwt5ah4xtI6bWIWOtR56Gv1DTLnMOGrwTgMHnuk5lWbMwW5Rs71AAW33VmRRevNSM7Zi0tQ4bAbcBYM62ERNklqW5X9fSr/NO2FoG9E292vYR806i/pTszVqRrSukNPVqDSU0S0V2S7/eOaBvHzG1j5i8E7a2ERNgTwS0iOseA7x3uIaM7jGLe8zsHjN7xgFLuXs1lQKxN78Rru7ubiQSGfiRev78+XbsbSfJ7MrIi3fc6ndYt+MNt8wAsTd/E76iV+7H6t6ePXumUSVvdtPZ15Wm155ZniNVlkZWlV3WKE/y2D8zsg5WlERkpH7X6U6B5uno1ANc1pGqssjK0ki9+lRLQxzE3qrKLre1JHR3APsDsig/NdhjeOyf6dQDHObhqrLLWZQDFOKPJQUXkxL+nU49YAFWm12hAlbZDrQ7E4OY1vwMoTCfcv8+MHO6ZXjy5InJZBodHS0uEk2NYYIu3+k0FEHZ6dpgyrtTfppWdWFLEyH+dvl8PsjHnNvd5Gndgb2tLVEWbxAh03QLM4SKkoiKkojrk9i1JcrNRcqNKdzSLECml8FFijcXySvzpNUFMoS1JWDidRHMAOYHDODp1acmR1CrC+QdFW+3lqmTI5iysiJ/zeEILIFACfh8vtzcXLlcHpgIxT+r7m3L9/teEyH29vDhw7S0tNHR0c1NgFI+TPe218p8TH6NUfR30L35RdQ2bMqtYftPoYh71NwCqkghrmwup4dY2h907S5OcwrreO3uP12FBo4WQPe2l5nT9hEzZCXYPWp2gyb9dlGBj+L6Ne0qe53dT316e3uRSGSglZkXL17kFOp2XHvwuesZ4v7NfTq1QeBvQqD893n8A9mbz+ebm5tbWlp6/vy5Wpm8mXYszhKnRjEQCZi7hp+7ju9oT5kcQc9dAxZ4rcyTZiYBctDflTYxAiws28C67g1Y9TVPWluiTI9hJkcA67iz0/jpMcz8dcLKPHl6HDM7jR/pz1RKT4wNoZbmAFYxM4mDdkQGVWZhhlBYQP79923Z29u3b5+DobhIvHf2thsGthuGt5s8VJ16B/YGjba3b996dsHeggQ1NYq+No7ZDfEKuhA6vblIuT6xbqZ4I0OoRsHsbZ+/Gv7a6vl8voKCAql0i538r169ovMzgs3VfqgJLr+JtS3e7+A0jX8qZz0ybgW0LONWv64CiID6DA+gxgBQ3ix1NNgfPnyYnp4+MjKynSStOQZbBafIISq0CwpA5NXwc6t5udXA0VbBhWAt45hL2JYStrmEbShkAihi6guYurxsCOocutoGQGXNUpppChNNYaLKDBSZniLVUyQ6kkgDQk0UKAkCBQCeDM+R4gBIcCwRhikEkM1H0bkoOg84UlmZFGaGUi0N/BJv15D9nL6ysqK2MgNHS6ge3/UoCtK2bjF4dnurnOIGoavVuaUM7969K9IQAyv/EQVtrcracnh7Ng9vUGkHmgK2Qro66FjVqrDba/3UB2Jvgbq3Fy9e5BUZ6q8Chkg2lxVcEPQobTxH4AMF6AUBgHy0fdS8GW3DJgitw0YAQ0bXkNE1aIDgHDQ4BwzOAUAN2dIPQdfc54e2ul2m0HKD9jJu2R37LfHD2dvQ0BCVSp2dnd2SvW18v3dDbj4wD7SUHlIdhShuR/YGdcnLly8+G3v7wAZubtRnZW+Q7ZXNhX6mFJi97bd3wb6qT2j2RmGnAqY+vcpar6LWq6h2yypdkkqXpMIlLmkSlDQCKHRw8+2cfDsnr5ZtrWRYKxiWCoapjG4opumLafoiqiafpM4jqvOIShtBZsZJzVipCSs2oMV6ACIdWqBFCrRIvhrJU2ZC4Cgy2LJ0CExJKlMMIFuEyBKkQKDykqncZBwt3m6v2ZG9jY+PV1ZWVFZVVFVX1tRWAaiprrXX2usA1DnsdY66Okedo97R0FDfAIT6xsbGJig0N7W0NLeAwelyusDgdDmdTieU2NwCufpsbmpqatwI0E0aGurr6+sdG6Guzg6F2oBQDYaBgYHXr1/vq4Gx18qsrq4GsTeAQ6zzbyvEtt2j5vYRYCYRmD8dNkEkwDVkBD78EAb0LX06CE29WgiNPdqGHg2Abk1dR8BQbPUPRSE0FIvqef6haAOHorWCYQaHoqGYxpalN7f8aTItsIF3797lyLCNUCnvF1TjllX+WZCguIFf3MAvdHDzatl5texccMxbwJ03ptIsfRFVV0TVFVLUeURVLkGVS1DYCBITBoIIGO0okQ4l1KH4oJ94viaTq8zgKgCw5eksaRoEhhjBEAHIFiKy+Mk0fjKRkeRw1AWxt0DG/+LFC61BxlGkS0wYsWG9IJEOJdCsl8VTZUIFcRTpLNlGQZLU9YKAhwsoiMZPpvKSKBwAZE4iiZVAZAIgsRLJrCQIVA4CAo2blsVLh5DNR0JgCFDQfylMIYYlwrFFeLYIzxHjWUK8zqD8Ztnb4uJifX291+t1u91tYGhtbW1ubiYQCPHx8TxOBPSB/3QLxbamO0H391t6C00vAPaWH0r3Bj0tL1++KCn+QN1bUMVC1+cDfvXfX6+5CDmNCHzCN8ch3Zt7p5nTzTVZW6IszRJvLlJWF8gLM4T564SlWWBqdXWBvDIPHG9M4VbmSfPXCdfGsdcnsCvzFMjf1wdo7CZHMWWlhZsrD6fAEoAMamyne3v79q3FYlapFQaj1mjSGU06s8WYm2cFYSsqLiguLSwuKSwrL6mqrqiqrqiuqaxz1Drq6xz1dQ2N9U5Xs8vV7Gpt8XjavR0eb4fn6tWOnt7u3t7u3r6egcH+waGBwaGB4eGhsfHRsTEAU9OT165NT1+buj5zbXb2BoC5G4uLC0tLi0tLi8srSzfXbq6t3Vy7dfPOb3d+u/vb3bu/PX/+/PHjx6F1b3n5OVRmJp2DyuJkZnGQWWxkFjuTyk6ncTJo7AwqO53KTqOy0yisVADsVAoLQWYmk5kpFFYKmZlMYiZCIDISiUwAZHYSjZtM46Vk8VKyBalMcTpTnM6WZnAVSK4CyVOihBqMWIcV67ASPU5mJsjNBLmFqMohq3Mp6lyKLp9mLKIbi+nGIrq5jGkpZ0qVvK/d3tu9e/ekCgFPnMUX0/liOg84ZvMlDL6EIZAwhFIWBJGMI5Zx1yHnSRR8iZwvVQhkCiEEuVIMQaGSbkCmUstVGoVKo9AHDMWcXGgoWguL8oGhWPreULTXrQ/FxqYGaCg6XS137tzZ8ql/9uyZ0aRXqKRQKUBBBs3GmDcEFlRUUlBcUlhaWlxZVV5ZVV5VXVFrrwH/AbDXNzhanE1OV7PT1dzubvN43R6vu6PT09PTBaG/vxcY9oMDQ0MDo2Mj4+Njo2Mjk5MTU9OTU9OT09embtyYATA7s7AwD435paXF1ZurN2+urq3dfPr0qZ+99fX1ZWZmBrK3t2/fzs/P9fR29/R0Qc/X0NDgwGD/6OjI2NgoUNzEGFTQ1PTkzI3rUFlzc7NQQYtLiyurKzfBsm7dWrvz223gEfvtzu+/33vw4P79B/cfPHzw8OGDByAegvGNI7Sd7+FjMDwClro/euzHk8dP1vHk6dMnL1489zdhy47Yn4k76958Pp/dbj98+DCLxeLz+SKRSAwGqVSalpZ26NAhBv38B3y8N1OHz5QCsjfi77/fC90BL1++LC2WTI3udd3b1kTzM7XFrL909+7d0A2Bvnxeb4vbtcO6t82V9LQl0cg/6dWnK0oiEcn/xGP+ZTOHeVqTvG3JjXWx5SURFOKPZsPZwrwLifH/H4d5xFEbQ8T/wGYcnhoF/LTuCVOjmNLS/K/xP54d5Q9n+HgJQLo3iUSy5a0ePXr0x47Oe/fu3QWD39jh7du319bWboJhZWVlGQyQbaAFMMzPz89uhOsbYXp6egoMk5OTwBdldGR0FPAU3j/Q3z/Q39fX293T3d3d1d3ddfVqp9fr8Xo9Hq+7rc3VCsLlamlqbgTR4Gioc9TbGxrrl5aWHj16lJ6ePjw8vGUT3r17Z7QAZv2b+3TQ6nJwcgec7gE8dxlah43rU0IjJv9s0fqqc3Ci1j8P9TGzaSGuBS2GCEMvtN2uafsn/e3btw8fPrx///4DMDx8+BD4kIPh8ePHTzbCs40ALqJ5/gIML1++fLUR3myEtxvhy3zvfWDYP/IMXZOhoaHU1NSvnfGHbuP++XVn9vbu3TuPx4PBYF68eOEfST6f79atW2Qyua2tTaNKu7mVbf3bK1mhP+cfmiF4NVXo+yzcIBYXkn//fQfS8/Lly/IyRWj2tlVBwZUBd7x+roZbDBG//fbbjqPH5/N1dDjdraitKrwFx4KyrS5QuKyfO9qTVfITddUxRu2ZuuqYsuKIgpwL5SWXVfKTJPwPebbwNMR/XJ/ACnlHezpTh3ozSgsv4bHft9QD2012LC4ww9QotrS04Mu8AXeUGJxhv0nA5/MVFxcLBILNFXv16hUKh6BzMxkCJFOAZAiQDCGSJUYxRSimCMkSr4MjRUFgy1AcGZIrR3LlKJ4CzVOiIPBVqHWogXkcCGIDVqwHIDFgZWY8BIWNqMwhKm1EVS5Rk0/W5JN1BVR9IdVQRDMU0YzFNFMp3VQKmJiyVjBslQy5mWCvq/6DNGRkZAwMDGxuApRizdEH+X/cvCRrc0oQ39qcYXPKdobyA2+15VUak3A3yv7tGgin/90kMDw8/IXZG8RJQhw3yPZ7fzeo+Prfr1SJsCv21tnZCbG3wLHY3d3tcDgeP36sVaffXKSEJmp/4a8LM8TCfOK9ezuzt9IS2eT+1r3tgb15nXvVvS3PkbJpB6fHMPk54bWV0TZzWIP9Su/VVArxx9jo/83n/JyZ/p8a5UmV4sT8dYJccryvK60g54KA+wse/a8mR+xeu3hqFFsGs7fAJwqOB0jA5/OVlJRsyd5ev36dLchsH4VsHPh3D1jBFdD+o8WzsbYJMuXg11StR8YBC1Ib2HbbnXcCWGoNLbgO5Dp/xt+3PgWlV7XKHQ21jx49yszMHBwcDGjWe1FrrmHT7sVt7b0Fsaug0z/rs9vF8ts22X8r74RNaxZBXmreqzd8AktgGwkMDw+npaUF6t58Pt+zZ88egOHevXt37tz+7bc7d+7cXr25uroK6McXFxfm5mbn5mZn52aB9QnTU9PTUxOTE6PAvOroyMjwwEB/X39vX39vd3dXZ2dHZ2dHR4e3vb2trb21tc3lcjmbmhsbmxoaGxvqHHZ7XY29rqampqqysryyqqKysry0rLiktKikpKiouDA3zwbBYjWazQAMRp1Wp2lobPgaCdyu2FtXVxcajfZb+Yc6DmK7L1++1Gm+IfY2sq9nTi2GiO1WSAQ+TYDuzets3+PM6doSxWo8J+IfZdIPdXcgSgouttTHQSvh6qqjC3MvqGQnhLyjEuGvizeIJv3Zod6M4vyLHOZhdOZ/tbUEG2rZkcxNjWJLSvK+xmcmUNRw/DNJIDR7Y4pQe3Xp4yclXyDyOdjbF6h2UBEQe4N1b59phH+Tt4V0b4FWZl6+fKnSSDPwkRhaDC47lsiMh0DlJtF4ALIEKQxxKgS2PIOjAMBTZQq1aKEWLdKiJUas1ISTmnByC0FlIwLIIWrzKbpCqq6QaizOAtTegOY721bJzKli5VSxcmvYBXVcCMWNgpImYUmTsKxFVOGSVLRKKlslNW5ZrUde65HbOxSVLolcw/kav0Qfzt6gwffq1SudJmN1V7o3mn/1/ZafdvDXLSYit8y8+0RQ90a4e3eHCceXL1+Wlconhve8fmsXNflkDc+xRKytre342Pt8vs6O1nYnahd1e28i9foEprEuFnQXS54aQ9+YwkF3uDGFuzaOmRpDtzYnDPZm3FykTI1iQGcShHZnYk8n4JF2q7JCNXxqDFtaCrO3HTvzb5ohNHtjCJGecUAltk8QZD8CYG/1NTvq3mx5RshBQkArttW9BeT5Qq2GdW9/02fvI5o9NjaGQCCC2FtekdHRqdrQc/+p8N6U4v8JiEADPkSeT/VENPfpVHr+mzdvPqLdf82ln4C96bWolXnyVh/v95jBX5Vh8QaxKB9/9+7Wm3r8Un/18mV5qfLzsLdPJQdarjXy5s2b/jpvFwHYW2fbB7C3L9lH02PYkpKcr/GZ2U7scPonlIDP5ystLeXxeJvv+fr1a7YYs6NR+E/1cv+A+1S3KeyOKoi99ff3b24ClJJXaNlkxXQfsbeOSZvWLAxhKXO7dsHpf1sJTE5OJiUlBe50efnyZX6J2QHae/uAR+kLXAKzt92wt93o1XaTZ29kaPfsraxEMdiTuTBDhIxlLMwQ568T5q6tYxZ0MD87DbiZvzH1J2YmcRCuT+AgXJvAXRtfx/QY9to4fnoMOzW6jslR7MTIBoYx4yAmhnFjgxgIo4OY0QE0hJF+NIThfvRwP1qluPBVsbdQvQmxt69RX/23fTV/4YZXVFSw2ezNhYLsDbufdW8Qe/vDFx8Kherr69vcBCglv8j6AeztC6x4gz6ZoO4NZm/b9R6cvoUE9iF72/F5Adib4dvVvfX19QU5L/P326tXr76w7i1w3+JudEW7ZW+vXpWV2lQKhEGXbtRnGPWZIJBGPRqCQY8x6LFGPQ6AgQDBbCKbjCAMZJOBYjJQQdBMhiwARrrJyDCbILAsJs46zHzLOgRWi2gDEptVCkKWY1Pk2BQ2myInR5Wbo87JUefmaPPy9DabIXBBqL8XgiKQ7q2tZc8zp7uRJ5Qn9CT4bu4zPY4tLrbBuregvoNP/RLYib1ZvsD/5R9WxGdlbx9WpQ+7Cta9+UcjHNmNBPYhe9tx5IO6N97X+CXa1czpwMBAZmZmoPsLf0fuhb2F0sRsfO93k2cH3VsQsQDZG+7ubzvMnPp8vocPH966tXbr1trt27fu3LkN7Y75bSNAlqXu3bt7797d3zcCaEbo/oMHgDGhdeOAoD0hyEIgZE/o6dOnT548eboRILtCkFWh58/XDQu9ePHiZUDYsDH06nVAgDY378bEhs/nu3rV3foR7C1Ihhu9s4PkN2UL1ZvXAPZm+RqfGf/ghyOfVQKh2Zt7bB+xt6B1bwB7q6v8w6ZYaN1bQbHN0anqmLQ19Wr1RVRDCS3IgMjmD8+OioTNl3xwinfCpjML793bwVLmZx0D8M2/LglMTk4mJiYGzpy+evWqoMQCjfM9DcVPONRD36qlX6/Uc79GnyK7Ym/9/f3bsbfXr18bdJjlOdKmL/dev/SfKz/I3rC//Xb763oMPqa2Pp+vq+uj2Nvn603Ipf3NRfL0GKa4CGZvH9PP3/i127G3N2/ecCQ495jZO27Nt3OUOYSiBr5/mfOevhC7yRz61b/lHarbFbV1FY8ePUIikSFmTovL8uxeRcekzVxGj009ReHFk9hxrUPAVgbngKFj0uYcMNR1qlr69d5xq+OqynFV6R6ztAzo20fNjb2aqnZZabOwxi1v6NG0jZgaezRNvYDTxoI6bnOvzjturXCJCxzc9hFzSZPAWJpl9yraR8051cycKqZryFjZKmkbMZU7xdVt0pZ+fblTVOsFduHJzNiqNinYrhydRQSzt2/8Mfukzbt+/Xp8fHyglZlXr14VlljrwP9StnxY/vJEmL3B7O2TPgQfdzOQvXlzbYnOxpTm+nU0OZKbHIgmR0qDPbnenuKoTXbUJturkmpB1FQkVVckQqgsS6woBVBenFBalAigMLG4YB1F+YkFuUmFuUkFuYl5tnXkWhNtFhDmRIsp0WJMshiTzMYkkz7JqE8y6pIM2iS9BoAOQLJOk6KUJdrtVfC6t4/r6m/2ap/PV11dzWAwNrfwzZs3XCm+fdTcOmRMQp6lCxNTMOdtVcyGbk1Zi6h1yOgZt5Y0Ap4f24ZNTb3afDunoRtgNs4Bg71DWeOW2SoZOVVMR6equl3aOmwEOZAsr5Ztq2K0DhsdV1X6Ikq5U9QyoFfaCPoiaku/vqpNqrDiq1ol1W5ZQ7em2i2rdstKm4SNPVpzGb25T6cpICtthJZ+XcekrQZkb38o4NFodHd3d1AT3r59u7y8/OrVKz97MxbTWDJEc78uGX1eYsTEp59G4M7bvQpMVtTlxGOpuPBCBzcFez4y/qilIpvAvCI2oFmyVIYUcfDXf7LlqXRRkrUi+1LsLywZ4nzUYQLzSgbxorE0KzHzbCY5QqRHJaPPoamXk5BnzaV0PCMmOum4roiKpUdXtUlRlEiGJMVQTDsfdThblIykRFD5CQjs+bYRE6B7g9lbUOfBpyElMDMz82HszT1mae7TesatriFjS79uN/+M+f+t8kc+jAgC7M3w7ereBgYGMjIyAp2X+Xvw9evXRj0W1r35BbIfIj6fb3V1tb6+ylFX2lBf0dBQ0dBQ2dxU3dJc62yxO1vsra56AK317W1Nbnez293s8bR0dLR2drR1drR1dXm6u73d3d6eno6+vi4IAwM9Q0N9Q0N9w8P9o6ODY6NDo6ND4+MjExOjExOjk5Nj09MT09OT09OT169Pz8xcm5m5duPG9bm52XkQfqeQS0uLKyvLEB4/frybieD9IFK4Dl9eArW1tdnZ2ZvLBdkbwQ2yt0zipfoutTKHwJanYrKi0ggXBFqk46oqPPpIZPzRfDuHJUvF0C4TWbFSE1adR0JTL+uLqfHppxMyzuTVsrH0aF0RJSzqEJWfkJBxBkuPkpmxJE4cmRuXTgAI0BXESSQlQmLE8NQZTCkCSYkU6pDWSoZQhxIb0FReglCHOnbue4UVT2TH4hkxmjzSjuzt9evXYrG4ra2tqCQX0r3pi6inL/6EwJ6ncOPjM86gqJFRScfUeURM1uUCBzedeLGqTcKQpJyNOMBVpp+/fCgWcRJQpI2YUzDnW/r1dFEymnY5Iu4oW56GwIY39+lo/EQkJUJmwVW7ZWja5ajEY0mocwmZZ/JqgCafuvAjT51xLvJgXNrp81FHGOJkPCPm4pWfKdz4sxEH0wkXYlJOOAf0MHvbPPbglNAS+GD21tijoYuSmvq06nySvpgSyN68E4AJbsh0iGfc4hm3gCkWzxgQCUwHfhq3QultI6Zdbkv/xnVvIyMj6enpW66Xf/36tVSS4XElXfUgOt2IjvZ1eFoR3jaEpxXhdiHanevHtpaUthZEa0tKa1OKsxHhbEwBlUPJLQ2AfqjJAaCxLrmxLqUe1A/V25MdtSl1NcmOGuBYV51ir0q2V6fUVqXUVKbUVCJqKlKqyxFVZSlV5YjK0pTKMvBYiqgoQZQDSC0rQhTlI5QK3I723kIPyq/uV7/nEMjtqf/oj0C0abvjV9deuMLfngRqa2vpdHpgu65fvz49Pf3q1Su/7i0q6XgG8SICC6isopKOs+Sp8elnCh1cKi+BLkyyVTF1RRS6KDks6jBdlHT6wk9cZbpn3KrKJcotuNYh46XYX5JQ55LRYVRegiafVOEUY+lRCMz55j4dX5NJEySeuXggOvmESI+WmjBIcsTZiANUfmJkwq8nz//AUaRlEC8mIs9eQZzEZcdExB9NRoeJ9GiIvdXYK6A9p3a7fWVlZWkjLC4uzs/Pt7a2RkdHIzGpNW45MHNaTsfRo6rapK4hYwbholCPkhgxBQ5uCjqspEmQiDyXLUmhcOMziJdYstTo5OMIzPncGpZnzILAhrsGDURWbFjkIbY8javMiE4+UdzIx9AuZwkTs0RJxhIaiR2bgj4vt+IR2PMZyN5xcwAAIABJREFUpEt0UXIqLpwtT0vDX8i3cxDYcDIn/lLsLxxFOkuWmkG8qMwhyC048Btp01qEu3HNF9hHcPzvLIGZmZmEhIRAC8+vX78uKrU5OtWhFWPto2YSO9ZURkfTIstahAJNZgo6jMyJs3vlJE4sihpZ1SaVmrCxqadS8eFF9TwcPTqTdKmkUcCUIhydSq4yXW7Bm8qy2PI0phQh1KHiM86Q2LGuIWAFQmg4BwwKHefVq1dfXcftat0bxN4CTfD52/n27Vu7vbyoUFVSrC4p1pSV6gGU6SvKTZUV5ooKc2WltarKVl2dU12dU1uTZ6/Nr63Jr7MXOuqK6+xFdXXF9fVlDSCamipbmqubm6qam6udTjuEVpejra0BQGvDupbI3eL1OL1el9fr6vC2dna6r4Lo6vJ2d3d2d3f29Fzt6+sG0dPf3zsw0D81Nfny5Ut/neEILAFYAvtcAj6fb7PubWxsjEKhXL9+nScltI2YWoeNKegwbQG5xi0rquddQZyUW3AKK15hIwi0SCo/QWbBIjDnpSZMRPyvDElKXNppPCOmdcioziPKzNg/tHf/feB/0kVJaNplMieOLU+zVTIJjJhUXHhZs5DMieMqM5LRYTx1Rhr+QhLqnCafFBF/lCFO4SrTcdnRfE3myfM/0EVJmaQItiKNwo1X2PA51SyIvVXXlj1+/DglJeX8+fMZGyEzMzM9PT0jIyMtLe3f//3f/9c//q2yVdIxacu3s0W6de8RwBq4tFMpmPMMScqR49/FpZ8+fPw/ssXJCRlnoxKPy614lhRhrWSwFWmecUuWKKl1yCjUobjKdEt5tiqHGB51BCRnqTVuGTYrKoN4scDBpQuTMogXs8XJlvJsJCUCSY4wlWZB87xyK15bQNYXUYsb+Pl2jrGEhs+OkVtwoHsxm84q3I1zl30+luDqfTEJ3LhxIy4uLnDdG8DeynLqOpShKZR3wppby7qSehJFjWzq1abiwjV5xHTCxVqvXJlDRGDPK3MIdFGSUIfMJF9iyVMziJdI7NhsSUpCxhlNPgl4XqQIMjcuMv4olh4dEX+UJUuNSztd0iQIXS60ulSh53yNDGEP7G1L3dsXGxZwQbAEYAn8TSTg8/mWl5eZTGZkZGQjGOrr6+1gwOPx4eHhVFZa24ipbcTEkqU29QJLzdpHzWROXCo+nMKNj4g/mpBx5uKVnxORZ8nceDQ1EkmO0BdRc2tYPHUGtK7fVsnwjFmQ5EvA//RmbJYwKRZxEkmOKG0WGkuzUvHhHEVarUeRhDqXigu3VTEFWiSWHp0tTs6tZVW6JHm17Pw6Dl+T0ditMZTQ6jpVDAmCxI6FZkJr3EqIvaHR6Pb29ufPnwdsKH/5+vXr/v5+FArFEzCr2mQdkzbPuNU9ZgY/M4C1XteQwTVkUOYQrRUM15BRasIWOrhtw6b2UTM0T7Sd39WmXi2BGeMaDNA3bOWGdcfvGZQBmDm1wrq3v8kz92maubi4GBMTE7jTZffsrX3UfO7yIZ4qvaVfhyRHlDtF0L8ZicizEfFHRXoUhRtvq2LgGTEkduyluF/I3DhovWYqLvxS3FG6KPnUhR+ZUgSBeeVc5EEqL4ElS3VcBXw8hB7wzgE9zN4+TffDd4ElAEvgby4Bn883OjqakJBw5MgRFRjUarUODKmpqUeOHCFmJ7cNmzombcB+zI23c8uAvtYjr2qT0viJ1e2ysmYRmRvf1Kd1XAW2bbaPmNxj5rZhk2fM4h6zuEcBtuQaMnjGrW0jJokRrc0nt4CLvTzjViA/QJVsrkGDa9DgnbC6xyyuIWP7qBlaguMZB9biQFZLILvB7aPmdvCegO4NZG9/2AnCYrGdnZ1BvfnmzRuZTNbR0VFaUVjVDrC3APzpa8E5YIDa6Bw0tI8Ajd0RnnGL3avwC2TH/KEzQOwN1r0FdR98GkICiyB7g/xz+Hy+169fv3r1ape6t3KnKCHjTFmzsMDBPX3xJzwj5uT5HznK9BRsWFTSMbooKZ14saxFSObGqXKJKZjzaNplY2kWNgtYckDhxTFliCuIk7k1LKYUQeMnpOLCMfSoZnAXUehx/o2zt/Hx8dTU1C1nTkN0JPwTLAFYArAEPlgC9fX1VCo18PLV1VUajdbZ2cmTEdu2ITSecasTVD55J9Yjod/d0K8tfbr3VFYBVOkDdrTVuBVVNaXbsbd3797dv3//7du3ldUlkO4toIZ/sreAxJ1522fKrLMKYPYWOALheGgJLAbo3l6/fl1XVzcwMFBUmmP37jxzWuESFzq4njGLroCcSb6kKyRnEC9q8kjWiuzcWjZkzqZ91FzfpWodNpa1iAoc3NZhwLyOGzSg09yna+rRtI+YmsFnuaxFVN+l3s1/MgB707FevHgRumn78NddzZxOTEwgEIhAE3z7sCVwlWAJwBL4liSwmb0NDg62t7e/ePFCICe3Dhk/E2X5gNsGWeutdSsra0pCsDeom6pryyucwLq3AASzN8+YpXXY2DpkhPbZuQYNnnFAd9g6BCQCs66gBTg3uP/OOaB3gTnbhk3eCUCn6Bm3NvfpIOtxrkFDQ5e6pV/vGbfWdwH6yIByA+uwHvdO2PQ2we3bfyNLmd/S4/OXtGVxcfHy5cu3b99++fLl8+fPXS4XFosViFm1HsCu4S7huKqsdsu8E9Zaj6Khe4ftDru8Z4hs4K4FmL39JeMFLhSWACyBb1EC9fX1FAplc8vevn0rVFJah/fM3gIXjUH/lEMToNCbfcMqAbAKzW9rALA+ML7DupnNHwa7Z1fsrcZeUR6SvXknrNoCMpoamYa7UNIoUNrwKGqEuZyuK6Rg6VF4RkytR67JJ2eSIyQmbFEDH0uPIrHj6jqUAk1mY49WYsTYqpgZxEt4Rkx9l5opRSQhz2LoUdZKRir+AiYrCmJ1m+vvT4HZ2+bhB6eEkMDq6up3332XlZXF4/HYbDaDwTh06ND/+N//T2UrZP95twTOPwK/QARmbyE6FP4JlgAsAVgCe5ZAY2MjkUjcfBnE3lx70b15xi0KGz46+TguOzqnmomjRxOYsTXtsmR0WAr2vNSEzatlp+LC8dnRBXWcZHRYMjpMbsEV1vMSMs6k4i/sqKYK0r352RsOh/N4PJubAKXsyN484xYiK9ZWyaDyE7jKjFRcuECbGZ9+GjxN54Mm6DD06JJGgbmMTuMnavJJEiNGpEdFJvyqsOJTseGFDp7UhE1GnTOU0AjMK4ZiKgJ7vsIlFmqREXFHy53iEF9HSPd269at7eoPp8MSCJIAtCPnKhh6e3u9Xm9aWtqxk4erg9d3AjTOb61tu8gnyRN0k80D/htnb5OTkykpKYFGXIL6DD6FJQBLAJbAp5VAS0sLgUDYfM8P073Vd6mSUefM5XSWLFVsQAu1KL46MzL+V5ogMZN0Ka+GLdAiLyce46szk9FhFS4xAnM+384WaDLDY34ubRZufumHSAHZW/HTp0/xeHwo9lZXUd4SxJ/emzn1jFtJ7NiyFhFXmUYTJEbGH6Xw4mmChGxxsqGYairNwmVH47JjnIOGln49hRufb+eAJq9Sj5/7Hk27HIM4wZCkEJlXklDnVLlEXHZMUT0vBRNGFyWxZIjI+KOlTTu0S28TwOxt8wiEU3YjgTdv3tTW1kokEqNFs3nmtG3YlFvD0hVS8u0c16DBVsmwVTHaR0y1Hrkqh1jZKrFUZIuNaF0hpbpdJjGibVXM+i6VUIeUGDH2DkWhg9vYoylp5Fe3yypbJUUNvMYejak0qwg0fFPhFNmqmLZKBpkTV+jgFjfwCcwYljzVObDFagHnoEGuYz5//nw3jdpXeXa17u369evJycmBRly2a4PfSOzbjfDmzRu/p/WXL19C/teh/fMvXrx4/vw55LX92bNnT58+hY6QW/cnYPjD07M/PAAD5Az+/kb4/fff74EB8iIPHX/77bc7YLgNhnv37sHe0LfrMjgdlsD+lEAo9qagbrfJIASpIrJiK1xihiTFVsW0VDCyxckXYn6G/EqROfG47JiY5BNcZTqGFuUc0Cejw3CMGCo/ISL+aHEDP8RtOyZtm3VvFdVFT548Cc3eHA3VpU2i9++cE7hJwjthpYuSK5xikR4lNWNR1MtiA5qrSidz41Jx4WhqpDqPRGBeYUoR2eJkkR5FZMVi6dHWSgYmK6rWoyBz47KEiThGTELGGZY8FZppxTFiAErHio2M/7XCFcQd35/YAte9ra2t7c/hAddqn0vgzZs3w8PDa2trpRUFm9lbjVuWkHGGDlrqkZowaNrlNHy4toCCoV2m8hOo/ARdIeX0hZ/ERrTMjKXyE+LTT8vM2Pj00ymYMLY8DU2LzK/j0PgJqlyixISh8OLVecSjp/+LJU9FUSIyiBcB3TMu3FhKSydepAuTUJSIZHSYrYr5/uMGDPjWIaNcx/hm2dvMzMx27M3n87lcLpPJZDabTSaj0WgAoTcYNEYjAINeZdArDQalXq/Q62QgpDqtWKcTabVCrUaoUfM1ap5GzVOrOGoVW61iq1QslZKxAbpamQVBpaSqVRDIGhUEkkZNBEHQqPFaNU6rxmnUWK0aswGURpWpUtD/br4W9vmDDVcPlsCOEgjB3sSqrA9mb+pcYgo6LAl5TldIORd5EHIhhaJEpGDCzkUc5Kkyjod9n4Q6i8m6TBcmpWDCTob/ULQTewv6JNi9qoqqndlbfWNtSbD26z3dW8ekraxZ1NKvr3HL6rvU5S0ivjqz3CliyVOpvARdAbB1w+5VyEEHrK1DRlNpVm4Nyz1mrm6XtY+a7R2Kxh6toYRW0iiobpc1dKs94xZHp9I1ZLRVMipbJe0jkJG590nbxupy74TNkCOA2duOAxXOsKUEIFXOmzdvtmRvVW1SHD3KNWhAYM6TOHG5NSxbFTMNH05gAAYLm/u07jFLOuFCfZfKWsVIx184G3GAJU89G3EwPPoIT52BokTm2dlkbjzA3owYEis2GXUO+u/r1zP/HRF/NK+Wg8uO8U4A2ms07fKluF8uxf2SV8vevAvVBejevnX2BhlxCeqnt2/f6rTEge7MiRHM5Ah2anQd02O46XEA1yYAXJ/AX5/Ez0wRbkwRZqYIs9OEuWuE2Wn87DR+7hph/jpx7hphYYa4eIMEHomLN4hLs+TFG6SlWQDLc+SAY8DpHGkZxOoCZXmOtDJPho6rC+SVeRJ0nJ8hFORl3r51M6jm8CksAVgC+1kCLS0teDx+cw19Pl8QewvUVwURqcDThi41ZJWtrEVU2SrxjFtA+3AS56ChdchY7hQ3dKuL6nl4Rozdq2gbNrlHzXUdysZejWfMEnifHeMAe9vQvbnd7s1NgFJ2w94Axd5UMKWzVTHLWgCl3eafdqzblhm2vg/I3m7ehN+c23UgnL6zBN6+fbsde8NmRbmGDKm4cLo4WahHshWAk6tMcoSlPFtuwbWPmNMJF2s8MiQlQp1Hiks/zZIjMkmXmDIEkhyRjDrHlKZEJR3DZccQWbEpmLD49DNseRpfk4lnxqCokQItMhUXrswhZBAvMaWIDNJFLD1abAAc2QXhb6F72469mU3k+euEW8vUPeH2Cu3WMhU67unCLTOHuM/SHKkoHwmzt52fMzgHLIH9JAGXy4VGozfXaDN7C3odf/Bp51ROQ7dmy+mVPd2zDmRvT58+JRAIbW1tm5sApQDsrTFo5VkwUduyXM8Y4Kt7y58+LDEEe1tdXd2u/nA6LIEdJQCwt/KCWnewxZCGLrXEiGkbMQk0yJJGAY4RA073yzX5pExyhMyM9YxZFFZ8U5/WUp6Ny47OEiZZKxlEdiyFF59bwxJoM0nsODTtMooSeSn2F20BuaieV9woKG7k59awKlzinGpmTjWTJUstrONWuMQsWarEgN7S/kjrkFGmzX727NmObdlvGXa17u3GjRuJiYnbsTeLmTZ3Db8lqdoPicsAe8tYW1vZb6KH6wNLAJZACAm0tbVtx94kKvqO1i4+jMd8kqvsXmVZZf7Tp0+JRGJra+t2bWxqcRQ6eN4JcPPduNULWipZdwUBOIQwu0cBAPrCEQimtuF1tA6bIJNvrUNGwLMW6BPCOWhwDuhb+vXgUdfct46mXi2Exh5NYzeAhm5NfZcaguOqytEJoK5Tae9QrMOrqPHIFXrmygr85tyuA+H0nSXg8/nKKopqNrG3T/KgdUzamvt0Civ+Y+7m+rbZ29zcXEJCQqDzMn+n+Xw+qzlrd+wNULbthN3k2ZvGDmZv/s6CI7AEviIJhGBvUnX2jlY8PuaFvtdrg3Yt1HlVpbtgb41NDiw1ji3NZEkyWRIkS4JkSpAs8TqYIiQLBFOEZAjXkS1AZguQDAEqGwRDgAYifFQ2D53NQzP4GKYAxxRgmQIcW4jniIkgSDwJBYJARhPKsoSyLIGMLpRnixQMkYIhUbKkKrZUxZYo2XINT6HhgUe+UivMzbfsZrPaVzSo4Kp+YQmEYG9ba3w3zWzu+DB+pB66bdj0LevedmRvs9Ow7u0LPxRwcbAEvnEJhGJvGkYQewM1WO9ZkIIs8W4cgalGCICT03WYAf3WhooL0nK1DoOqrCFAieXXXTV0qyHUX1XZO5QAvIoat6y6XVrdLq1qk5Y7xRBKm4UlTQJTSXZBsW1H3duTJ08WwbC8vLwChtXV1Vu31iDcuXPnNzDcvXv399/vQXjw4AG06f7Ro0fQrvwnT548e/bs+UZ4sRGgff1BR2jL/6tXr/x2AF6/fv0mIGyYClj/6/P5vvFBBjfvM0sgBHvbkZZ9mQx/d93bbthba0tiQe6FPOv58uKI7TVwu9K9bX/5Fro9WPf2mR9P+PawBD6LBNxuNxKJ3Hxrn88nELPYYixfTuDLAPCkBC4ECZ4tXgdLiAMVUcCRwVtHNhebzQFA52CzWBgaE5PFwtKYGCpjHdlsApNLYnJJLB6ZJ8riibK4QppQyhTJWSI5S6LgKDRCCGq9RGOQagxSrVFmtKiNFrXJqrbm6nPyjbY8Y3dP14sXL0gkksvl2twEOAWWwN9EAvufvbUOGaVa+tOnT7+6HtnVurf5+fn4+PjtZk5tluwbUzvr3risnxXSE7mW8+mp312fwPVeTWtzJi7MEOau45scsX1daasL5MGe9LrqmGvjmM725OsT2JV5crsz8cY0ztkYX1V2eWwQWVV2OT/ngqspwe1KKim41OSIXZ4jhSZzIHtLu3lz+avrG7jCsAT+zhLo6OjIyMjYUgK3b99eXFz0q6xWVlZugmFtbe327duQrcc7d+74bUD+/vvvkIHIBw8eQPYjHz9+DBmYhOxNvnjx4uXLl5AFSkiN5bc9CZmffLwRoMsfPnz4YCPcv3//941w7969u3fv3rt379mzZ3/ot8hkstPp3LIJ7969e/bs2dra2s21myurK8sry8sry0tLiwsbYXZ29gYYZmauX7s2DWFyamJicnxicnx8Ynx0bATA6MjQ0ODg0MDg0MDAQH9vX09vb3dvb3dXd+fVqx1Xr3Z0dHo93naPt93taW9rd7laW1ytLU5Xc1NzA4T6hjpHfa2jvtZeV11dWwmhoqq0vKLE6Wr5Gr9q2wkcTv/yEvD5fOWVxeUtYlCrbYQWaLqABZqAejvEAs0GcHVmQze0OlNV36UCF2gqHZ3K4AWabnkNiKo2aWUrgAqXJFAdXtokLG0SljQKiur5EAodvII6APl2rrWcweRjnzx58uWF85El7oq9LS8vx8bG/vbbb5sL8/l8NitjN+xNLjnR2Z4yNYbJohwozr9IIvzIyj6Ubws3aM/IJcdo5J9aGuJYjMNyyfGivAsZqd/lWMK8bclRkf+rpOAiI+ugTHxMqzxVkBOOSPpnc30cmfCjTHyMkXWoy4OA2dvmfoFTYAl87RLYjr35fL6GRkdBUU5BkS2/0JpfaM0tMOfkGyGllyVHZ8nRmW06k1VjsKgAmJVao0xrkGkNUrVeotKKVFqRUiuUq/kyJVeu4kmVHLGcBUEkY4rkIGQMoSxbJMsWAkvE6EJ5FnAEVozRIPBlFAEIvozCk5L5IHhSIk9KYgnwVdXlz58/D83e2tpcFGY6oEFUEATKdYhUxHVoiGIIWqJERwJBlOpJUj1RZiBJDSSZkSQ3gkcTWWEGoLRQ1DYqBE0uTZuXpc3L0uVnGQqzIRiLGaYSJoBShrWcZa0AkFPJya0CUc3Jr+VBKKzjF9bxpWoGvOf0a3+O/vL6NzY1ZLExLAGeJSRwRCQI/rWYPAlVIKNDEG2sxRQrmBIlW6rkAEcVV67mydU8hZoPqL21AFRasVonUeskWoNMZ1RAMFhUJovGZNGYrVprrt6aa7DmGnILzHkFlrwCS36htbA4p7A4t7A4t6Qsv7S8sLS8sKyiqKKypKm54dWrV3+5oPZagV2xt5WVlStXrmzH3nJ2y96Od7pTpscwNPJPBTkXSgsv9XelUYg/ctk/X5/AmnRnJMJfDdozy3OkyRE0DvMvIu57vfpUSvI/hbyj1eVRM5NYOvXg6ABSwDs6dw0vEf7a3YHIs52vq46G2dteex3OD0tg/0sgBHvjCMm2SlZJI/AvdWmTsKxZ5P9Xu9IlrWoF0SaF/iOvccvtXgW0Xq2uQ1l/VQUB2H3Zo23sAfZjtvTrNgDoAzZgAHZxgts513UGQ0b/Ts/Wje2fwD7QkXUAm0NHzdVt8pKKvD/Ub6HZW7OzPr+W4x6zABZA/AB2nq7DC25Efd8LpK1jYgN7X9+914VEhhwBvOd0/z8p+7yGL1++fPTo0cOHDx89erShwn7sX7X55MmTpxvB73hpy6WckIIcWsoZuIIzMB64oBOKB6zqfBO0rBM6hawKf41LPD8Be9ul7k0mPu5pTZ4ex5IIPxbmXlDJT9ZVR7MZh3nsI25XkpD3i9UYJuQddbuSGuxXBNxfiLgfiPjvsygHDNozasWJ2soomfjYxDCKx/559ho+i3ogxxzG5xxxOxN3x96W9vkQh6sHSwCWQKAEOjo60tPTA1OguM/nk6oZLf26vXKRz5e/c/I9D1d1HSo/e2tpadncBCjF2dpYUMd7v1a7svf2/iXB1kc/2a8TNkMuf3kZXnOyXQfC6bAE/koJfCx7e/fuXY6VNTOJC02hbi1TSwouDXSnz10jGLVnivIvYtH/olMPuprim+vjWNmHlLLj48Mok/4Mk36ooe5KdUVUkyO2MO9CVdnl/u40vea0kPdLf3fa3DW8vSp6YYbAYhxmZR+yGM/tuGFiZZ5UlI+4uQqzt79ynMFlwxLYqwSuXr2KQCC2vEqmZTXvJ/YWRJjqOlUlFbnPnj2jUChNTU1bNuHdu3dt7pa8Ws771+4z9pbHX1qC35zbdSCcDkvgr5TArtjb6urqlStXbt++HVRTaLd5jo19fWJn9nZzkbK2BOwJXV2gVFdE1ddeWZknrS1R1pYoK/Pk1QXyrWUqFF9booKZKTcXAawtUW4u/plhbQm4g80cNtSXCf0amjiuzJOKCxCrMHsL6jz4FJbA/pZAT09PSkrKlnWUa1nNfZ9X9/Yxxqgg9vb8+XMqldrY2LhlE0Kzt48p/X06uGfN3J9FT9gMMHvbrvPgdFgCf7UEdsXebt26FR0dvZm9dXR0OJ1Oq4X5PnuDrH4EHoMNeVybwG6o60KYCAm8Q3C2mUlgRyrI2wKzBRd0a5m6Mk8pLkDcvAn/B/lXjzW4fFgCe5HAXtgbpLIKobgKzLDLbFvynl3dp65TDenedsfeAusTGLd1TAYWt2N9dswQdPPA/FsVBLO3vQxXOC8sgS8sgT2wt5s3bwYuAHzz5s3KygqJREpPPf0+e9uCQoVWj33WX6GZ09XVxS8sWbg4WAKwBD5GAiHZG/tz694+RoPl6FQXl+fsqHtr9zhza/b7zOniIvzm/JhRDF8LS+BzSWC37O37779nMplisVgEBqFQyOPxuFxuTEzMwQP/9/Q4dk8MbG2JujRLWpghLM+RVubJc9fxqwtkIHINv3iDcHORsniDODuNW10gL80CkfnrhLUlyvx1wrUJLDTHuvviQPaWvLKy8LlECN8XlgAsgc8ggZ6enuTk5C1vrNBzG3u0IQiWf/rPHwmR+eN/CvKU5ehUF5XZnj17RqPR6uvrt2zCu3fvvJ1tOVXs90sPoR4LVJVtG/e31x95//7bXrhFtgmbMZ+/sAC/ObfrQDgdlsBfKYHdsrdjx46Vl5e73W4PGLxeb1dXV0dHB51OP3XyH1NjmN3TqVvL1LFBJI/9c0bqd6VFl3It5xlZB4sLLtZVR+PQ/2IzDnd3IOSSY0z6QXtVtEZxkk49wGUdGerLEAuO0igHqsujVhehOdNdKflW5slF+TB7+ysHGVw2LIEPkEBfX19SUtKbN282X6sy8EOzty24yIfa1/gAGuS4us7eGAyG3W7fXH8oxdvZnlPFer+qu2JvgTZE3r98L+RsZ4HkwOxtu76D02EJ/OUS2BV7u3PnTnR09NraWlB1h4eHmUymRIzeHXv7c+3ayjy5pSGeST/U2pwg5P3S5UEwsg5aDGcZWYdI+B9aGuIqSiO1qlMsxuFs2sG66pjCvAv5OeFlRZcU0uPZWYeWZokhyOLtlT8LAte9wewtqN/gU1gCX4EE+vv7k5OTt2dvmh2Ji2vI0D5q7pi0NffpvBOfltm8d7dg3dtO7A1q1IexN++ETZlDoHDjaYJEoQ65oxA+PAOse/sKnhK4in9fCeyBvd28eTNITvPz8wsLCwX5gqmxvc2c3lqmDnSnS0W/dranKKQnZqfxTPohneoUEfcDlfRTvi2cQvwR0rox6IfcrsTayiip6Fc89l869Sk67dBiSPYWROxg3VtQr8GnsAS+CgnsxN5CzZxClEWTR9IVUhxXVRRevBukcX4q0z5igvhc+4i5bdgEGch1Dui9E1bAfC7o0t49am4dMnonrK5Bg3fC2tyna+rdudCOSRuoe7M+e/ZsO91bU1PTzMyMt7PdVrkfxXfSAAAgAElEQVRn3Zt3woqmXuap0jX55NjUk23DRnMZ3VhCaxnQV7jErUPGnGqWa9BgrchW2ggNXerSJkF9lzq/juMZt/ibv8uIIY83vzD/VYwWuJKwBP5uEvgo9gYJq6hQNDmCDuJMW52+pxIbHURqVafGh1E8zs9K2XER72hp4SUa+QAJ/0O+LZyE/0HA+YXP/ZmA+56E/yGL8lNjXSwW9d9M+iEB75el2R18mwaWvrJALspPWl6G30F/t7ENt/frlsBm9vb8+fOHDx++e/dOaxY2dO+seytwcLFZUXILjqfOqGqTJmaejUk5UdkqkVtxScizEgO6sk2SjA6LSjpuLKGJ9Khk1DmRAa0roBTUcYvqebpCCkOcUtTAS0GHlTTyEZjzKdjzxQ38zdQnSPdWf1VdUGqG2Ft1dTW02Quyr/TmzZvXr1+3t7fT6fTS8iJLOeP9u+08c+qdsJE5ccWNwNxxCjpMV0jB0qNQ1EipCUtix+qLqUdOfKctoGDp0QwJQm7BYelRVH6CxIjxjFvfL+s99eGWPxnyefPzc1/3MIJrD0vgG5XAJ2BvJcWy8SFUIGHaTXx5jjQ6iLy5SJkYQdfXAp7pp8cwzsb47g7E0iyxpzO1oz15ahQtEx+rKIkc6stYW6IM92f0Xk2dmcStLVF2UwSUZxVgb4nLy/A76BsdwnCzvlEJDAwMJCUlvX792t++mZkZpVL54MEDnUXc0KXeknAEJjoHDSkg5Sqo4+bWsEjsOCw9urCeayzNEulRcWmnc6pZNEGSxIDmqzOik49zlGmxqafInDgyNz5LmMRVpqdiw9HUyDMXfyKyYpPRYShKJIUb753YgQbVX9UUguyNzWanpaUZDAbNRlCpVFKpVCQSnThx4uDhH40lWYEV3jAREopXeSesZHZccQPA3pKR5+jCpLwaVkEdN4N4KZ1wMZ1wMezyIZYUoc4jecat9VdVZy8dOBn+Q3PfrrSG71fGZoTZm3/wwRFYAvtMAp+IvQ3vhr3RglakQaZ6/cdby7RbyzTwFDDbC0XaWxKnxzEQXYMSd8/bYPa2zwYbXB1YAruVwJs3b7q6umJjY+/evfsQDPfv379z545arRaJRDINq34X7K1j0qbJJ525eKChW60vogp1SKog0VKRnUH6/9u786+m0kTd43/QXeucH865d60+3X37nj5dVX2qq2tsh1JRoggIKLNACLPMM4RASIBAmOd5ngcFZJ4cQcWhtEqrygHF6q6ue0KAQqAgWu+rKN+93kWHsPNk55Ndrqffnb1z0CPg8FHHT/XFAWcSnBKzTp9JcNpv/UFInMOZRCf/SDtb5y8cPPeFJZ38eM8f3FSHnH0Ong609gy0jtd7ZFesmy0zNa0Nc2+m9vbs2bOBgYGioqLa2trm5uampaW5ubmzs7OxsdHe3t5acUhfHPhiYbJk7i1LGWqTXx/RNJhq77onIsU5KtU1UuMSEGW378gHXsEKZ+XB2HR3/yg7baGftsDPVXXI3f9wvP5V5t50uRFzzL1Zus+yHgKvVcCi9vbgwQNra+tf+rpi09ybRe3NolNE15WzV2tsa0OYe3utOxRPhoAIgatXr1pbW//rv/6rq6urx9LivrQoFIp/+Zd/cfe2s2TurW0kPSDaPiTesWVY6+C+1+bkZ3us3lOG2Th47PMMtFY4fBIU65CQ4Zma55tk8PIKsnb3PxwYax+jddMXBxgqQmJ1Hp/u/2NmWbBv2PGs8mBb5y9OeX+ZXRHyYt/aZJ6s/qwmryjj+fPnvyTR1NQUGRlZ11D9CkdOe2cM6hyfys6E9lFdTJpbVVeiKvy4V7CitDUmOM6hvD1WY1TW9CSFJZ9ShtoU1EekF/qVtcWm5vqaT+DYduN/XsF01kLE7NzsL70K7kcAgTcoIKa9TY5YMvf2Ku1tbQ97tdtL7e34/Dz/Br3B3YynRuDlBBYXFxsaGqysrK5du3b79u07d+7cvXv39u3bGo1GpVIlasLqzqpNk14Xtpqsah/TGcqD20Z1Df0aJ68vU4zKJIO3i/JgaWuMoTy4oiO+pjepbSS9ddg0mgZT82rDG/pTWoe17aO6jjF967C2ri+5azKz+Xxa12RmbV9yVVeCJZ/9N50lUKRbXFz8pdf8P5eyu3fv3uDQOV1R0M9tyXQJj61ezuqaq59gM9/onszsmjSdkWA+pLv8cyprebWlk21f7ZRbfV7E1atXfulVcD8CCLxBAYva2/37962trW/evLnphpaWJE8Mr7a3td9btfb2uuq29k8vnM2wUtE2rrC62i/9aXWFtc/lf+eGqjDPlva26XvHnQjsWIHR0VF7e/u1HejSpUteXl7Xr19PNyTU9iWvtpltb3SM6YuaoromMjrHMwobI1fbz7YPXFrBoka1Nqr+bEpu4VbtzWw+ONS/rr1tXUbXPsUWt4WEmPN1eRFXZ2lvO/Y/ETZsVwtY1N62PnJaVqIeH3ZdaV1rm9OOuL0893bj6q5+n3nxCLxtApOTk/b29k+fPl3d8MXFxcePH//000+67IS6PtPc284cDdvNvZlf0fnh9e3Nwrm31/aq9XkRs7P8y7m6A3IDgR0kYFF7+/bbbxUKxRZzb+b2tu6kBCF9buX0BdNJDGvOaVg9rUF1Z15158YLw/yQ1TtvzinzjTbztLcdtNexKQhsLzA1NbWuva0+RveSc2+vXHfM32qw7SHadWctmNpbYfraWcPVLV97Y6m9LZ+1sDJhtn6er2c6q2Ncb74infnKc91Ll6MzHdgdMV2drmc6q2VI2zGu750xtI2ktwylmR6ydAW79lFd91Rm02Bq44DG9NjR9NrepIZzKd1TmXV96vpzKdseTmXube37xW0EdpSARe3tu+++UygU8/Pzm256QX5SdYXibLdTX5dTb6d5OHa3L402x85Wx46W5dHW5GAeLQ0OzQ0OTfUnmupONNQsj7pq+9qqpVFpX11hX11uGpVldhWly6Os2K682K68xL600K6kwL6kwL64wL4o3848CnLt8o2mkWe0y81ZHkaDnSHTLjREMX+D671t+u5xJwI7VGCL9paRk1zb+xJHTntnDFVdiUlZXvF6z8rOhOzKkGSDV/05dU5VaHSaW3ZFSMuQVp3tk5h5unFAk5avitK4ZJYFdYzp4/WeEWpnCy/Su9oRG85pjAXabdvb6NiQtmCbK4ZklQU5nd5vc/Kz1DxfdY7PKe8DkSku+pJAp9P7nU7vz6k6oy3wO+V9wD/KrqA+wjPgiKvvodyasHC1c3VPYoTaOafqjLPSdCWRvNrwKI3Lcecvjp38LL8u3NFzn73bnvKO+NVt3nijbyZbnxd+5crlHbp/sFkI7G4BAe1tcPBsfl5acVF6SYm+rDTTNMqyKityKiuMlZXG6qq8mpqCmpqC2prC+rqS+nrTaGwoa2qqbGqsaGqsaGmubmkxjdbW2o6Oxvb2ho72hu6ulu7u1u7u1p6etr6+DvPo7+/p7+8Z6O8ZHOw7f/7c+fPnhs6fGxkZHB09Pzp6fmxseGJi1DympiampyenpydnZqYuXrxw+fKlZ8+e7e43mlePwFsmsFV7MybX9CRtLBxb3FPRHueqPHTCfa/GqHTzs/KPsg+Oc/AJtTkdpHDw2JddGRIQbX86yDo23f2gzYeRGhdnnwO5NWFBsSfcVFbJ2d5bJG+8YoipvRVa0N7Gh7T5/i8mr597i9d7mi4IkuLsH2Xn6LFXneNjc+rzkHgHnzPHMkoC3f0PewUrzFezi0xxjtG66YoCTGt67ovRujl67supOpOYefqU94GIFOeQeEd9caCT5/6ixqjoVNfDdn9NzfN98dnXH4mmvb1l/82wubtJQEB7201cvFYEEHhNAlNTU3Z2dgsLCxufLys3pab35dpb74xBW+AXa/oqBd/YdPeqrgQP/8NuflbHT31uc/KzzNIgr2DFcefPA6LsnLz2Nw2mRqidI9TOrqpD1vYfhyY6bd1y1v1VbHvT5PpqcpW+4ccPKP7bO+SoT+ixSI3pAm8VHfEOHvtOB1rX9ibX9iVHqJ1TjMqC+gjfMJujjp84Kw8ctvtrcJzDSa/9p4Osw5JPBUTZ59dFOPscUIba+IQcc/Y+kGJUrtvydb/S3jbue9yDwA4ReIn2duPGjR2y0WwGAgi88wIXLlyws7N78uTJxldqam8vOfdmam+Fpgv2ZpUHK8NsNLlKZdgxnzPH/CPtHD33qyKOewZYewUr/CJsv1T8OTnb21VlFRR7wtX3kKvKKizp5Lpas+7XDZ970+QUpG175HRsfHjbubcUozKtQKUr8o9Nd1eFHw+MsfcNs4lOcztw9ENXlVV8hmdkiouH/xHvkKO6ogBXlZW7n1Vaviowxr6iIz4s+WR8hucJ9z2OHvuC4hw8A63rz6UExZ6I13vau+055vipoXyTKw+vfWm0t437HvcgsEMELGpv33//vUKhuH79+g7ZaDYDAQTeeYELFy7Y29ubTzJd92INeZrq7sS1PcOS22VtsbnVoS3D2iiNi2/48cLGSHW2t1eQIiLFubg52i/SNijWIaM00PrEJz5njqmzfRoHNAGmA6yOBZt9t+kWz9jQr8nOT9320xoTk6OpuX4v5qw/cto4oGkY0DQNpjb0m36m5avKO+I0RqV/pF1WeUjbaHrbqM5YFVrZmdA1mVnaFlvYGNU5kdE4oOmayGg+n9o+pitujq7qSmgaTDV/eq9lKK1rIqOsLbauT925dK7DixvwwsFTfX745cuX1uHzKwII7AQBi9rbw4cPFQrFtWt88H8nvGVsAwK7QmCL9padn1rVlbBF7dj0Tz3Ty9ez7Z7KMn/xQPdUVtdEhvnytl2mczlNZ2sGxZ5oGkw1n4/ZvXrN2y2vTrJu7q2xP9WS9jY5Pa7Zrr2teyHmrSptjS1qilr3Jxm/LrW3i7tib+NFIvC2CdDe3rZ3jO1FYHcIbNHecgrSql5+7s3CftM2otv2UhpbR8lrb8vPO23oXfoGha0341f+1XTOqWnujfa2O/5741W+bQK0t7ftHWN7EdgdApcuXbKzs3v06NHGl7s09/bSR05/ZZvZ9OHm67S98txbSo6vaf5vMrNzPMP8VRDtY6Yv6eoY07eN6tpG0s1f5NUypDUP8wFQ088B07FU86g/l1J3Vl13Vl3bl1zdk1jdk1TTk1TVlWAelZ0JFR3x5lHeFlfWGlvWGlvaElPcHG0eRU1RRY2RRY2RhQ2RBfURBfUR+fUReTVhuTVhkYneFy9e2OjPPQgg8MYFLGpvjx49UigUc3Nzb3xz2QAEENglApcvX7a1tX348OHG15uZozF/UWl5e1x5e1xZW1xxc4xpNMUU1EeaRl1EXm24sSrMPAzlZ7LKQrLKQjJLg/VFgeahzfdPzTMNjdFPne2rzlaqs5WJGT4Jeu8EvXeczismzTMmzTM61SMyxT1C7RahdgtPcj0T72weQdEnA6OcAqOcAiKdVGEnVKGm4RNi5x1k5+Z7NCEpatvPvU3PTNk6HfAKsPUOtFcGOZhGsKMq5KQq5JQq5JT/GeeAUBfTCHMNCnc3j+DI02eivJaGd1isMnxpRMT5Rcb7R8b7R8UHxCQFm0e8OjRRE740ItTaaPPQ6GLT9PFp+gRtRoIuK1mfpdYb1CZMY5pp5GqN+frcAr2xQJ9XlFVQnF1WUfz1119v9OceBBB44wIv0d6uXt38K1N+XFr+8eLy95XlhzXL8zXL4obl2Zrl6cqysLDwZGV5tLI8fPjw++Xlu29Ny4Nvv33w4MGD+/e/MY+vTcu9r7++d+/evbt37967d++HH35449ZsAAIIWC5gbm/ff//9xof0D/RnZWUajTm5ecbcPGNefm5RcVHx0igrL62oLK+oLK+qqqytramrq62rq21oaGhubmpubmppaW5ra2tfWrq6unqXlr6+vv7+/oGlZWhoaGRpGR0dnZycnFpaLly4cOnSpcuXL1+5cuXayjI/P39rabl9+7bpH5ql5cGDB98tLQsLC//85z83bvnae3788cfFxcVnz54tLi6u+adx+eaafzh/WPnX9O9r/5X9cWXZ9onWPim3EUDg3RCwqL09fvxYoVDMzs5u+ppHRoZycvR5uRlGo85oTDca03NytNmGlOxs0zBkJWdlJhqyErMyEzIz4jIzYjMzYjP00XpdlC49UpceodWGatPMI0SbGpymCUrVBGlS/FaGr0ZtHkqN2luj9tKkmH6mqD1XhnuK2jzcNMkupqF20aidU9QnNSnOKclOKcmOwYF28/OccrHpu8edCOxQgS3m3p48efLgwf2vvzb9f7O7d+9+9dVXSz3q5q1bN69fv77Ur+bm5mYvX7lsWq5cvnDxwszM9MzM9PT01PjE+Pj42PjE+MjI8PDw0NDw0Pnzg/0D50yj/1xfX09vb3dvb3d3T2dHR3t7R1t7e1tLa7Op/LU0NTU11NfXmkd1dWVlVXmlqSmWlZYWl5YWl5QWFRblFxTmFRTmnes/949//GOHyrJZCCDw9gsIaG/lZbraSsXIoPPoeZexoeUxMew6MWIakyOuU6Nu5jE97j497j4z7n5hwuPipMeFCdO4OOlxaco0Lk97mseVGc+rF05fveh19aLX7EWvuUvL49plb/O4fsV7eVz1uTHrMz+rNI+bc8qbc8pb15S3rvnevr48bl3zLTBaX7/G9728/Xsrr2A3CVy5csXW1nbTubdUbZKrz1G/MEf/cCf/cKeACKegqFNBUaeCo0+diXUJjTcP1/Akt/Ak9/Ak96gUj2iNZ7TGMybVM057Oi7dKy7dK0HvnZjhk5jhk5SpXDpyqkrJVmmMfmm5/ml5/to8f11hoK4wML0gMKMkKLM0OLM0OKssJLsiNLvSNIzVYbk14bk14Xm14YX1kYX1UYUNUcVN0SUtMYaKM9rMhG2PnO6mN5PXigACggUEtLfamszzZ09a8J30/oLW8bMg5+d17txQFeQqrl3jqkWCdx3iEJAqMDs7a2tr++233258ltxCXcWW39G56RkG8u5cf9bCgMaQp3727OnGLeceBBBAQIiARe3tyZMnCoXiypUrmz5lfV32QK8l7e3nRvVS9etXrnznhqow98i1Oc573/Td404EdqjA3Nycra3tgwcPNm5fXrF+R7W3db2wkfa28T3jHgQQECpgUXtbWFhQKBSXL29+8LGhPqe/18mCjvVm5t6+mqe9Cd1lCEPgtQhs195e+mq96zqWwF+Ze3stewRPggACPwu8zvYmZu7t3q0AC5riz89Fe/v53eYWAm+PwHbtLV5g/RIb1TigycpNfvqUI6dvz97GliLwtglY1N6ePn265dybsb9n/dzbzLh7Yd7B0iKrkUHnlbK1PPc2dO5UdubeqtIjN+eUX82r1o67N03rrL1n4+0tVrhzw5R279YLk3xfzasKco/MceT0bds12d5dLnD9+nVbW9v79+9vdCgoySprixVSucyX2/2VUevm3poGUzNpbxvfNu5BAAFxAha1t62PnDY3FZztdlypaMuTXvXVR0+7/yEt5fOo8A8vTnpcu+x996bf7CWvyRHXmKi/GPR7z3Y73LqmPNvt0NlqNz/rMzxwqqnu2ECvk7mu9XacyDXsL8o7ODPuVlelqKk4Mj/rU1Z8SJ/2xcig89wlryzdnvLiw1dmTtdUWKeqPzt/7uTsxdOpyZ8aDftuXlOu3Zil9mY1N8sVw8XtNSQhIF9gfn7++PHj33zzzcanKirLLm+L+5WVy8KHv0K9o71tfMu4BwEExApY1N4WFxcVCsWlS5ufttncVNDXtb69NdXZ+Pn+KUu/NybyL4W5B0oKDt246lNVdiQx7mMH+98ovf7zTNAH5cVWwf7vhQZ9kJ/zpbPTb5MTPnE5+bvLM55fzav6uhxOOv5HmvqzfOOXUeEfJsb+tcD4pafb/9Ukf+rr/ceG6qOGjL1K7z8WGL90PPGb6vIjgX5/aq4/Vph7QOn1n+uqJO1N7B5DGgKvR2CL9lZYaiizrL29QveysNWtXW2zubckjpy+nv2EZ0FgdwpY2t6OHj36S+2tpblws/Z2zOXU7+OiPwoJfD9d8/kxxf8ODf6zeSouNPiD2YteYSF/jgj97+b6Y6PnnYMD3ld6/+elKQ9tymetjcfv3vS7c0OlTvzkbJdDln5PQ83Rvi6H5IRPjlr/u4fb7wP936urUgT5/+n4sf+jS/siKvzDm3PKsOAPCnK/DPJ/T3Hk3zpabJl72517M6/6XRLYor0VlWVb2N7WdqzXdrtpMDXDmEh7e5f2Rl4LAjtNQFR7c1gqTOYPnJl+tjQcT4j7+GyPY0jQB7rUv6WqP4uP+avK57+SEz6JDPtwoM8pJPD9lMRP8rK/rCo7nBD7sfPJ3zXV24QEvj/Uf+ruTf+v5lWpyZ/1dTmUFlppNZ/n5xwwZOz19fmvorwDSu8/Bge8n5O5N9D/vQztF6ecfldVfiTQ//2YyA9zDfu9PP7Q2Wa/0t6WPwBXkGvFFUN22p7H9iCwtYC5va39ns3Hjx8PDw8/f/68pMJY2hrTO2MwT3qZf7aN6uL1nhFql7Ckk8bqUHNXW7vCxturfW7jn8z3bLrC2uTVFdbe2TSYpjcmLDxd2PoF8lcEEEDglQUsbW8KheLixc0vmdbaUtzTYW5vP5/p2dNxws35937K/8pI/1tlyRFPtz+EhXxQWnioud6mON/K3/dPuYb9Y+ed46L+cibo/YHek+6uvw8L+XNi3Md3bqjM5yU01h6bGnWbHnNTJ3ySFPfxxLCrTvu3uOiPSgoPdbfZx0V/lK75vLbK2tX5d0nxH7c02Az1n0xJ/FSr+XxqzG2lvZm2Z+nI6aHZqzOvbMQDEUDg9Qv8z5df2djY3L17d/Wpv/vuOy8vr+7u7pLynJIWU3tbO2p6k445fRqb7u4faedz5ljHuL6wMbKmJ6l9TNfYr2kbTa/sjO+cyMitCS1ujmoZ0tb2JdedVVd1JfbOGCo7E+L1nolZXlVdCcaq0GSDd9NgqqEiOFx9ylgd2j6mU+f4xOk86s+l6IoCziQ4ZVeEtA5rY9PdzyQ4NQ2mrm6G+UBt83lTe3tKe1t957iBAAKiBSxqb8+fP1coFBcurP/gv/nbkdvbyrrbT6wtTObb5vMPVm77fTX/c7cz3149n3R+1ich9q+zF09/NW+qbisPeeF01NWVv5r/+aTU8WGXnKx9d274rvmr6VGrIeYbhbm0N9E7DnkIyBRYXFysrKz86KOPysrKOjo62trampeW1NTUDz74IDTSr3RDe6vtS3b3P9w6nF7YGOkdctQ/yu6U9wHrE59ocpWBMScCY07ss/4gPPmUm5+Vi/JgUpaXf6Sti/KgoTy4d8ZQ0RF/3PkLF9+D6mwfR899fpG23iGKk15fRqidrY7/xVgdGpZ00tFzf5zO49Dxv8RneDp47M0oDYpL9/AKVsSmu6+2N/MN2pvMXYNsBBAwCVjU3n744QeFQjEzs376amho6OzZs60tJZu2t3UVynw1kA13mrranRuq6TG329d9t1hn0wfeuqa8euGFzrfparQ3dnYE3i6BR48e+fn5/fa3vw0MDIyNjY2Li0tMTExKSgoMDPzNb35zWnlq49xbXZ/aM8C6dTi9qCnKI+CIg8e+xgFNRIqLMszG1feQveueo46fng6yLmuLbTqfllES+OeP/8PZ50D7qM5UuaYNsekeafmqOJ1HSo5PXZ/azuVvJ9z22LvuOWL/1+yKEGefAx/v+YO5/NWdVStDjyUZvE55H7Cy/Sgs6WTvTPba0yNM7S0nfmGBI6dv107H1iLwNglY2t6OHj26sb3Nzc35+fklxAd0//xRs58n2DYtUm/kzsLcQ1evTL9NbwvbisCuF1hYWOjq6lrbgZ4/f56enq7X64vKsoub1x85XdveTgcpTvkcyKsN8zlzNDTp5Md7/19oopOzzwHfMBtNrm9ankpjVDr7HHT02FfQEGmeMIvXe6blq7LKg5VhNkkGb3f/Iy7Kg+ps7+OnPg+IsnP3P+zgvjdK42Jt/3GM1u2k15ehiU6egdanA63D1c4b5950OXELC092/XsIAAIIyBKwtL19/vnnkZGRuUtLTk5O5tKi1+udnZ1/97v/1dFiZ0Ete+Eiur+wviXrvHRBLC6wunRpXBYhuQggIEfA/NmM1ez79+/n5uZ+99135dUFRU3R6zvTYFqs1r1jTF/dnZiU5ZVdeeak135l6LHS1hjfMBvTnQavkpZoz0BrVfjxoqYofUmgoTzYUB5izimojyxtje0Y00emuChDbYqbo1OMPn6RtlEal7K22KDYEwHR9tkVISfc9qoibNPyfau7EyPUzpEal0JT/8teuzHNQ2m6nLgntLfVd44bCCAgWsCi9vb3v//dwcEhOTm5aGkpLi4uKysrLy8vKyvz8PB4771/72hZPc3zpavVL9S4X8x52W/KunvTr6Tw8KWLY6LpyEMAgdct8OOPP/7000/l1QUb5956Zww9U1nmFtUzndUzbeiayOieyuydMXQv3d8zbfpr91Sm+dfeadNJDz1LP9d2r6XHruYsnxhhfmzz+dRIjUvrsHZ5/Q2PNd9Pe3vduwXPh8DuE7Covf3000/ffPPN8+fP/7mymKEmJydVKlVOdmJn6yZnLWyoZZbMq1myzi8Wuw3PuLwm7W337di84ndZYNO5t7UNTNLtnumstpH0jYVv3eVFWobSdNlxT55w5PRd3gl5bQi8WQFL29umWzkzMzMxMdHRUWFZe3vp1vVLbexl7y8pPHyRubdN30LuROAtFKioKSzecORUUmNbezqChU/RMqRNz4598uTxW0jLJiOAwNsh8Kvam/lTKZ2dla/zyOnLVre7N/3Kiw9PTw+9HW8IW4kAAtsJVNYUFTeu/9ybhdVKxmob5t5M7e0x7W2795G/I4DAKwv8qvZmftae7pqOZkuOnL6xubeKkiNTUwCM/oAAABp3SURBVOdf2YgHIoDAjhKoqi1+bXNvr9D2zHNvtLcdtc+wMQi8YwK7pb3NTA+/Y+8cLweBXStQVVu0sb1te4hz2xVeoaht+pCl9hbz+PGjXfsG8cIRQEC2gNz2du/Wq5+F8Gseu+7oqmnubZK5N9n7EvkIvCaB6rqSojd95HSLLtg6rNUaomlvr2lv4GkQ2JUCItpbT21b8+u7Ysi6ZmbJr9Vl1uNj/bvy/eVFI/AOCtTUl77x9rbprJv5ztbhdK0h+hFzb+/grsdLQmCnCAhob3299W1NlnzuzZJ5OEvW8XvZabmaCsXY2LmdQs52IIDArxOori8taojaoj+J+tMWE2xrn2LdWQu0t1/39vJoBBDYXkBIe2uwrL29sbMWaG/b7wisgcDbI/A6594sLHBryxzt7e3ZldhSBN5WgdfZ3iyZV1u/zlfzqtVx54bqzg1f88/b131Xx61rvktDeeuaady8prw553tzTnlzTjk/p5yfVZaXHBkdPfu2vkVsNwIIvChQ21hWWP865t7WdrItbq+fextJT8uKevTo4YtbzW8IIICAMAEB7a27qz4n69DZbqfeTsfuNofuNoeuNof2Zvu2JtNoabBrqrNtqrNtrLWtq7KprTSN6vJjlaVHK0oU5cXWJYVHigtMozDvcH6OVX6OVV6OVU7WwexM0zBkHDTol0eW/lCW/pAh43CmzipDd9g00g/rtYf16Uf02iO6tCO6NGtdmnV6mrVWY61NVWhTFWmao2maY/6qPcNDHDkVttMQhMCbFahtKM+vjeiezDSPrsnM1dE5kbE8xvWd4xnm0TGuXx5j+o6V0T6qWx1tozrTGElvHda2DJlG8/m0xoFU86g/l1J3Vl13Vl3bp67pSTKPqq7Eys6Eys6Eio74srY48yhpiSlpjsmtDotTBz18SHt7s7sJz47AuywgoL3Nzc0WFWWXlmSXlxkrK/MrK/OrKgvqakvq68vq68saGypaWqpbWmpaW2o6Oho6Oxs7Oxu7u5v7+tr7etv6etv7+7sGB3oGB3rOn+8bHR0cGekfGRmYmBiemhqdmhqdnh6bmZkwj4sXpy5dmrp0afry5ZmrVy+ax9zs5bk507h27eqNG3Pmcevm9ZtL49at+Tt3bt2+ffPp06fv8tvIa0NgNwk0NtUHhLpFJvhGJaqiElWRCarIBL/IRNOISvCLSvQ3jQT/6IQA84hKCIxOCNowgqPjQ2ISzsSYfyaciUk4E5cYHp8UmZBsGkmamOTUmCRNTEpanCY9UZOemJqemK5Xp2eYhj5Tk5GVlpGVlmnQGoy6bKM+26jPycvMzc/OzTPUN9QtLi7upveE14oAAq9VQEB7e63by5MhgMCuF1hYWLi3tHy9stxfWR48ePDtyvL9yvLw4cNHK8vjpeXJkycLCwtPV5ZnS8vi0vJ8ZflhzfL3Dcs/VpYf1ywrXwRt+t9d/y4BgAACEgVobxJxiUYAAQQQQAABBIQL0N6EkxKIAAIIIIAAAghIFKC9ScQlGgEEEEAAAQQQEC5AexNOSiACCCCAAAIIICBRgPYmEZdoBBBAAAEEEEBAuADtTTgpgQgggAACCCCAgEQB2ptEXKIRQAABBBBAAAHhArQ34aQEIoAAAggggAACEgVobxJxiUYAAQQQQAABBIQL0N6EkxKIAAIIIIAAAghIFKC9ScQlGgEEEEAAAQQQEC5AexNOSiACCCCAAAIIICBRgPYmEZdoBBBAAAEEEEBAuADtTTgpgQgggAACCCCAgEQB2ptEXKIRQAABBBBAAAHhArQ34aQEIoAAAggggAACEgVobxJxiUYAAQQQQAABBIQL0N6EkxKIAAIIIIAAAghIFKC9ScQlGgEEEEAAAQQQEC5AexNOSiACCCCAAAIIICBRgPYmEZdoBBBAAAEEEEBAuADtTTgpgQgggAACCCCAgEQB2ptEXKIRQAABBBBAAAHhArQ34aQEIoAAAggggAACEgVobxJxiUYAAQQQQAABBIQL0N6EkxKIAAIIIIAAAghIFKC9ScQlGgEEEEAAAQQQEC5AexNOSiACCCCAAAIIICBRgPYmEZdoBBBAAAEEEEBAuADtTTgpgQgggAACCCCAgEQB2ptEXKIRQAABBBBAAAHhArQ34aQEIoAAAggggAACEgVobxJxiUYAAQQQQAABBIQL0N6EkxKIAAIIIIAAAghIFKC9ScQlGgEEEEAAAQQQEC5AexNOSiACCCCAAAIIICBRgPYmEZdoBBBAAAEEEEBAuADtTTgpgQgggAACCCCAgEQB2ptEXKIRQAABBBBAAAHhArQ34aQEIoAAAggggAACEgVobxJxiUYAAQQQQAABBIQL0N6EkxKIAAIIIIAAAghIFKC9ScQlGgEEEEAAAQQQEC5AexNOSiACCCCAAAIIICBRgPYmEZdoBBBAAAEEEEBAuADtTTgpgQgggAACCCCAgEQB2ptEXKIRQAABBBBAAAHhArQ34aQEIoAAAggggAACEgVobxJxiUYAAQQQQAABBIQL0N6EkxKIAAIIIIAAAghIFKC9ScQlGgEEEEAAAQQQEC5AexNOSiACCCCAAAIIICBRgPYmEZdoBBBAAAEEEEBAuADtTTgpgQgggAACCCCAgEQB2ptEXKIRQAABBBBAAAHhArQ34aQEIoAAAggggAACEgVobxJxiUYAAQQQQAABBIQL0N6EkxKIAAIIIIAAAghIFKC9ScQlGgEEEEAAAQQQEC5AexNOSiACCCCAAAIIICBRgPYmEZdoBBBAAAEEEEBAuADtTTgpgQgggAACCCCAgEQB2ptEXKIRQAABBBBAAAHhArQ34aQEIoAAAggggAACEgVobxJxiUYAAQQQQAABBIQL0N6EkxKIAAIIIIAAAghIFKC9ScQlGgEEEEAAAQQQEC5AexNOSiACCCCAAAIIICBRgPYmEZdoBBBAAAEEEEBAuADtTTgpgQgggAACCCCAgEQB2ptEXKIRQAABBBBAAAHhArQ34aQEIoAAAggggAACEgVobxJxiUYAAQQQQAABBIQL0N6EkxKIAAIIIIAAAghIFKC9ScQlGgEEEEAAAQQQEC5AexNOSiACCCCAAAIIICBRgPYmEZdoBBBAAAEEEEBAuADtTTgpgQgggAACCCCAgEQB2ptEXKIRQAABBBBAAAHhArQ34aQEIoAAAggggAACEgVobxJxiUYAAQQQQAABBIQL0N6EkxKIAAIIIIAAAghIFKC9ScQlGgEEEEAAAQQQEC5AexNOSiACCCCAAAIIICBRgPYmEZdoBBBAAAEEEEBAuADtTTgpgQgggAACCCCAgEQB2ptEXKIRQAABBBBAAAHhArQ34aQEIoAAAggggAACEgVobxJxiUYAAQQQQAABBIQL0N6EkxKIAAIIIIAAAghIFKC9ScQlGgEEEEAAAQQQEC5AexNOSiACCCCAAAIIICBRgPYmEZdoBBBAAAEEEEBAuADtTTgpgQgggAACCCCAgEQB2ptEXKIRQAABBBBAAAHhArQ34aQEIoAAAggggAACEgVobxJxiUYAAQQQQAABBIQL0N6EkxKIAAIIIIAAAghIFKC9ScQlGgEEEEAAAQQQEC5AexNOSiACCCCAAAIIICBRgPYmEZdoBBBAAAEEEEBAuADtTTgpgQgggAACCCCAgEQB2ptEXKIRQAABBBBAAAHhArQ34aQEIoAAAggggAACEgVobxJxiUYAAQQQQAABBIQL0N6EkxKIAAIIIIAAAghIFKC9ScQlGgEEEEAAAQQQEC5AexNOSiACCCCAAAIIICBRgPYmEZdoBBBAAAEEEEBAuADtTTgpgQgggAACCCCAgEQB2ptEXKIRQAABBBBAAAHhArQ34aQEIoAAAggggAACEgVobxJxiUYAAQQQQAABBIQL0N6EkxKIAAIIIIAAAghIFKC9ScQlGgEEEEAAAQQQEC5AexNOSiACCCCAAAIIICBRgPYmEZdoBBBAAAEEEEBAuADtTTgpgQgggAACCCCAgEQB2ptEXKIRQAABBBBAAAHhArQ34aQEIoAAAggggAACEgVobxJxiUYAAQQQQAABBIQL0N6EkxKIAAIIIIAAAghIFKC9ScQlGgEEEEAAAQQQEC5AexNOSiACCCCAAAIIICBRgPYmEZdoBBBAAAEEEEBAuADtTTgpgQgggAACCCCAgEQB2ptEXKIRQAABBBBAAAHhArQ34aQEIoAAAggggAACEgVobxJxiUYAAQQQQAABBIQL0N6EkxKIAAIIIIAAAghIFKC9ScQlGgEEEEAAAQQQEC5AexNOSiACCCCAAAIIICBRgPYmEZdoBBBAAAEEEEBAuADtTTgpgQgggAACCCCAgEQB2ptEXKIRQAABBBBAAAHhArQ34aQEIoAAAggggAACEgVobxJxiUYAAQQQQAABBIQL0N6EkxKIAAIIIIAAAghIFKC9ScQlGgEEEEAAAQQQEC5AexNOSiACCCCAAAIIICBRgPYmEZdoBBBAAAEEEEBAuADtTTgpgQgggAACCCCAgEQB2ptEXKIRQAABBBBAAAHhArQ34aQEIoAAAggggAACEgVobxJxiUYAAQQQQAABBIQL0N6EkxKIAAIIIIAAAghIFKC9ScQlGgEEEEAAAQQQEC5AexNOSiACCCCAAAIIICBRgPYmEZdoBBBAAAEEEEBAuADtTTgpgQgggAACCCCAgEQB2ptEXKIRQAABBBBAAAHhArQ34aQEIoAAAggggAACEgVobxJxiUYAAQQQQAABBIQL0N6EkxKIAAIIIIAAAghIFKC9ScQlGgEEEEAAAQQQEC5AexNOSiACCCCAAAIIICBRgPYmEZdoBBBAAAEEEEBAuADtTTgpgQgggAACCCCAgEQB2ptEXKIRQAABBBBAAAHhArQ34aQEIoAAAggggAACEgVobxJxiUYAAQQQQAABBIQL0N6EkxKIAAIIIIAAAghIFKC9ScQlGgEEEEAAAQQQEC5AexNOSiACCCCAAAIIICBRgPYmEZdoBBBAAAEEEEBAuADtTTgpgQgggAACCCCAgEQB2ptEXKIRQAABBBBAAAHhArQ34aQEIoAAAggggAACEgVobxJxiUYAAQQQQAABBIQL0N6EkxKIAAIIIIAAAghIFKC9ScQlGgEEEEAAAQQQEC5AexNOSiACCCCAAAIIICBRgPYmEZdoBBBAAAEEEEBAuADtTTgpgQgggAACCCCAgEQB2ptEXKIRQAABBBBAAAHhArQ34aQEIoAAAggggAACEgVobxJxiUYAAQQQQAABBIQL0N6EkxKIAAIIIIAAAghIFKC9ScQlGgEEEEAAAQQQEC5AexNOSiACCCCAAAIIICBRgPYmEZdoBBBAAAEEEEBAuADtTTgpgQgggAACCCCAgEQB2ptEXKIRQAABBBBAAAHhArQ34aQEIoAAAggggAACEgVobxJxiUYAAQQQQAABBIQL0N6EkxKIAAIIIIAAAghIFKC9ScQlGgEEEEAAAQQQEC5AexNOSiACCCCAAAIIICBRgPYmEZdoBBBAAAEEEEBAuADtTTgpgQgggAACCCCAgEQB2ptEXKIRQAABBBBAAAHhArQ34aQEIoAAAggggAACEgVobxJxiUYAAQQQQAABBIQL0N6EkxKIAAIIIIAAAghIFKC9ScQlGgEEEEAAAQQQEC5AexNOSiACCCCAAAIIICBRgPYmEZdoBBBAAAEEEEBAuADtTTgpgQgggAACCCCAgEQB2ptEXKIRQAABBBBAAAHhArQ34aQEIoAAAggggAACEgVobxJxiUYAAQQQQAABBIQL0N6EkxKIAAIIIIAAAghIFKC9ScQlGgEEEEAAAQQQEC5AexNOSiACCCCAAAIIICBRgPYmEZdoBBBAAAEEEEBAuADtTTgpgQgggAACCCCAgEQB2ptEXKIRQAABBBBAAAHhArQ34aQEIoAAAggggAACEgVobxJxiUYAAQQQQAABBIQL0N6EkxKIAAIIIIAAAghIFKC9ScQlGgEEEEAAAQQQEC5AexNOSiACCCCAAAIIICBRgPYmEZdoBBBAAAEEEEBAuADtTTgpgQgggAACCCCAgEQB2ptEXKIRQAABBBBAAAHhArQ34aQEIoAAAggggAACEgVobxJxiUYAAQQQQAABBIQL0N6EkxKIAAIIIIAAAghIFKC9ScQlGgEEEEAAAQQQEC5AexNOSiACCCCAAAIIICBRgPYmEZdoBBBAAAEEEEBAuADtTTgpgQgggAACCCCAgEQB2ptEXKIRQAABBBBAAAHhArQ34aQEIoAAAggggAACEgVobxJxiUYAAQQQQAABBIQL0N6EkxKIAAIIIIAAAghIFKC9ScQlGgEEEEAAAQQQEC5AexNOSiACCCCAAAIIICBRgPYmEZdoBBBAAAEEEEBAuADtTTgpgQgggAACCCCAgEQB2ptEXKIRQAABBBBAAAHhArQ34aQEIoAAAggggAACEgVobxJxiUYAAQQQQAABBIQL0N6EkxKIAAIIIIAAAghIFKC9ScQlGgEEEEAAAQQQEC5AexNOSiACCCCAAAIIICBRgPYmEZdoBBBAAAEEEEBAuADtTTgpgQgggAACCCCAgEQB2ptEXKIRQAABBBBAAAHhArQ34aQEIoAAAggggAACEgVobxJxiUYAAQQQQAABBIQL0N6EkxKIAAIIIIAAAghIFKC9ScQlGgEEEEAAAQQQEC5AexNOSiACCCCAAAIIICBRgPYmEZdoBBBAAAEEEEBAuADtTTgpgQgggAACCCCAgEQB2ptEXKIRQAABBBBAAAHhArQ34aQEIoAAAggggAACEgVobxJxiUYAAQQQQAABBIQL0N6EkxKIAAIIIIAAAghIFKC9ScQlGgEEEEAAAQQQEC5AexNOSiACCCCAAAIIICBRgPYmEZdoBBBAAAEEEEBAuADtTTgpgQgggAACCCCAgEQB2ptEXKIRQAABBBBAAAHhArQ34aQEIoAAAggggAACEgVobxJxiUYAAQQQQAABBIQL0N6EkxKIAAIIIIAAAghIFKC9ScQlGgEEEEAAAQQQEC5AexNOSiACCCCAAAIIICBRgPYmEZdoBBBAAAEEEEBAuADtTTgpgQgggAACCCCAgEQB2ptEXKIRQAABBBBAAAHhArQ34aQEIoAAAggggAACEgVobxJxiUYAAQQQQAABBIQL0N6EkxKIAAIIIIAAAghIFKC9ScQlGgEEEEAAAQQQEC5AexNOSiACCCCAAAIIICBRgPYmEZdoBBBAAAEEEEBAuADtTTgpgQgggAACCCCAgEQB2ptEXKIRQAABBBBAAAHhArQ34aQEIoAAAggggAACEgVobxJxiUYAAQQQQAABBIQL0N6EkxKIAAIIIIAAAghIFKC9ScQlGgEEEEAAAQQQEC5AexNOSiACCCCAAAIIICBRgPYmEZdoBBBAAAEEEEBAuADtTTgpgQgggAACCCCAgEQB2ptEXKIRQAABBBBAAAHhArQ34aQEIoAAAggggAACEgVobxJxiUYAAQQQQAABBIQL0N6EkxKIAAIIIIAAAghIFKC9ScQlGgEEEEAAAQQQEC5AexNOSiACCCCAAAIIICBRgPYmEZdoBBBAAAEEEEBAuADtTTgpgQgggAACCCCAgEQB2ptEXKIRQAABBBBAAAHhArQ34aQEIoAAAggggAACEgVobxJxiUYAAQQQQAABBIQL0N6EkxKIAAIIIIAAAghIFKC9ScQlGgEEEEAAAQQQEC5AexNOSiACCCCAAAIIICBRgPYmEZdoBBBAAAEEEEBAuADtTTgpgQgggAACCCCAgEQB2ptEXKIRQAABBBBAAAHhArQ34aQEIoAAAggggAACEgVobxJxiUYAAQQQQAABBIQL0N6EkxKIAAIIIIAAAghIFKC9ScQlGgEEEEAAAQQQEC5AexNOSiACCCCAAAIIICBRgPYmEZdoBBBAAAEEEEBAuADtTTgpgQgggAACCCCAgEQB2ptEXKIRQAABBBBAAAHhArQ34aQEIoAAAggggAACEgVobxJxiUYAAQQQQAABBIQL0N6EkxKIAAIIIIAAAghIFKC9ScQlGgEEEEAAAQQQEC5AexNOSiACCCCAAAIIICBRgPYmEZdoBBBAAAEEEEBAuADtTTgpgQgggAACCCCAgEQB2ptEXKIRQAABBBBAAAHhArQ34aQEIoAAAggggAACEgVobxJxiUYAAQQQQAABBIQL0N6EkxKIAAIIIIAAAghIFKC9ScQlGgEEEEAAAQQQEC5AexNOSiACCCCAAAIIICBRgPYmEZdoBBBAAAEEEEBAuADtTTgpgQgggAACCCCAgEQB2ptEXKIRQAABBBBAAAHhArQ34aQEIoAAAggggAACEgVobxJxiUYAAQQQQAABBIQL0N6EkxKIAAIIIIAAAghIFKC9ScQlGgEEEEAAAQQQEC5AexNOSiACCCCAAAIIICBRgPYmEZdoBBBAAAEEEEBAuADtTTgpgQgggAACCCCAgEQB2ptEXKIRQAABBBBAAAHhArQ34aQEIoAAAggggAACEgVobxJxiUYAAQQQQAABBIQL0N6EkxKIAAIIIIAAAghIFKC9ScQlGgEEEEAAAQQQEC5AexNOSiACCCCAAAIIICBRgPYmEZdoBBBAAAEEEEBAuADtTTgpgQgggAACCCCAgEQB2ptEXKIRQAABBBBAAAHhArQ34aQEIoAAAggggAACEgVobxJxiUYAAQQQQAABBIQL0N6EkxKIAAIIIIAAAghIFKC9ScQlGgEEEEAAAQQQEC5AexNOSiACCCCAAAIIICBRgPYmEZdoBBBAAAEEEEBAuADtTTgpgQgggAACCCCAgEQB2ptEXKIRQAABBBBAAAHhArQ34aQEIoAAAggggAACEgVobxJxiUYAAQQQQAABBIQL0N6EkxKIAAIIIIAAAghIFKC9ScQlGgEEEEAAAQQQEC5AexNOSiACCCCAAAIIICBRgPYmEZdoBBBAAAEEEEBAuADtTTgpgQgggAACCCCAgEQB2ptEXKIRQAABBBBAAAHhArQ34aQEIoAAAggggAACEgX+P0jIvPADblknAAAAAElFTkSuQmCC;" vertex="1" parent="1">
          <mxGeometry x="810" y="-80" width="831" height="740" as="geometry" />
        </mxCell>
        <mxCell id="5XtgcM8SoPn40deR1ner-32" style="edgeStyle=orthogonalEdgeStyle;rounded=0;orthogonalLoop=1;jettySize=auto;html=1;entryX=0.5;entryY=0;entryDx=0;entryDy=0;" edge="1" parent="1" source="5XtgcM8SoPn40deR1ner-8" target="5XtgcM8SoPn40deR1ner-22">
          <mxGeometry relative="1" as="geometry" />
        </mxCell>
        <mxCell id="5XtgcM8SoPn40deR1ner-33" style="edgeStyle=orthogonalEdgeStyle;rounded=0;orthogonalLoop=1;jettySize=auto;html=1;entryX=0.5;entryY=0;entryDx=0;entryDy=0;" edge="1" parent="1" source="5XtgcM8SoPn40deR1ner-8" target="5XtgcM8SoPn40deR1ner-20">
          <mxGeometry relative="1" as="geometry" />
        </mxCell>
        <mxCell id="5XtgcM8SoPn40deR1ner-34" style="edgeStyle=orthogonalEdgeStyle;rounded=0;orthogonalLoop=1;jettySize=auto;html=1;entryX=0.5;entryY=0;entryDx=0;entryDy=0;" edge="1" parent="1" source="5XtgcM8SoPn40deR1ner-8" target="5XtgcM8SoPn40deR1ner-19">
          <mxGeometry relative="1" as="geometry" />
        </mxCell>
        <mxCell id="5XtgcM8SoPn40deR1ner-35" style="edgeStyle=orthogonalEdgeStyle;rounded=0;orthogonalLoop=1;jettySize=auto;html=1;entryX=0.5;entryY=0;entryDx=0;entryDy=0;" edge="1" parent="1" source="5XtgcM8SoPn40deR1ner-8" target="5XtgcM8SoPn40deR1ner-18">
          <mxGeometry relative="1" as="geometry" />
        </mxCell>
        <mxCell id="5XtgcM8SoPn40deR1ner-37" style="edgeStyle=orthogonalEdgeStyle;rounded=0;orthogonalLoop=1;jettySize=auto;html=1;entryX=0.5;entryY=0;entryDx=0;entryDy=0;" edge="1" parent="1" source="5XtgcM8SoPn40deR1ner-8" target="5XtgcM8SoPn40deR1ner-26">
          <mxGeometry relative="1" as="geometry" />
        </mxCell>
        <mxCell id="5XtgcM8SoPn40deR1ner-38" style="edgeStyle=orthogonalEdgeStyle;rounded=0;orthogonalLoop=1;jettySize=auto;html=1;entryX=0.5;entryY=0;entryDx=0;entryDy=0;" edge="1" parent="1" source="5XtgcM8SoPn40deR1ner-8" target="5XtgcM8SoPn40deR1ner-23">
          <mxGeometry relative="1" as="geometry" />
        </mxCell>
        <mxCell id="5XtgcM8SoPn40deR1ner-41" style="edgeStyle=orthogonalEdgeStyle;rounded=0;orthogonalLoop=1;jettySize=auto;html=1;entryX=0.5;entryY=0;entryDx=0;entryDy=0;" edge="1" parent="1" source="5XtgcM8SoPn40deR1ner-8" target="5XtgcM8SoPn40deR1ner-21">
          <mxGeometry relative="1" as="geometry" />
        </mxCell>
        <mxCell id="5XtgcM8SoPn40deR1ner-8" value="Администратор" style="rounded=0;whiteSpace=wrap;html=1;" vertex="1" parent="1">
          <mxGeometry x="40" y="30" width="120" height="60" as="geometry" />
        </mxCell>
        <mxCell id="5XtgcM8SoPn40deR1ner-9" value="Менеджер" style="rounded=0;whiteSpace=wrap;html=1;" vertex="1" parent="1">
          <mxGeometry x="340" y="30" width="120" height="60" as="geometry" />
        </mxCell>
        <mxCell id="5XtgcM8SoPn40deR1ner-10" value="Кладовщик" style="rounded=0;whiteSpace=wrap;html=1;" vertex="1" parent="1">
          <mxGeometry x="490" y="30" width="120" height="60" as="geometry" />
        </mxCell>
        <mxCell id="5XtgcM8SoPn40deR1ner-11" value="Техническая поддержка" style="rounded=0;whiteSpace=wrap;html=1;" vertex="1" parent="1">
          <mxGeometry x="640" y="30" width="120" height="60" as="geometry" />
        </mxCell>
        <mxCell id="5XtgcM8SoPn40deR1ner-14" value="" style="endArrow=classic;html=1;rounded=0;entryX=0.5;entryY=0;entryDx=0;entryDy=0;exitX=0.5;exitY=1;exitDx=0;exitDy=0;" edge="1" parent="1" source="5XtgcM8SoPn40deR1ner-6" target="5XtgcM8SoPn40deR1ner-8">
          <mxGeometry width="50" height="50" relative="1" as="geometry">
            <mxPoint x="180" y="-10" as="sourcePoint" />
            <mxPoint x="230" y="-60" as="targetPoint" />
            <Array as="points">
              <mxPoint x="320" y="-10" />
              <mxPoint x="210" y="-10" />
              <mxPoint x="100" y="-10" />
            </Array>
          </mxGeometry>
        </mxCell>
        <mxCell id="5XtgcM8SoPn40deR1ner-15" value="" style="endArrow=classic;html=1;rounded=0;entryX=0.5;entryY=0;entryDx=0;entryDy=0;" edge="1" parent="1" target="5XtgcM8SoPn40deR1ner-10">
          <mxGeometry width="50" height="50" relative="1" as="geometry">
            <mxPoint x="320" y="-30" as="sourcePoint" />
            <mxPoint x="450" y="-70" as="targetPoint" />
            <Array as="points">
              <mxPoint x="320" y="-10" />
              <mxPoint x="550" y="-10" />
            </Array>
          </mxGeometry>
        </mxCell>
        <mxCell id="5XtgcM8SoPn40deR1ner-16" value="" style="endArrow=classic;html=1;rounded=0;entryX=0.5;entryY=0;entryDx=0;entryDy=0;exitX=0.5;exitY=1;exitDx=0;exitDy=0;" edge="1" parent="1" source="5XtgcM8SoPn40deR1ner-6">
          <mxGeometry width="50" height="50" relative="1" as="geometry">
            <mxPoint x="350" y="-30" as="sourcePoint" />
            <mxPoint x="730" y="30" as="targetPoint" />
            <Array as="points">
              <mxPoint x="320" y="-10" />
              <mxPoint x="730" y="-10" />
            </Array>
          </mxGeometry>
        </mxCell>
        <mxCell id="5XtgcM8SoPn40deR1ner-17" value="" style="endArrow=classic;html=1;rounded=0;entryX=0.5;entryY=0;entryDx=0;entryDy=0;exitX=0.5;exitY=1;exitDx=0;exitDy=0;" edge="1" parent="1" source="5XtgcM8SoPn40deR1ner-6" target="5XtgcM8SoPn40deR1ner-9">
          <mxGeometry width="50" height="50" relative="1" as="geometry">
            <mxPoint x="320" y="-30" as="sourcePoint" />
            <mxPoint x="330" as="targetPoint" />
            <Array as="points">
              <mxPoint x="320" y="-10" />
              <mxPoint x="400" y="-10" />
            </Array>
          </mxGeometry>
        </mxCell>
        <mxCell id="5XtgcM8SoPn40deR1ner-53" style="edgeStyle=orthogonalEdgeStyle;rounded=0;orthogonalLoop=1;jettySize=auto;html=1;entryX=0.5;entryY=0;entryDx=0;entryDy=0;" edge="1" parent="1" source="5XtgcM8SoPn40deR1ner-18" target="5XtgcM8SoPn40deR1ner-46">
          <mxGeometry relative="1" as="geometry" />
        </mxCell>
        <mxCell id="5XtgcM8SoPn40deR1ner-18" value="Статусы" style="rounded=0;whiteSpace=wrap;html=1;" vertex="1" parent="1">
          <mxGeometry x="-610" y="170" width="120" height="60" as="geometry" />
        </mxCell>
        <mxCell id="5XtgcM8SoPn40deR1ner-54" style="edgeStyle=orthogonalEdgeStyle;rounded=0;orthogonalLoop=1;jettySize=auto;html=1;entryX=0.5;entryY=0;entryDx=0;entryDy=0;" edge="1" parent="1" source="5XtgcM8SoPn40deR1ner-19" target="5XtgcM8SoPn40deR1ner-47">
          <mxGeometry relative="1" as="geometry" />
        </mxCell>
        <mxCell id="5XtgcM8SoPn40deR1ner-19" value="Поставщики" style="rounded=0;whiteSpace=wrap;html=1;" vertex="1" parent="1">
          <mxGeometry x="-450" y="170" width="120" height="60" as="geometry" />
        </mxCell>
        <mxCell id="5XtgcM8SoPn40deR1ner-55" style="edgeStyle=orthogonalEdgeStyle;rounded=0;orthogonalLoop=1;jettySize=auto;html=1;entryX=0.5;entryY=0;entryDx=0;entryDy=0;" edge="1" parent="1" source="5XtgcM8SoPn40deR1ner-20" target="5XtgcM8SoPn40deR1ner-48">
          <mxGeometry relative="1" as="geometry" />
        </mxCell>
        <mxCell id="5XtgcM8SoPn40deR1ner-20" value="Склады" style="rounded=0;whiteSpace=wrap;html=1;" vertex="1" parent="1">
          <mxGeometry x="-310" y="170" width="120" height="60" as="geometry" />
        </mxCell>
        <mxCell id="5XtgcM8SoPn40deR1ner-56" style="edgeStyle=orthogonalEdgeStyle;rounded=0;orthogonalLoop=1;jettySize=auto;html=1;entryX=0.5;entryY=0;entryDx=0;entryDy=0;" edge="1" parent="1" source="5XtgcM8SoPn40deR1ner-21" target="5XtgcM8SoPn40deR1ner-49">
          <mxGeometry relative="1" as="geometry" />
        </mxCell>
        <mxCell id="5XtgcM8SoPn40deR1ner-21" value="Категории" style="rounded=0;whiteSpace=wrap;html=1;" vertex="1" parent="1">
          <mxGeometry x="-170" y="170" width="120" height="60" as="geometry" />
        </mxCell>
        <mxCell id="5XtgcM8SoPn40deR1ner-57" style="edgeStyle=orthogonalEdgeStyle;rounded=0;orthogonalLoop=1;jettySize=auto;html=1;entryX=0.5;entryY=0;entryDx=0;entryDy=0;" edge="1" parent="1" source="5XtgcM8SoPn40deR1ner-22" target="5XtgcM8SoPn40deR1ner-50">
          <mxGeometry relative="1" as="geometry" />
        </mxCell>
        <mxCell id="5XtgcM8SoPn40deR1ner-22" value="Пользователи" style="rounded=0;whiteSpace=wrap;html=1;" vertex="1" parent="1">
          <mxGeometry x="-30" y="170" width="120" height="60" as="geometry" />
        </mxCell>
        <mxCell id="5XtgcM8SoPn40deR1ner-58" style="edgeStyle=orthogonalEdgeStyle;rounded=0;orthogonalLoop=1;jettySize=auto;html=1;entryX=0.5;entryY=0;entryDx=0;entryDy=0;" edge="1" parent="1" source="5XtgcM8SoPn40deR1ner-23" target="5XtgcM8SoPn40deR1ner-51">
          <mxGeometry relative="1" as="geometry" />
        </mxCell>
        <mxCell id="5XtgcM8SoPn40deR1ner-23" value="Привязанные роли" style="rounded=0;whiteSpace=wrap;html=1;" vertex="1" parent="1">
          <mxGeometry x="110" y="170" width="120" height="60" as="geometry" />
        </mxCell>
        <mxCell id="5XtgcM8SoPn40deR1ner-52" style="edgeStyle=orthogonalEdgeStyle;rounded=0;orthogonalLoop=1;jettySize=auto;html=1;entryX=0.5;entryY=0;entryDx=0;entryDy=0;" edge="1" parent="1" source="5XtgcM8SoPn40deR1ner-26" target="5XtgcM8SoPn40deR1ner-43">
          <mxGeometry relative="1" as="geometry" />
        </mxCell>
        <mxCell id="5XtgcM8SoPn40deR1ner-26" value="Роли" style="rounded=0;whiteSpace=wrap;html=1;" vertex="1" parent="1">
          <mxGeometry x="-750" y="170" width="120" height="60" as="geometry" />
        </mxCell>
        <mxCell id="5XtgcM8SoPn40deR1ner-42" value="Добавление" style="rounded=0;whiteSpace=wrap;html=1;" vertex="1" parent="1">
          <mxGeometry x="-750" y="360" width="120" height="60" as="geometry" />
        </mxCell>
        <mxCell id="5XtgcM8SoPn40deR1ner-75" style="edgeStyle=orthogonalEdgeStyle;rounded=0;orthogonalLoop=1;jettySize=auto;html=1;entryX=0.5;entryY=0;entryDx=0;entryDy=0;" edge="1" parent="1" source="5XtgcM8SoPn40deR1ner-43" target="5XtgcM8SoPn40deR1ner-42">
          <mxGeometry relative="1" as="geometry" />
        </mxCell>
        <mxCell id="5XtgcM8SoPn40deR1ner-76" style="edgeStyle=orthogonalEdgeStyle;rounded=0;orthogonalLoop=1;jettySize=auto;html=1;entryX=0;entryY=0.5;entryDx=0;entryDy=0;" edge="1" parent="1" source="5XtgcM8SoPn40deR1ner-43" target="5XtgcM8SoPn40deR1ner-59">
          <mxGeometry relative="1" as="geometry">
            <Array as="points">
              <mxPoint x="-690" y="340" />
              <mxPoint x="-770" y="340" />
              <mxPoint x="-770" y="470" />
            </Array>
          </mxGeometry>
        </mxCell>
        <mxCell id="5XtgcM8SoPn40deR1ner-43" value="Список ролей&amp;nbsp;" style="rounded=0;whiteSpace=wrap;html=1;" vertex="1" parent="1">
          <mxGeometry x="-750" y="260" width="120" height="60" as="geometry" />
        </mxCell>
        <mxCell id="5XtgcM8SoPn40deR1ner-77" style="edgeStyle=orthogonalEdgeStyle;rounded=0;orthogonalLoop=1;jettySize=auto;html=1;" edge="1" parent="1" source="5XtgcM8SoPn40deR1ner-46" target="5XtgcM8SoPn40deR1ner-60">
          <mxGeometry relative="1" as="geometry" />
        </mxCell>
        <mxCell id="5XtgcM8SoPn40deR1ner-84" style="edgeStyle=orthogonalEdgeStyle;rounded=0;orthogonalLoop=1;jettySize=auto;html=1;entryX=0;entryY=0.5;entryDx=0;entryDy=0;" edge="1" parent="1" source="5XtgcM8SoPn40deR1ner-46" target="5XtgcM8SoPn40deR1ner-61">
          <mxGeometry relative="1" as="geometry">
            <Array as="points">
              <mxPoint x="-550" y="340" />
              <mxPoint x="-620" y="340" />
              <mxPoint x="-620" y="470" />
            </Array>
          </mxGeometry>
        </mxCell>
        <mxCell id="5XtgcM8SoPn40deR1ner-46" value="&lt;font style=&quot;color: rgb(0, 0, 0);&quot;&gt;Список статусов&lt;/font&gt;" style="rounded=0;whiteSpace=wrap;html=1;" vertex="1" parent="1">
          <mxGeometry x="-610" y="260" width="120" height="60" as="geometry" />
        </mxCell>
        <mxCell id="5XtgcM8SoPn40deR1ner-78" style="edgeStyle=orthogonalEdgeStyle;rounded=0;orthogonalLoop=1;jettySize=auto;html=1;entryX=0.5;entryY=0;entryDx=0;entryDy=0;" edge="1" parent="1" source="5XtgcM8SoPn40deR1ner-47" target="5XtgcM8SoPn40deR1ner-62">
          <mxGeometry relative="1" as="geometry" />
        </mxCell>
        <mxCell id="5XtgcM8SoPn40deR1ner-85" style="edgeStyle=orthogonalEdgeStyle;rounded=0;orthogonalLoop=1;jettySize=auto;html=1;entryX=0;entryY=0.5;entryDx=0;entryDy=0;" edge="1" parent="1" source="5XtgcM8SoPn40deR1ner-47" target="5XtgcM8SoPn40deR1ner-63">
          <mxGeometry relative="1" as="geometry">
            <Array as="points">
              <mxPoint x="-390" y="340" />
              <mxPoint x="-460" y="340" />
              <mxPoint x="-460" y="470" />
            </Array>
          </mxGeometry>
        </mxCell>
        <mxCell id="5XtgcM8SoPn40deR1ner-47" value="Список поставщиков" style="rounded=0;whiteSpace=wrap;html=1;" vertex="1" parent="1">
          <mxGeometry x="-450" y="260" width="120" height="60" as="geometry" />
        </mxCell>
        <mxCell id="5XtgcM8SoPn40deR1ner-79" style="edgeStyle=orthogonalEdgeStyle;rounded=0;orthogonalLoop=1;jettySize=auto;html=1;" edge="1" parent="1" source="5XtgcM8SoPn40deR1ner-48" target="5XtgcM8SoPn40deR1ner-64">
          <mxGeometry relative="1" as="geometry" />
        </mxCell>
        <mxCell id="5XtgcM8SoPn40deR1ner-86" style="edgeStyle=orthogonalEdgeStyle;rounded=0;orthogonalLoop=1;jettySize=auto;html=1;entryX=0;entryY=0.5;entryDx=0;entryDy=0;" edge="1" parent="1" source="5XtgcM8SoPn40deR1ner-48" target="5XtgcM8SoPn40deR1ner-65">
          <mxGeometry relative="1" as="geometry">
            <Array as="points">
              <mxPoint x="-250" y="340" />
              <mxPoint x="-320" y="340" />
              <mxPoint x="-320" y="470" />
            </Array>
          </mxGeometry>
        </mxCell>
        <mxCell id="5XtgcM8SoPn40deR1ner-48" value="Список складов" style="rounded=0;whiteSpace=wrap;html=1;" vertex="1" parent="1">
          <mxGeometry x="-310" y="260" width="120" height="60" as="geometry" />
        </mxCell>
        <mxCell id="5XtgcM8SoPn40deR1ner-80" style="edgeStyle=orthogonalEdgeStyle;rounded=0;orthogonalLoop=1;jettySize=auto;html=1;entryX=0.5;entryY=0;entryDx=0;entryDy=0;" edge="1" parent="1" source="5XtgcM8SoPn40deR1ner-49" target="5XtgcM8SoPn40deR1ner-66">
          <mxGeometry relative="1" as="geometry" />
        </mxCell>
        <mxCell id="5XtgcM8SoPn40deR1ner-87" style="edgeStyle=orthogonalEdgeStyle;rounded=0;orthogonalLoop=1;jettySize=auto;html=1;entryX=0;entryY=0.5;entryDx=0;entryDy=0;" edge="1" parent="1" source="5XtgcM8SoPn40deR1ner-49" target="5XtgcM8SoPn40deR1ner-67">
          <mxGeometry relative="1" as="geometry">
            <Array as="points">
              <mxPoint x="-110" y="340" />
              <mxPoint x="-180" y="340" />
              <mxPoint x="-180" y="470" />
            </Array>
          </mxGeometry>
        </mxCell>
        <mxCell id="5XtgcM8SoPn40deR1ner-49" value="Список категорий" style="rounded=0;whiteSpace=wrap;html=1;" vertex="1" parent="1">
          <mxGeometry x="-170" y="260" width="120" height="60" as="geometry" />
        </mxCell>
        <mxCell id="5XtgcM8SoPn40deR1ner-81" style="edgeStyle=orthogonalEdgeStyle;rounded=0;orthogonalLoop=1;jettySize=auto;html=1;" edge="1" parent="1" source="5XtgcM8SoPn40deR1ner-50" target="5XtgcM8SoPn40deR1ner-68">
          <mxGeometry relative="1" as="geometry" />
        </mxCell>
        <mxCell id="5XtgcM8SoPn40deR1ner-88" style="edgeStyle=orthogonalEdgeStyle;rounded=0;orthogonalLoop=1;jettySize=auto;html=1;entryX=0;entryY=0.5;entryDx=0;entryDy=0;" edge="1" parent="1" source="5XtgcM8SoPn40deR1ner-50" target="5XtgcM8SoPn40deR1ner-69">
          <mxGeometry relative="1" as="geometry">
            <Array as="points">
              <mxPoint x="30" y="340" />
              <mxPoint x="-40" y="340" />
              <mxPoint x="-40" y="470" />
            </Array>
          </mxGeometry>
        </mxCell>
        <mxCell id="5XtgcM8SoPn40deR1ner-50" value="Список пользователей" style="rounded=0;whiteSpace=wrap;html=1;" vertex="1" parent="1">
          <mxGeometry x="-30" y="260" width="120" height="60" as="geometry" />
        </mxCell>
        <mxCell id="5XtgcM8SoPn40deR1ner-82" style="edgeStyle=orthogonalEdgeStyle;rounded=0;orthogonalLoop=1;jettySize=auto;html=1;entryX=0.5;entryY=0;entryDx=0;entryDy=0;" edge="1" parent="1" source="5XtgcM8SoPn40deR1ner-51" target="5XtgcM8SoPn40deR1ner-70">
          <mxGeometry relative="1" as="geometry">
            <mxPoint x="170" y="350" as="targetPoint" />
          </mxGeometry>
        </mxCell>
        <mxCell id="5XtgcM8SoPn40deR1ner-89" style="edgeStyle=orthogonalEdgeStyle;rounded=0;orthogonalLoop=1;jettySize=auto;html=1;entryX=0;entryY=0.5;entryDx=0;entryDy=0;" edge="1" parent="1" source="5XtgcM8SoPn40deR1ner-51" target="5XtgcM8SoPn40deR1ner-71">
          <mxGeometry relative="1" as="geometry">
            <Array as="points">
              <mxPoint x="170" y="340" />
              <mxPoint x="100" y="340" />
              <mxPoint x="100" y="470" />
            </Array>
          </mxGeometry>
        </mxCell>
        <mxCell id="5XtgcM8SoPn40deR1ner-51" value="Список привязанных ролей" style="rounded=0;whiteSpace=wrap;html=1;" vertex="1" parent="1">
          <mxGeometry x="110" y="260" width="120" height="60" as="geometry" />
        </mxCell>
        <mxCell id="5XtgcM8SoPn40deR1ner-59" value="Редактирование" style="rounded=0;whiteSpace=wrap;html=1;" vertex="1" parent="1">
          <mxGeometry x="-750" y="440" width="120" height="60" as="geometry" />
        </mxCell>
        <mxCell id="5XtgcM8SoPn40deR1ner-60" value="Добавление" style="rounded=0;whiteSpace=wrap;html=1;" vertex="1" parent="1">
          <mxGeometry x="-610" y="360" width="120" height="60" as="geometry" />
        </mxCell>
        <mxCell id="5XtgcM8SoPn40deR1ner-61" value="Редактирование" style="rounded=0;whiteSpace=wrap;html=1;" vertex="1" parent="1">
          <mxGeometry x="-610" y="440" width="120" height="60" as="geometry" />
        </mxCell>
        <mxCell id="5XtgcM8SoPn40deR1ner-62" value="Добавление" style="rounded=0;whiteSpace=wrap;html=1;" vertex="1" parent="1">
          <mxGeometry x="-450" y="360" width="120" height="60" as="geometry" />
        </mxCell>
        <mxCell id="5XtgcM8SoPn40deR1ner-63" value="Редактирование" style="rounded=0;whiteSpace=wrap;html=1;" vertex="1" parent="1">
          <mxGeometry x="-450" y="440" width="120" height="60" as="geometry" />
        </mxCell>
        <mxCell id="5XtgcM8SoPn40deR1ner-64" value="Добавление" style="rounded=0;whiteSpace=wrap;html=1;" vertex="1" parent="1">
          <mxGeometry x="-310" y="360" width="120" height="60" as="geometry" />
        </mxCell>
        <mxCell id="5XtgcM8SoPn40deR1ner-65" value="Редактирование" style="rounded=0;whiteSpace=wrap;html=1;" vertex="1" parent="1">
          <mxGeometry x="-310" y="440" width="120" height="60" as="geometry" />
        </mxCell>
        <mxCell id="5XtgcM8SoPn40deR1ner-66" value="Добавление" style="rounded=0;whiteSpace=wrap;html=1;" vertex="1" parent="1">
          <mxGeometry x="-170" y="360" width="120" height="60" as="geometry" />
        </mxCell>
        <mxCell id="5XtgcM8SoPn40deR1ner-67" value="Редактирование" style="rounded=0;whiteSpace=wrap;html=1;" vertex="1" parent="1">
          <mxGeometry x="-170" y="440" width="120" height="60" as="geometry" />
        </mxCell>
        <mxCell id="5XtgcM8SoPn40deR1ner-68" value="Добавление" style="rounded=0;whiteSpace=wrap;html=1;" vertex="1" parent="1">
          <mxGeometry x="-30" y="360" width="120" height="60" as="geometry" />
        </mxCell>
        <mxCell id="5XtgcM8SoPn40deR1ner-69" value="Редактирование" style="rounded=0;whiteSpace=wrap;html=1;" vertex="1" parent="1">
          <mxGeometry x="-30" y="440" width="120" height="60" as="geometry" />
        </mxCell>
        <mxCell id="5XtgcM8SoPn40deR1ner-70" value="Добавление" style="rounded=0;whiteSpace=wrap;html=1;" vertex="1" parent="1">
          <mxGeometry x="110" y="360" width="120" height="60" as="geometry" />
        </mxCell>
        <mxCell id="5XtgcM8SoPn40deR1ner-71" value="Редактирование" style="rounded=0;whiteSpace=wrap;html=1;" vertex="1" parent="1">
          <mxGeometry x="110" y="440" width="120" height="60" as="geometry" />
        </mxCell>
      </root>
    </mxGraphModel>
  </diagram>
</mxfile>
